{
.appVersion = "1287";
classes = (
{
automatic = 1;
code = "A Aacute Abreve Acaron Acircumflex Adieresis Agrave Amacron Aogonek Aring Atilde AE B C Cacute Ccaron Ccedilla Cdotaccent D Eth Dcaron Dcroat E Eacute Ecaron Ecircumflex Edieresis Edotaccent Egrave Emacron Eogonek F G Gbreve Gcommaaccent Gdotaccent H Hbar I Iacute Icaron Icircumflex Idieresis Idotaccent Igrave Imacron Iogonek J K Kcommaaccent L Lacute Lcaron Lcommaaccent Lslash M N Nacute Ncaron Ncommaaccent Eng Ntilde O Oacute Ocaron Ocircumflex Odieresis Ograve Ohungarumlaut Omacron Oslash Otilde OE P Thorn Q R Racute Rcaron Rcommaaccent S Sacute Scaron Scedilla Scommaaccent Germandbls T Tbar Tcaron Tcedilla Tcommaaccent U Uacute Ucaron Ucircumflex Udieresis Udieresisacute Udieresiscaron Udieresisgrave Udieresismacron Udotbelow Ugrave Uhungarumlaut Umacron Uogonek Uring Utilde V W Wacute Wcircumflex Wdieresis Wgrave X Y Y.001 Yacute Ycircumflex Ydieresis Ygrave Z Zacute Zcaron Zdotaccent";
name = Uppercase;
},
{
automatic = 1;
code = "a a.ss01 aacute abreve acaron acircumflex adieresis agrave amacron aogonek aring atilde ae b c cacute ccaron ccedilla cdotaccent d eth dcaron dcroat e eacute ecaron ecircumflex edieresis edotaccent egrave emacron eogonek f g gbreve gcommaaccent gdotaccent h hbar i idotless iacute icaron icircumflex idieresis idotaccent igrave imacron iogonek j k kcommaaccent l l.ss01 lacute lcaron lcommaaccent lslash m n nacute ncaron ncommaaccent eng ntilde o oacute ocaron ocircumflex odieresis ograve ohungarumlaut omacron oslash otilde oe p thorn q r r.ss01 racute rcaron rcommaaccent s s.001 sacute scaron scedilla scommaaccent germandbls t t.ss01 tbar tcaron tcedilla tcommaaccent u uacute ucaron ucircumflex udieresis udieresisacute udieresiscaron udieresisgrave udieresismacron udotbelow ugrave uhungarumlaut umacron uogonek uring utilde v w wacute wcircumflex wdieresis wgrave x y y.ss01 yacute ycircumflex ydieresis ygrave z zacute zcaron zdotaccent";
name = Lowercase;
}
);

glyphs = (
{
glyphname = A;
layers = (
{
anchors = (
{
name = bottom;
position = "{81, 0}";
},
{
name = ogonek;
position = "{126, 0}";
},
{
name = top;
position = "{81, 1350}";
}
);
layerId = "A1A0948C-E637-4A65-8CCC-05505AD98C44";
paths = (
{
closed = 1;
nodes = (
"48 0 LINE",
"78 1328 LINE",
"86 1328 LINE",
"116 0 LINE",
"138 0 LINE",
"106 1350 LINE",
"58 1350 LINE",
"26 0 LINE"
);
},
{
closed = 1;
nodes = (
"122 320 LINE",
"122 342 LINE",
"42 342 LINE",
"42 320 LINE"
);
}
);
width = 176;
},
{
anchors = (
{
name = bottom;
position = "{380, 0}";
},
{
name = ogonek;
position = "{473, 0}";
},
{
name = top;
position = "{380, 1350}";
}
);
layerId = "BA0CA162-2A9B-49EE-921D-3B4346C7D39F";
paths = (
{
closed = 1;
nodes = (
"360 0 LINE",
"372 1134 LINE",
"388 1134 LINE",
"400 0 LINE",
"750 0 LINE",
"652 1350 LINE",
"104 1350 LINE",
"10 0 LINE"
);
},
{
closed = 1;
nodes = (
"578 198 LINE",
"562 422 LINE",
"196 422 LINE",
"184 198 LINE"
);
}
);
width = 760;
},
{
anchors = (
{
name = bottom;
position = "{1192, 0}";
},
{
name = ogonek;
position = "{1825, 0}";
},
{
name = top;
position = "{1192, 1350}";
}
);
layerId = "C75D3228-2D13-4E9D-9829-45195F4951D0";
paths = (
{
closed = 1;
nodes = (
"678 0 LINE",
"1200 1072 LINE",
"1196 1072 LINE",
"1714 0 LINE",
"2294 0 LINE",
"1606 1350 LINE",
"788 1350 LINE",
"98 0 LINE"
);
},
{
closed = 1;
nodes = (
"1896 264 LINE",
"1726 626 LINE",
"656 626 LINE",
"472 264 LINE"
);
}
);
width = 2388;
},
{
anchors = (
{
name = bottom;
position = "{937, 0}";
},
{
name = ogonek;
position = "{1749, 0}";
},
{
name = top;
position = "{937, 1350}";
}
);
layerId = "71977205-6510-4B11-BB00-17BACA883C8F";
paths = (
{
closed = 1;
nodes = (
"136 0 LINE",
"936 1342 LINE",
"940 1342 LINE",
"1738 0 LINE",
"1766 0 LINE",
"958 1356 LINE",
"918 1356 LINE",
"108 0 LINE"
);
},
{
closed = 1;
nodes = (
"1500 430 LINE",
"1486 452 LINE",
"390 452 LINE",
"374 430 LINE"
);
}
);
width = 1954;
},
{
anchors = (
{
name = bottom;
position = "{786, 0}";
},
{
name = ogonek;
position = "{1656, 0}";
},
{
name = top;
position = "{1082, 1350}";
}
);
layerId = "5997A0D0-E78E-41EC-9011-DECBEAD8517D";
paths = (
{
closed = 1;
nodes = (
"44 0 LINE",
"1086 1342 LINE",
"1082 1342 LINE",
"1646 0 LINE",
"1674 0 LINE",
"1102 1356 LINE",
"1066 1356 LINE",
"14 0 LINE"
);
},
{
closed = 1;
nodes = (
"1480 430 LINE",
"1470 452 LINE",
"380 452 LINE",
"360 430 LINE"
);
}
);
width = 1956;
},
{
anchors = (
{
name = bottom;
position = "{284.489, 0}";
},
{
name = ogonek;
position = "{380, 0}";
},
{
name = top;
position = "{516, 1350}";
}
);
layerId = "55C4185A-9C39-4468-B19C-DE0A3E571700";
paths = (
{
closed = 1;
nodes = (
"264 0 LINE",
"470 1134 LINE",
"486 1134 LINE",
"304 0 LINE",
"650 0 LINE",
"794 1350 LINE",
"244 1350 LINE",
"-90 0 LINE"
);
},
{
closed = 1;
nodes = (
"428 198 LINE",
"454 422 LINE",
"278 422 LINE",
"218 198 LINE"
);
}
);
width = 758;
},
{
anchors = (
{
name = bottom;
position = "{-19, 0}";
},
{
name = ogonek;
position = "{27, 0}";
},
{
name = top;
position = "{220, 1350}";
}
);
layerId = "4F53612F-C4F8-4368-83AD-8913BEEF8F1D";
paths = (
{
closed = 1;
nodes = (
"-52 0 LINE",
"214 1328 LINE",
"222 1328 LINE",
"16 0 LINE",
"38 0 LINE",
"246 1350 LINE",
"198 1350 LINE",
"-74 0 LINE"
);
},
{
closed = 1;
nodes = (
"80 320 LINE",
"84 342 LINE",
"4 342 LINE",
"0 320 LINE"
);
}
);
width = 178;
},
{
anchors = (
{
name = bottom;
position = "{1029, 0}";
},
{
name = ogonek;
position = "{1706, 0}";
},
{
name = top;
position = "{1304, 1350}";
}
);
layerId = "E5A4176B-9C10-4B01-BBC9-D7999ECBFAF8";
paths = (
{
closed = 1;
nodes = (
"550 0 LINE",
"1260 1072 LINE",
"1252 1072 LINE",
"1582 0 LINE",
"2154 0 LINE",
"1706 1346 LINE",
"884 1346 LINE",
"-42 0 LINE"
);
},
{
closed = 1;
nodes = (
"1642 264 LINE",
"1536 626 LINE",
"806 626 LINE",
"556 264 LINE"
);
}
);
width = 2380;
}
);
leftKerningGroup = A;
note = A;
rightKerningGroup = A;
unicode = 0041;
},
{
glyphname = AE;
layers = (
{
anchors = (
{
name = bottom;
position = "{115, 0}";
},
{
name = top;
position = "{115, 1350}";
}
);
components = (
{
alignment = -1;
name = E;
transform = "{1, 0, 0, 1, 74, 0}";
}
);
layerId = "A1A0948C-E637-4A65-8CCC-05505AD98C44";
paths = (
{
closed = 1;
nodes = (
"48 0 LINE",
"104 1334 LINE",
"104 1350 LINE",
"88 1350 LINE",
"26 0 LINE"
);
},
{
closed = 1;
nodes = (
"114 322 LINE",
"114 344 LINE",
"46 344 LINE",
"48 322 LINE"
);
}
);
width = 212;
},
{
anchors = (
{
name = bottom;
position = "{468, 0}";
},
{
name = top;
position = "{468, 1350}";
}
);
components = (
{
alignment = -1;
name = E;
transform = "{1, 0, 0, 1, 436, 0}";
}
);
layerId = "BA0CA162-2A9B-49EE-921D-3B4346C7D39F";
paths = (
{
closed = 1;
nodes = (
"378 0 LINE",
"452 1160 LINE",
"452 1350 LINE",
"164 1350 LINE",
"10 0 LINE"
);
},
{
closed = 1;
nodes = (
"570 204 LINE",
"570 428 LINE",
"294 428 LINE",
"240 204 LINE"
);
}
);
width = 938;
},
{
anchors = (
{
name = bottom;
position = "{1631, 0}";
},
{
name = top;
position = "{1631, 1350}";
}
);
components = (
{
alignment = -1;
name = E;
transform = "{1, 0, 0, 1, 1440, 0}";
}
);
layerId = "C75D3228-2D13-4E9D-9829-45195F4951D0";
paths = (
{
closed = 1;
nodes = (
"688 0 LINE",
"1674 1218 LINE",
"1674 1350 LINE",
"1180 1350 LINE",
"98 0 LINE"
);
},
{
closed = 1;
nodes = (
"1630 250 LINE",
"1630 604 LINE",
"728 604 LINE",
"608 250 LINE"
);
}
);
width = 3304;
},
{
anchors = (
{
name = bottom;
position = "{1428, 0}";
},
{
name = top;
position = "{1428, 1350}";
}
);
components = (
{
alignment = -1;
name = E;
transform = "{1, 0, 0, 1, 1180, 0}";
}
);
layerId = "71977205-6510-4B11-BB00-17BACA883C8F";
paths = (
{
closed = 1;
nodes = (
"136 0 LINE",
"1322 1338 LINE",
"1322 1350 LINE",
"1300 1350 LINE",
"108 0 LINE"
);
},
{
closed = 1;
nodes = (
"1326 422 LINE",
"1326 444 LINE",
"524 444 LINE",
"490 422 LINE"
);
}
);
width = 2800;
},
{
anchors = (
{
name = bottom;
position = "{1339, 0}";
},
{
name = top;
position = "{1578, 1350}";
}
);
components = (
{
alignment = -1;
name = E;
transform = "{1, 0, 0, 1, 1188, 0}";
}
);
layerId = "5997A0D0-E78E-41EC-9011-DECBEAD8517D";
paths = (
{
closed = 1;
nodes = (
"46 0 LINE",
"1468 1338 LINE",
"1470 1350 LINE",
"1444 1350 LINE",
"14 0 LINE"
);
},
{
closed = 1;
nodes = (
"1310 422 LINE",
"1314 444 LINE",
"512 444 LINE",
"474 422 LINE"
);
}
);
width = 2808;
},
{
anchors = (
{
name = bottom;
position = "{380, 0}";
},
{
name = top;
position = "{619, 1350}";
}
);
components = (
{
alignment = -1;
name = E;
transform = "{1, 0, 0, 1, 439, 0}";
}
);
layerId = "55C4185A-9C39-4468-B19C-DE0A3E571700";
paths = (
{
closed = 1;
nodes = (
"278 0 LINE",
"557 1160 LINE",
"590 1350 LINE",
"302 1350 LINE",
"-90 0 LINE"
);
},
{
closed = 1;
nodes = (
"506 204 LINE",
"545 428 LINE",
"269 428 LINE",
"176 204 LINE"
);
}
);
width = 939;
},
{
anchors = (
{
name = bottom;
position = "{13, 0}";
},
{
name = top;
position = "{252, 1350}";
}
);
components = (
{
alignment = -1;
name = E;
transform = "{1, 0, 0, 1, 67, 0}";
}
);
layerId = "4F53612F-C4F8-4368-83AD-8913BEEF8F1D";
paths = (
{
closed = 1;
nodes = (
"-52 0 LINE",
"239 1334 LINE",
"242 1350 LINE",
"226 1350 LINE",
"-74 0 LINE"
);
},
{
closed = 1;
nodes = (
"71 322 LINE",
"75 344 LINE",
"7 344 LINE",
"5 322 LINE"
);
}
);
width = 205;
},
{
anchors = (
{
name = bottom;
position = "{1535, 0}";
},
{
name = top;
position = "{1774, 1350}";
}
);
components = (
{
alignment = -1;
name = E;
transform = "{1, 0, 0, 1, 1439, 0}";
}
);
layerId = "E5A4176B-9C10-4B01-BBC9-D7999ECBFAF8";
paths = (
{
closed = 1;
nodes = (
"548 0 LINE",
"1749 1218 LINE",
"1772 1350 LINE",
"1278 1350 LINE",
"-42 0 LINE"
);
},
{
closed = 1;
nodes = (
"1534 250 LINE",
"1596 604 LINE",
"694 604 LINE",
"512 250 LINE"
);
}
);
width = 3301;
}
);
leftKerningGroup = A;
leftMetricsKey = A;
rightKerningGroup = E;
rightMetricsKey = E;
unicode = 00C6;
},
{
glyphname = B;
layers = (
{
anchors = (
{
name = bottom;
position = "{84, 0}";
},
{
name = top;
position = "{84, 1350}";
}
);
layerId = "A1A0948C-E637-4A65-8CCC-05505AD98C44";
paths = (
{
closed = 1;
nodes = (
"72 0 LINE SMOOTH",
"130 0 OFFCURVE",
"130 236 OFFCURVE",
"130 396 QCURVE SMOOTH",
"130 530 OFFCURVE",
"130 756 OFFCURVE",
"90 762 QCURVE",
"130 768 OFFCURVE",
"130 952 OFFCURVE",
"130 1068 QCURVE SMOOTH",
"130 1168 OFFCURVE",
"130 1350 OFFCURVE",
"70 1350 QCURVE SMOOTH",
"28 1350 LINE",
"28 0 LINE"
);
},
{
closed = 1;
nodes = (
"50 750 LINE",
"68 750 LINE SMOOTH",
"108 750 OFFCURVE",
"108 530 OFFCURVE",
"108 396 QCURVE SMOOTH",
"108 236 OFFCURVE",
"108 22 OFFCURVE",
"72 22 QCURVE SMOOTH",
"50 22 LINE"
);
},
{
closed = 1;
nodes = (
"50 1328 LINE",
"70 1328 LINE SMOOTH",
"108 1328 OFFCURVE",
"108 1170 OFFCURVE",
"108 1070 QCURVE SMOOTH",
"108 954 OFFCURVE",
"108 772 OFFCURVE",
"68 772 QCURVE SMOOTH",
"50 772 LINE"
);
}
);
width = 168;
},
{
anchors = (
{
name = bottom;
position = "{371, 0}";
},
{
name = top;
position = "{371, 1350}";
}
);
layerId = "BA0CA162-2A9B-49EE-921D-3B4346C7D39F";
paths = (
{
closed = 1;
nodes = (
"526 0 LINE SMOOTH",
"730 0 OFFCURVE",
"730 266 OFFCURVE",
"730 408 QCURVE SMOOTH",
"730 508 OFFCURVE",
"730 738 OFFCURVE",
"588 746 QCURVE",
"730 748 OFFCURVE",
"730 956 OFFCURVE",
"730 1024 QCURVE SMOOTH",
"730 1086 OFFCURVE",
"730 1350 OFFCURVE",
"550 1350 QCURVE SMOOTH",
"12 1350 LINE",
"12 0 LINE"
);
},
{
closed = 1;
nodes = (
"360 632 LINE",
"368 632 LINE SMOOTH",
"384 632 OFFCURVE",
"384 524 OFFCURVE",
"384 424 QCURVE SMOOTH",
"384 324 OFFCURVE",
"384 224 OFFCURVE",
"370 224 QCURVE SMOOTH",
"360 224 LINE"
);
},
{
closed = 1;
nodes = (
"360 1130 LINE",
"368 1130 LINE SMOOTH",
"384 1130 OFFCURVE",
"384 1052 OFFCURVE",
"384 992 QCURVE SMOOTH",
"384 932 OFFCURVE",
"384 854 OFFCURVE",
"368 854 QCURVE",
"360 854 LINE"
);
}
);
width = 742;
},
{
anchors = (
{
name = bottom;
position = "{1086, 0}";
},
{
name = top;
position = "{1086, 1350}";
}
);
layerId = "C75D3228-2D13-4E9D-9829-45195F4951D0";
paths = (
{
closed = 1;
nodes = (
"1578 0 LINE SMOOTH",
"1800 0 OFFCURVE",
"2012 180 OFFCURVE",
"2012 370 QCURVE SMOOTH",
"2012 552 OFFCURVE",
"1806 684 OFFCURVE",
"1680 690 QCURVE",
"1806 696 OFFCURVE",
"1940 848 OFFCURVE",
"1940 1014 QCURVE SMOOTH",
"1940 1180 OFFCURVE",
"1718 1350 OFFCURVE",
"1492 1350 QCURVE SMOOTH",
"120 1350 LINE",
"120 0 LINE"
);
},
{
closed = 1;
nodes = (
"686 532 LINE",
"1290 532 LINE SMOOTH",
"1394 532 OFFCURVE",
"1446 494 OFFCURVE",
"1446 448 QCURVE SMOOTH",
"1446 402 OFFCURVE",
"1394 362 OFFCURVE",
"1290 362 QCURVE SMOOTH",
"686 362 LINE"
);
},
{
closed = 1;
nodes = (
"686 988 LINE",
"1230 988 LINE SMOOTH",
"1314 988 OFFCURVE",
"1366 950 OFFCURVE",
"1366 910 QCURVE SMOOTH",
"1366 870 OFFCURVE",
"1314 826 OFFCURVE",
"1230 826 QCURVE SMOOTH",
"686 826 LINE"
);
}
);
width = 2172;
},
{
anchors = (
{
name = bottom;
position = "{856, 0}";
},
{
name = top;
position = "{856, 1350}";
}
);
layerId = "71977205-6510-4B11-BB00-17BACA883C8F";
paths = (
{
closed = 1;
nodes = (
"1146 0 LINE SMOOTH",
"1304 0 OFFCURVE",
"1494 190 OFFCURVE",
"1494 376 QCURVE SMOOTH",
"1494 554 OFFCURVE",
"1282 716 OFFCURVE",
"1156 722 QCURVE",
"1264 728 OFFCURVE",
"1460 888 OFFCURVE",
"1460 1050 QCURVE SMOOTH",
"1460 1208 OFFCURVE",
"1284 1350 OFFCURVE",
"1098 1350 QCURVE SMOOTH",
"102 1350 LINE",
"102 0 LINE"
);
},
{
closed = 1;
nodes = (
"124 710 LINE",
"1018 710 LINE SMOOTH",
"1246 710 OFFCURVE",
"1470 548 OFFCURVE",
"1470 376 QCURVE SMOOTH",
"1470 198 OFFCURVE",
"1292 22 OFFCURVE",
"1138 22 QCURVE SMOOTH",
"124 22 LINE"
);
},
{
closed = 1;
nodes = (
"124 1328 LINE",
"1090 1328 LINE SMOOTH",
"1274 1328 OFFCURVE",
"1436 1198 OFFCURVE",
"1436 1050 QCURVE SMOOTH",
"1436 894 OFFCURVE",
"1232 732 OFFCURVE",
"1018 732 QCURVE SMOOTH",
"124 732 LINE"
);
}
);
width = 1712;
},
{
anchors = (
{
name = bottom;
position = "{762.489, 0}";
},
{
name = top;
position = "{1000.53, 1350}";
}
);
layerId = "5997A0D0-E78E-41EC-9011-DECBEAD8517D";
paths = (
{
closed = 1;
nodes = (
"1046 0 LINE SMOOTH",
"1204 0 OFFCURVE",
"1438 190 OFFCURVE",
"1462 376 QCURVE SMOOTH",
"1484 554 OFFCURVE",
"1310 716 OFFCURVE",
"1184 722 QCURVE",
"1294 728 OFFCURVE",
"1528 884 OFFCURVE",
"1546 1050 QCURVE SMOOTH",
"1564 1208 OFFCURVE",
"1424 1350 OFFCURVE",
"1238 1350 QCURVE SMOOTH",
"242 1350 LINE",
"2 0 LINE"
);
},
{
closed = 1;
nodes = (
"150 710 LINE",
"1044 710 LINE SMOOTH",
"1272 710 OFFCURVE",
"1458 548 OFFCURVE",
"1438 376 QCURVE SMOOTH",
"1418 210 OFFCURVE",
"1196 22 OFFCURVE",
"1042 22 QCURVE SMOOTH",
"28 22 LINE"
);
},
{
closed = 1;
nodes = (
"260 1328 LINE",
"1226 1328 LINE SMOOTH",
"1410 1328 OFFCURVE",
"1538 1198 OFFCURVE",
"1522 1050 QCURVE SMOOTH",
"1506 898 OFFCURVE",
"1262 732 OFFCURVE",
"1048 732 QCURVE SMOOTH",
"154 732 LINE"
);
}
);
width = 1714;
},
{
anchors = (
{
name = bottom;
position = "{275.489, 0}";
},
{
name = top;
position = "{513.53, 1350}";
}
);
layerId = "55C4185A-9C39-4468-B19C-DE0A3E571700";
paths = (
{
closed = 1;
nodes = (
"424 0 LINE SMOOTH",
"628 0 OFFCURVE",
"678 266 OFFCURVE",
"700 408 QCURVE SMOOTH",
"716 508 OFFCURVE",
"760 738 OFFCURVE",
"618 746 QCURVE",
"760 748 OFFCURVE",
"800 956 OFFCURVE",
"810 1024 QCURVE SMOOTH",
"820 1086 OFFCURVE",
"868 1350 OFFCURVE",
"688 1350 QCURVE SMOOTH",
"150 1350 LINE",
"-90 0 LINE"
);
},
{
closed = 1;
nodes = (
"370 632 LINE",
"376 632 LINE SMOOTH",
"394 632 OFFCURVE",
"376 524 OFFCURVE",
"358 424 QCURVE SMOOTH",
"340 324 OFFCURVE",
"322 224 OFFCURVE",
"308 224 QCURVE SMOOTH",
"298 224 LINE"
);
},
{
closed = 1;
nodes = (
"458 1130 LINE",
"466 1130 LINE SMOOTH",
"482 1130 OFFCURVE",
"468 1052 OFFCURVE",
"458 992 QCURVE SMOOTH",
"448 932 OFFCURVE",
"434 854 OFFCURVE",
"418 854 QCURVE",
"410 854 LINE"
);
}
);
width = 740;
},
{
anchors = (
{
name = bottom;
position = "{-9.511, 0}";
},
{
name = top;
position = "{228.53, 1350}";
}
);
layerId = "4F53612F-C4F8-4368-83AD-8913BEEF8F1D";
paths = (
{
closed = 1;
nodes = (
"-22 0 LINE SMOOTH",
"36 0 OFFCURVE",
"78 236 OFFCURVE",
"106 396 QCURVE SMOOTH",
"130 530 OFFCURVE",
"170 756 OFFCURVE",
"132 762 QCURVE",
"172 768 OFFCURVE",
"206 952 OFFCURVE",
"226 1068 QCURVE SMOOTH",
"244 1168 OFFCURVE",
"276 1350 OFFCURVE",
"216 1350 QCURVE SMOOTH",
"174 1350 LINE",
"-66 0 LINE"
);
},
{
closed = 1;
nodes = (
"90 750 LINE",
"108 750 LINE SMOOTH",
"148 750 OFFCURVE",
"108 530 OFFCURVE",
"84 396 QCURVE SMOOTH",
"56 236 OFFCURVE",
"18 22 OFFCURVE",
"-18 22 QCURVE SMOOTH",
"-40 22 LINE"
);
},
{
closed = 1;
nodes = (
"192 1328 LINE",
"212 1328 LINE SMOOTH",
"250 1328 OFFCURVE",
"222 1170 OFFCURVE",
"204 1070 QCURVE SMOOTH",
"184 954 OFFCURVE",
"152 772 OFFCURVE",
"112 772 QCURVE SMOOTH",
"94 772 LINE"
);
}
);
width = 170;
},
{
anchors = (
{
name = bottom;
position = "{991.489, 0}";
},
{
name = top;
position = "{1229.53, 1350}";
}
);
layerId = "E5A4176B-9C10-4B01-BBC9-D7999ECBFAF8";
paths = (
{
closed = 1;
nodes = (
"1486 0 LINE SMOOTH",
"1708 0 OFFCURVE",
"1972 182 OFFCURVE",
"1986 370 QCURVE SMOOTH",
"2000 552 OFFCURVE",
"1836 684 OFFCURVE",
"1710 690 QCURVE",
"1838 696 OFFCURVE",
"2016 846 OFFCURVE",
"2028 1014 QCURVE SMOOTH",
"2040 1180 OFFCURVE",
"1862 1350 OFFCURVE",
"1640 1350 QCURVE SMOOTH",
"268 1350 LINE",
"28 0 LINE"
);
},
{
closed = 1;
nodes = (
"688 532 LINE",
"1292 532 LINE SMOOTH",
"1392 532 OFFCURVE",
"1438 494 OFFCURVE",
"1434 448 QCURVE SMOOTH",
"1430 402 OFFCURVE",
"1366 362 OFFCURVE",
"1262 362 QCURVE SMOOTH",
"658 362 LINE"
);
},
{
closed = 1;
nodes = (
"770 988 LINE",
"1314 988 LINE SMOOTH",
"1394 988 OFFCURVE",
"1440 950 OFFCURVE",
"1436 910 QCURVE SMOOTH",
"1432 870 OFFCURVE",
"1368 826 OFFCURVE",
"1284 826 QCURVE SMOOTH",
"740 826 LINE"
);
}
);
width = 2172;
}
);
leftKerningGroup = H;
note = B;
rightKerningGroup = B;
unicode = 0042;
},
{
glyphname = C;
layers = (
{
anchors = (
{
name = bottom;
position = "{88, 0}";
},
{
name = top;
position = "{88, 1350}";
}
);
layerId = "A1A0948C-E637-4A65-8CCC-05505AD98C44";
paths = (
{
closed = 1;
nodes = (
"146 -8 OFFCURVE",
"146 206 OFFCURVE",
"146 556 QCURVE",
"124 556 LINE",
"124 214 OFFCURVE",
"124 14 OFFCURVE",
"88 14 QCURVE SMOOTH",
"52 14 OFFCURVE",
"52 212 OFFCURVE",
"52 678 QCURVE SMOOTH",
"52 1144 OFFCURVE",
"50 1334 OFFCURVE",
"88 1334 QCURVE SMOOTH",
"124 1334 OFFCURVE",
"124 1144 OFFCURVE",
"124 794 QCURVE",
"146 794 LINE",
"146 1150 OFFCURVE",
"146 1356 OFFCURVE",
"88 1356 QCURVE SMOOTH",
"28 1356 OFFCURVE",
"30 1150 OFFCURVE",
"30 678 QCURVE SMOOTH",
"30 206 OFFCURVE",
"30 -8 OFFCURVE",
"88 -8 QCURVE SMOOTH"
);
}
);
width = 184;
},
{
anchors = (
{
name = bottom;
position = "{370, 0}";
},
{
name = top;
position = "{370, 1350}";
}
);
layerId = "BA0CA162-2A9B-49EE-921D-3B4346C7D39F";
paths = (
{
closed = 1;
nodes = (
"728 -8 OFFCURVE",
"728 380 OFFCURVE",
"728 572 QCURVE",
"382 572 LINE",
"382 260 OFFCURVE",
"382 216 OFFCURVE",
"370 216 QCURVE SMOOTH",
"358 216 OFFCURVE",
"358 260 OFFCURVE",
"358 680 QCURVE SMOOTH",
"358 1094 OFFCURVE",
"358 1138 OFFCURVE",
"370 1138 QCURVE SMOOTH",
"382 1138 OFFCURVE",
"382 1094 OFFCURVE",
"382 774 QCURVE",
"728 774 LINE",
"728 980 OFFCURVE",
"728 1362 OFFCURVE",
"366 1362 QCURVE SMOOTH",
"12 1362 OFFCURVE",
"12 980 OFFCURVE",
"12 680 QCURVE SMOOTH",
"12 380 OFFCURVE",
"12 -8 OFFCURVE",
"368 -8 QCURVE SMOOTH"
);
}
);
width = 740;
},
{
anchors = (
{
name = bottom;
position = "{1058, 0}";
},
{
name = top;
position = "{1058, 1350}";
}
);
layerId = "C75D3228-2D13-4E9D-9829-45195F4951D0";
paths = (
{
closed = 1;
nodes = (
"1540 -8 OFFCURVE",
"2046 312 OFFCURVE",
"2046 546 QCURVE",
"1458 546 LINE",
"1458 486 OFFCURVE",
"1254 354 OFFCURVE",
"1072 354 QCURVE SMOOTH",
"884 354 OFFCURVE",
"628 518 OFFCURVE",
"628 678 QCURVE SMOOTH",
"628 838 OFFCURVE",
"884 1000 OFFCURVE",
"1072 1000 QCURVE SMOOTH",
"1256 1000 OFFCURVE",
"1458 874 OFFCURVE",
"1458 814 QCURVE",
"2046 814 LINE",
"2046 1048 OFFCURVE",
"1540 1362 OFFCURVE",
"1072 1362 QCURVE SMOOTH",
"604 1362 OFFCURVE",
"60 1012 OFFCURVE",
"60 678 QCURVE SMOOTH",
"60 344 OFFCURVE",
"604 -8 OFFCURVE",
"1072 -8 QCURVE SMOOTH"
);
}
);
width = 2167;
},
{
anchors = (
{
name = bottom;
position = "{829, 0}";
},
{
name = top;
position = "{829, 1350}";
}
);
layerId = "71977205-6510-4B11-BB00-17BACA883C8F";
paths = (
{
closed = 1;
nodes = (
"1180 -10 OFFCURVE",
"1546 308 OFFCURVE",
"1546 492 QCURVE",
"1522 492 LINE",
"1522 320 OFFCURVE",
"1174 12 OFFCURVE",
"844 12 QCURVE SMOOTH",
"508 12 OFFCURVE",
"136 360 OFFCURVE",
"136 676 QCURVE SMOOTH",
"136 992 OFFCURVE",
"508 1340 OFFCURVE",
"844 1340 QCURVE SMOOTH",
"1174 1340 OFFCURVE",
"1522 1038 OFFCURVE",
"1522 866 QCURVE",
"1546 866 LINE",
"1546 1050 OFFCURVE",
"1180 1362 OFFCURVE",
"844 1362 QCURVE SMOOTH",
"498 1362 OFFCURVE",
"112 1004 OFFCURVE",
"112 676 QCURVE SMOOTH",
"112 346 OFFCURVE",
"498 -10 OFFCURVE",
"844 -10 QCURVE SMOOTH"
);
}
);
width = 1776;
},
{
anchors = (
{
name = bottom;
position = "{733, 0}";
},
{
name = top;
position = "{972, 1350}";
}
);
layerId = "5997A0D0-E78E-41EC-9011-DECBEAD8517D";
paths = (
{
closed = 1;
nodes = (
"1070 -10 OFFCURVE",
"1492 308 OFFCURVE",
"1524 492 QCURVE",
"1500 492 LINE",
"1470 324 OFFCURVE",
"1062 12 OFFCURVE",
"732 12 QCURVE SMOOTH",
"396 12 OFFCURVE",
"100 360 OFFCURVE",
"146 676 QCURVE SMOOTH",
"192 992 OFFCURVE",
"642 1340 OFFCURVE",
"978 1340 QCURVE SMOOTH",
"1308 1340 OFFCURVE",
"1596 1038 OFFCURVE",
"1566 866 QCURVE",
"1590 866 LINE",
"1622 1050 OFFCURVE",
"1312 1362 OFFCURVE",
"976 1362 QCURVE SMOOTH",
"630 1362 OFFCURVE",
"170 1004 OFFCURVE",
"122 676 QCURVE SMOOTH",
"74 346 OFFCURVE",
"388 -10 OFFCURVE",
"734 -10 QCURVE SMOOTH"
);
}
);
width = 1776;
},
{
anchors = (
{
name = bottom;
position = "{270, 0}";
},
{
name = top;
position = "{509, 1350}";
}
);
layerId = "55C4185A-9C39-4468-B19C-DE0A3E571700";
paths = (
{
closed = 1;
nodes = (
"626 -8 OFFCURVE",
"694 380 OFFCURVE",
"728 572 QCURVE",
"382 572 LINE",
"326 260 OFFCURVE",
"318 216 OFFCURVE",
"306 216 QCURVE SMOOTH",
"294 216 OFFCURVE",
"302 260 OFFCURVE",
"376 680 QCURVE SMOOTH",
"448 1094 OFFCURVE",
"456 1138 OFFCURVE",
"470 1138 QCURVE SMOOTH",
"482 1138 OFFCURVE",
"474 1094 OFFCURVE",
"418 774 QCURVE",
"764 774 LINE",
"800 980 OFFCURVE",
"868 1362 OFFCURVE",
"506 1362 QCURVE SMOOTH",
"152 1362 OFFCURVE",
"84 980 OFFCURVE",
"30 680 QCURVE SMOOTH",
"-24 380 OFFCURVE",
"-90 -8 OFFCURVE",
"266 -8 QCURVE SMOOTH"
);
}
);
width = 740;
},
{
anchors = (
{
name = bottom;
position = "{-6, 0}";
},
{
name = top;
position = "{233, 1350}";
}
);
layerId = "4F53612F-C4F8-4368-83AD-8913BEEF8F1D";
paths = (
{
closed = 1;
nodes = (
"50 -8 OFFCURVE",
"88 206 OFFCURVE",
"150 556 QCURVE",
"128 556 LINE",
"66 214 OFFCURVE",
"32 14 OFFCURVE",
"-4 14 QCURVE SMOOTH",
"-40 14 OFFCURVE",
"-6 212 OFFCURVE",
"76 678 QCURVE SMOOTH",
"158 1144 OFFCURVE",
"190 1334 OFFCURVE",
"228 1334 QCURVE SMOOTH",
"264 1334 OFFCURVE",
"230 1144 OFFCURVE",
"168 794 QCURVE",
"190 794 LINE",
"254 1150 OFFCURVE",
"290 1356 OFFCURVE",
"232 1356 QCURVE SMOOTH",
"172 1356 OFFCURVE",
"138 1150 OFFCURVE",
"54 678 QCURVE SMOOTH",
"-30 206 OFFCURVE",
"-66 -8 OFFCURVE",
"-8 -8 QCURVE SMOOTH"
);
}
);
width = 188;
},
{
anchors = (
{
name = bottom;
position = "{964, 0}";
},
{
name = top;
position = "{1203, 1350}";
}
);
layerId = "E5A4176B-9C10-4B01-BBC9-D7999ECBFAF8";
paths = (
{
closed = 1;
nodes = (
"1448 -8 OFFCURVE",
"1998 312 OFFCURVE",
"2038 546 QCURVE",
"1450 546 LINE",
"1440 486 OFFCURVE",
"1214 354 OFFCURVE",
"1032 354 QCURVE SMOOTH",
"844 354 OFFCURVE",
"624 516 OFFCURVE",
"644 678 QCURVE SMOOTH",
"664 838 OFFCURVE",
"956 1000 OFFCURVE",
"1144 1000 QCURVE SMOOTH",
"1348 1000 OFFCURVE",
"1508 874 OFFCURVE",
"1498 814 QCURVE",
"2086 814 LINE",
"2128 1048 OFFCURVE",
"1662 1362 OFFCURVE",
"1194 1362 QCURVE SMOOTH",
"726 1362 OFFCURVE",
"116 1012 OFFCURVE",
"76 678 QCURVE SMOOTH",
"36 342 OFFCURVE",
"512 -8 OFFCURVE",
"980 -8 QCURVE SMOOTH"
);
}
);
width = 2160;
}
);
leftKerningGroup = O;
note = C;
rightKerningGroup = C;
unicode = 0043;
},
{
glyphname = D;
layers = (
{
anchors = (
{
name = bottom;
position = "{75, 0}";
},
{
name = center;
position = "{85, 675}";
},
{
name = top;
position = "{75, 1350}";
}
);
layerId = "A1A0948C-E637-4A65-8CCC-05505AD98C44";
paths = (
{
closed = 1;
nodes = (
"70 0 LINE SMOOTH",
"132 0 OFFCURVE",
"132 242 OFFCURVE",
"132 674 QCURVE SMOOTH",
"132 1106 OFFCURVE",
"132 1350 OFFCURVE",
"70 1350 QCURVE SMOOTH",
"28 1350 LINE",
"28 0 LINE"
);
},
{
closed = 1;
nodes = (
"50 1328 LINE",
"68 1328 LINE SMOOTH",
"110 1328 OFFCURVE",
"110 1100 OFFCURVE",
"110 674 QCURVE SMOOTH",
"110 248 OFFCURVE",
"110 22 OFFCURVE",
"68 22 QCURVE SMOOTH",
"50 22 LINE"
);
}
);
width = 170;
},
{
anchors = (
{
name = bottom;
position = "{370, 0}";
},
{
name = center;
position = "{370, 675}";
},
{
name = top;
position = "{370, 1350}";
}
);
layerId = "BA0CA162-2A9B-49EE-921D-3B4346C7D39F";
paths = (
{
closed = 1;
nodes = (
"486 0 LINE SMOOTH",
"728 0 OFFCURVE",
"728 296 OFFCURVE",
"728 676 QCURVE SMOOTH",
"728 1056 OFFCURVE",
"728 1350 OFFCURVE",
"486 1350 QCURVE SMOOTH",
"12 1350 LINE",
"12 0 LINE"
);
},
{
closed = 1;
nodes = (
"358 1126 LINE",
"366 1126 LINE SMOOTH",
"382 1126 OFFCURVE",
"382 1074 OFFCURVE",
"382 676 QCURVE SMOOTH",
"382 276 OFFCURVE",
"382 224 OFFCURVE",
"366 224 QCURVE SMOOTH",
"358 224 LINE"
);
}
);
width = 740;
},
{
anchors = (
{
name = bottom;
position = "{1112, 0}";
},
{
name = center;
position = "{1112, 675}";
},
{
name = top;
position = "{1112, 1350}";
}
);
layerId = "C75D3228-2D13-4E9D-9829-45195F4951D0";
paths = (
{
closed = 1;
nodes = (
"1308 0 LINE SMOOTH",
"1672 0 OFFCURVE",
"2092 322 OFFCURVE",
"2092 676 QCURVE SMOOTH",
"2092 1030 OFFCURVE",
"1672 1350 OFFCURVE",
"1308 1350 QCURVE SMOOTH",
"150 1350 LINE",
"150 0 LINE"
);
},
{
closed = 1;
nodes = (
"716 988 LINE",
"1178 988 LINE SMOOTH",
"1370 988 OFFCURVE",
"1526 846 OFFCURVE",
"1526 676 QCURVE SMOOTH",
"1526 504 OFFCURVE",
"1370 362 OFFCURVE",
"1178 362 QCURVE SMOOTH",
"716 362 LINE"
);
}
);
width = 2224;
},
{
anchors = (
{
name = bottom;
position = "{824, 0}";
},
{
name = center;
position = "{854, 675}";
},
{
name = top;
position = "{824, 1350}";
}
);
layerId = "71977205-6510-4B11-BB00-17BACA883C8F";
paths = (
{
closed = 1;
nodes = (
"834 0 LINE SMOOTH",
"1182 0 OFFCURVE",
"1512 308 OFFCURVE",
"1512 676 QCURVE SMOOTH",
"1512 1044 OFFCURVE",
"1182 1350 OFFCURVE",
"834 1350 QCURVE SMOOTH",
"152 1350 LINE",
"152 0 LINE"
);
},
{
closed = 1;
nodes = (
"174 1328 LINE",
"828 1328 LINE SMOOTH",
"1170 1328 OFFCURVE",
"1488 1034 OFFCURVE",
"1488 676 QCURVE SMOOTH",
"1488 318 OFFCURVE",
"1170 22 OFFCURVE",
"828 22 QCURVE SMOOTH",
"174 22 LINE"
);
}
);
width = 1708;
},
{
anchors = (
{
name = bottom;
position = "{659, 0}";
},
{
name = center;
position = "{779, 675}";
},
{
name = top;
position = "{898, 1350}";
}
);
layerId = "5997A0D0-E78E-41EC-9011-DECBEAD8517D";
paths = (
{
closed = 1;
nodes = (
"714 0 LINE SMOOTH",
"1062 0 OFFCURVE",
"1512 434 OFFCURVE",
"1512 884 QCURVE SMOOTH",
"1512 1090 OFFCURVE",
"1286 1350 OFFCURVE",
"954 1350 QCURVE SMOOTH",
"272 1350 LINE",
"32 0 LINE"
);
},
{
closed = 1;
nodes = (
"290 1328 LINE",
"948 1328 LINE SMOOTH",
"1274 1328 OFFCURVE",
"1488 1080 OFFCURVE",
"1488 884 QCURVE SMOOTH",
"1488 444 OFFCURVE",
"1052 22 OFFCURVE",
"710 22 QCURVE SMOOTH",
"58 22 LINE"
);
}
);
width = 1708;
},
{
anchors = (
{
name = bottom;
position = "{274.489, 0}";
},
{
name = center;
position = "{393.509, 675}";
},
{
name = top;
position = "{512.53, 1350}";
}
);
layerId = "55C4185A-9C39-4468-B19C-DE0A3E571700";
paths = (
{
closed = 1;
nodes = (
"384 0 LINE SMOOTH",
"626 0 OFFCURVE",
"680 296 OFFCURVE",
"746 676 QCURVE SMOOTH",
"812 1056 OFFCURVE",
"866 1350 OFFCURVE",
"624 1350 QCURVE SMOOTH",
"150 1350 LINE",
"-90 0 LINE"
);
},
{
closed = 1;
nodes = (
"456 1126 LINE",
"464 1126 LINE SMOOTH",
"480 1126 OFFCURVE",
"470 1074 OFFCURVE",
"400 676 QCURVE SMOOTH",
"330 276 OFFCURVE",
"320 224 OFFCURVE",
"304 224 QCURVE SMOOTH",
"296 224 LINE"
);
}
);
width = 738;
},
{
anchors = (
{
name = bottom;
position = "{-7.511, 0}";
},
{
name = center;
position = "{111.509, 675}";
},
{
name = top;
position = "{230.53, 1350}";
}
);
layerId = "4F53612F-C4F8-4368-83AD-8913BEEF8F1D";
paths = (
{
closed = 1;
nodes = (
"-24 0 LINE SMOOTH",
"40 0 OFFCURVE",
"84 242 OFFCURVE",
"160 674 QCURVE SMOOTH",
"236 1106 OFFCURVE",
"280 1350 OFFCURVE",
"218 1350 QCURVE SMOOTH",
"176 1350 LINE",
"-66 0 LINE"
);
},
{
closed = 1;
nodes = (
"194 1328 LINE",
"212 1328 LINE SMOOTH",
"254 1328 OFFCURVE",
"212 1100 OFFCURVE",
"138 674 QCURVE SMOOTH",
"64 248 OFFCURVE",
"22 22 OFFCURVE",
"-22 22 QCURVE SMOOTH",
"-40 22 LINE"
);
}
);
width = 174;
},
{
anchors = (
{
name = bottom;
position = "{947, 0}";
},
{
name = center;
position = "{1136.509, 675}";
},
{
name = top;
position = "{1186, 1350}";
}
);
layerId = "E5A4176B-9C10-4B01-BBC9-D7999ECBFAF8";
paths = (
{
closed = 1;
nodes = (
"1188 0 LINE SMOOTH",
"1552 0 OFFCURVE",
"2092 408 OFFCURVE",
"2092 768 QCURVE SMOOTH",
"2092 1062 OFFCURVE",
"1752 1350 OFFCURVE",
"1408 1350 QCURVE SMOOTH",
"270 1350 LINE",
"30 0 LINE"
);
},
{
closed = 1;
nodes = (
"772 988 LINE",
"1234 988 LINE SMOOTH",
"1426 988 OFFCURVE",
"1526 864 OFFCURVE",
"1526 768 QCURVE SMOOTH",
"1526 598 OFFCURVE",
"1314 362 OFFCURVE",
"1122 362 QCURVE SMOOTH",
"660 362 LINE"
);
}
);
width = 2224;
}
);
leftKerningGroup = H;
note = D;
rightKerningGroup = O;
unicode = 0044;
},
{
glyphname = Eth;
layers = (
{
components = (
{
name = D;
transform = "{1, 0, 0, 1, 36, 0}";
}
);
layerId = "A1A0948C-E637-4A65-8CCC-05505AD98C44";
paths = (
{
closed = 1;
nodes = (
"126 666 LINE",
"126 688 LINE",
"28 688 LINE",
"28 666 LINE"
);
}
);
width = 206;
},
{
components = (
{
alignment = -1;
name = D;
transform = "{1, 0, 0, 1, 52, 0}";
}
);
layerId = "BA0CA162-2A9B-49EE-921D-3B4346C7D39F";
paths = (
{
closed = 1;
nodes = (
"422 564 LINE",
"422 788 LINE",
"12 788 LINE",
"12 564 LINE"
);
}
);
width = 792;
},
{
components = (
{
alignment = -1;
name = D;
transform = "{1, 0, 0, 1, 44, 0}";
}
);
layerId = "C75D3228-2D13-4E9D-9829-45195F4951D0";
paths = (
{
closed = 1;
nodes = (
"1088 494 LINE",
"1088 858 LINE",
"-52 858 LINE",
"-52 494 LINE"
);
}
);
width = 2268;
},
{
components = (
{
name = D;
}
);
layerId = "71977205-6510-4B11-BB00-17BACA883C8F";
paths = (
{
closed = 1;
nodes = (
"540 666 LINE",
"540 688 LINE",
"-64 688 LINE",
"-64 666 LINE"
);
}
);
width = 1708;
},
{
components = (
{
name = D;
}
);
layerId = "5997A0D0-E78E-41EC-9011-DECBEAD8517D";
paths = (
{
closed = 1;
nodes = (
"538 666 LINE",
"540 688 LINE",
"-62 688 LINE",
"-64 666 LINE"
);
}
);
width = 1708;
},
{
components = (
{
alignment = -1;
name = D;
transform = "{1, 0, 0, 1, 54, 0}";
}
);
layerId = "55C4185A-9C39-4468-B19C-DE0A3E571700";
paths = (
{
closed = 1;
nodes = (
"425 564 LINE",
"465 788 LINE",
"50 788 LINE",
"8 564 LINE"
);
}
);
width = 792;
},
{
components = (
{
name = D;
transform = "{1, 0, 0, 1, 50, 0}";
}
);
layerId = "4F53612F-C4F8-4368-83AD-8913BEEF8F1D";
paths = (
{
closed = 1;
nodes = (
"150 666 LINE",
"152 688 LINE",
"54 688 LINE",
"50 666 LINE"
);
}
);
width = 224;
},
{
components = (
{
alignment = -1;
name = D;
transform = "{1, 0, 0, 1, 44, 0}";
}
);
layerId = "E5A4176B-9C10-4B01-BBC9-D7999ECBFAF8";
paths = (
{
closed = 1;
nodes = (
"1052 494 LINE",
"1108 858 LINE",
"-64 858 LINE",
"-120 494 LINE"
);
}
);
width = 2268;
}
);
leftKerningGroup = H;
rightKerningGroup = O;
rightMetricsKey = D;
unicode = 00D0;
},
{
glyphname = E;
layers = (
{
anchors = (
{
name = bottom;
position = "{69, 0}";
},
{
name = ogonek;
position = "{85, 0}";
},
{
name = top;
position = "{69, 1350}";
},
{
name = topleft;
position = "{20, 1350}";
}
);
layerId = "A1A0948C-E637-4A65-8CCC-05505AD98C44";
paths = (
{
closed = 1;
nodes = (
"100 0 LINE",
"100 22 LINE",
"50 22 LINE",
"50 688 LINE",
"100 688 LINE",
"100 710 LINE",
"50 710 LINE",
"50 1328 LINE",
"100 1328 LINE",
"100 1350 LINE",
"28 1350 LINE",
"28 0 LINE"
);
}
);
width = 138;
},
{
anchors = (
{
name = bottom;
position = "{251, 0}";
},
{
name = ogonek;
position = "{364, 0}";
},
{
name = top;
position = "{251, 1350}";
},
{
name = topleft;
position = "{20, 1350}";
}
);
layerId = "BA0CA162-2A9B-49EE-921D-3B4346C7D39F";
paths = (
{
closed = 1;
nodes = (
"490 0 LINE",
"490 224 LINE",
"360 224 LINE",
"360 570 LINE",
"490 570 LINE",
"490 790 LINE",
"360 790 LINE",
"360 1126 LINE",
"490 1126 LINE",
"490 1350 LINE",
"12 1350 LINE",
"12 0 LINE"
);
}
);
width = 502;
},
{
anchors = (
{
name = bottom;
position = "{932, 0}";
},
{
name = ogonek;
position = "{1416, 0}";
},
{
name = top;
position = "{932, 1350}";
},
{
name = topleft;
position = "{20, 1350}";
}
);
layerId = "C75D3228-2D13-4E9D-9829-45195F4951D0";
paths = (
{
closed = 1;
nodes = (
"1716 0 LINE",
"1716 362 LINE",
"686 362 LINE",
"686 518 LINE",
"1616 518 LINE",
"1616 834 LINE",
"686 834 LINE",
"686 988 LINE",
"1716 988 LINE",
"1716 1350 LINE",
"120 1350 LINE",
"120 0 LINE"
);
}
);
width = 1864;
},
{
anchors = (
{
name = bottom;
position = "{810, 0}";
},
{
name = ogonek;
position = "{838, 0}";
},
{
name = top;
position = "{810, 1350}";
},
{
name = topleft;
position = "{20, 1350}";
}
);
layerId = "71977205-6510-4B11-BB00-17BACA883C8F";
paths = (
{
closed = 1;
nodes = (
"1420 0 LINE",
"1420 22 LINE",
"162 22 LINE",
"162 688 LINE",
"1360 688 LINE",
"1360 710 LINE",
"162 710 LINE",
"162 1328 LINE",
"1420 1328 LINE",
"1420 1350 LINE",
"140 1350 LINE",
"140 0 LINE"
);
}
);
width = 1620;
},
{
anchors = (
{
name = bottom;
position = "{715.489, 0}";
},
{
name = ogonek;
position = "{733, 0}";
},
{
name = top;
position = "{953.53, 1350}";
},
{
name = topleft;
position = "{163.53, 1350}";
}
);
layerId = "5997A0D0-E78E-41EC-9011-DECBEAD8517D";
paths = (
{
closed = 1;
nodes = (
"1318 0 LINE",
"1322 22 LINE",
"64 22 LINE",
"182 688 LINE",
"1380 688 LINE",
"1384 710 LINE",
"186 710 LINE",
"296 1328 LINE",
"1554 1328 LINE",
"1558 1350 LINE",
"278 1350 LINE",
"38 0 LINE"
);
}
);
width = 1620;
},
{
anchors = (
{
name = bottom;
position = "{155.489, 0}";
},
{
name = ogonek;
position = "{275, 0}";
},
{
name = top;
position = "{393.53, 1350}";
},
{
name = topleft;
position = "{163.53, 1350}";
}
);
layerId = "55C4185A-9C39-4468-B19C-DE0A3E571700";
paths = (
{
closed = 1;
nodes = (
"388 0 LINE",
"428 224 LINE",
"298 224 LINE",
"360 570 LINE",
"490 570 LINE",
"528 790 LINE",
"398 790 LINE",
"458 1126 LINE",
"588 1126 LINE",
"628 1350 LINE",
"150 1350 LINE",
"-90 0 LINE"
);
}
);
width = 500;
},
{
anchors = (
{
name = bottom;
position = "{-25.511, 0}";
},
{
name = ogonek;
position = "{-10, 0}";
},
{
name = top;
position = "{212.53, 1350}";
},
{
name = topleft;
position = "{163.53, 1350}";
}
);
layerId = "4F53612F-C4F8-4368-83AD-8913BEEF8F1D";
paths = (
{
closed = 1;
nodes = (
"6 0 LINE",
"10 22 LINE",
"-40 22 LINE",
"78 688 LINE",
"128 688 LINE",
"132 710 LINE",
"82 710 LINE",
"192 1328 LINE",
"242 1328 LINE",
"246 1350 LINE",
"174 1350 LINE",
"-66 0 LINE"
);
}
);
width = 138;
},
{
anchors = (
{
name = bottom;
position = "{836.489, 0}";
},
{
name = ogonek;
position = "{1286, 0}";
},
{
name = top;
position = "{1074.53, 1350}";
},
{
name = topleft;
position = "{163.53, 1350}";
}
);
layerId = "E5A4176B-9C10-4B01-BBC9-D7999ECBFAF8";
paths = (
{
closed = 1;
nodes = (
"1602 0 LINE",
"1666 362 LINE",
"636 362 LINE",
"664 518 LINE",
"1594 518 LINE",
"1650 834 LINE",
"720 834 LINE",
"746 988 LINE",
"1778 988 LINE",
"1842 1350 LINE",
"244 1350 LINE",
"6 0 LINE"
);
}
);
width = 1862;
}
);
leftKerningGroup = H;
note = E;
rightKerningGroup = E;
unicode = 0045;
},
{
glyphname = F;
layers = (
{
anchors = (
{
name = bottom;
position = "{73, 0}";
},
{
name = top;
position = "{73, 1350}";
}
);
layerId = "A1A0948C-E637-4A65-8CCC-05505AD98C44";
paths = (
{
closed = 1;
nodes = (
"50 0 LINE",
"50 614 LINE",
"108 614 LINE",
"108 636 LINE",
"50 636 LINE",
"50 1328 LINE",
"108 1328 LINE",
"108 1350 LINE",
"28 1350 LINE",
"28 0 LINE"
);
}
);
width = 146;
},
{
anchors = (
{
name = bottom;
position = "{245, 0}";
},
{
name = top;
position = "{245, 1350}";
}
);
layerId = "BA0CA162-2A9B-49EE-921D-3B4346C7D39F";
paths = (
{
closed = 1;
nodes = (
"360 0 LINE",
"360 510 LINE",
"478 510 LINE",
"478 730 LINE",
"360 730 LINE",
"360 1126 LINE",
"476 1126 LINE",
"476 1350 LINE",
"12 1350 LINE",
"12 0 LINE"
);
}
);
width = 490;
},
{
anchors = (
{
name = bottom;
position = "{867, 0}";
},
{
name = top;
position = "{867, 1350}";
}
);
layerId = "C75D3228-2D13-4E9D-9829-45195F4951D0";
paths = (
{
closed = 1;
nodes = (
"662 0 LINE",
"662 422 LINE",
"1536 422 LINE",
"1536 738 LINE",
"662 738 LINE",
"662 988 LINE",
"1632 988 LINE",
"1632 1350 LINE",
"96 1350 LINE",
"96 0 LINE"
);
}
);
width = 1734;
},
{
anchors = (
{
name = bottom;
position = "{782, 0}";
},
{
name = top;
position = "{782, 1350}";
}
);
layerId = "71977205-6510-4B11-BB00-17BACA883C8F";
paths = (
{
closed = 1;
nodes = (
"190 0 LINE",
"190 632 LINE",
"1294 632 LINE",
"1294 654 LINE",
"190 654 LINE",
"190 1328 LINE",
"1392 1328 LINE",
"1392 1350 LINE",
"168 1350 LINE",
"168 0 LINE"
);
}
);
width = 1564;
},
{
anchors = (
{
name = bottom;
position = "{687.489, 0}";
},
{
name = top;
position = "{925.53, 1350}";
}
);
layerId = "5997A0D0-E78E-41EC-9011-DECBEAD8517D";
paths = (
{
closed = 1;
nodes = (
"50 0 LINE",
"162 632 LINE",
"1266 632 LINE",
"1270 654 LINE",
"166 654 LINE",
"286 1328 LINE",
"1488 1328 LINE",
"1492 1350 LINE",
"268 1350 LINE",
"28 0 LINE"
);
}
);
width = 1564;
},
{
anchors = (
{
name = bottom;
position = "{150.489, 0}";
},
{
name = top;
position = "{388.53, 1350}";
}
);
layerId = "55C4185A-9C39-4468-B19C-DE0A3E571700";
paths = (
{
closed = 1;
nodes = (
"260 0 LINE",
"350 510 LINE",
"468 510 LINE",
"508 730 LINE",
"390 730 LINE",
"460 1126 LINE",
"576 1126 LINE",
"616 1350 LINE",
"152 1350 LINE",
"-90 0 LINE"
);
}
);
width = 490;
},
{
anchors = (
{
name = bottom;
position = "{-21.511, 0}";
},
{
name = top;
position = "{216.53, 1350}";
}
);
layerId = "4F53612F-C4F8-4368-83AD-8913BEEF8F1D";
paths = (
{
closed = 1;
nodes = (
"-44 0 LINE",
"64 614 LINE",
"122 614 LINE",
"126 636 LINE",
"68 636 LINE",
"190 1328 LINE",
"248 1328 LINE",
"252 1350 LINE",
"172 1350 LINE",
"-66 0 LINE"
);
}
);
width = 146;
},
{
anchors = (
{
name = bottom;
position = "{772.489, 0}";
},
{
name = top;
position = "{1010.53, 1350}";
}
);
layerId = "E5A4176B-9C10-4B01-BBC9-D7999ECBFAF8";
paths = (
{
closed = 1;
nodes = (
"524 0 LINE",
"598 422 LINE",
"1472 422 LINE",
"1528 738 LINE",
"654 738 LINE",
"698 988 LINE",
"1668 988 LINE",
"1732 1350 LINE",
"196 1350 LINE",
"-42 0 LINE"
);
}
);
width = 1734;
}
);
leftKerningGroup = H;
note = F;
rightKerningGroup = F;
unicode = 0046;
},
{
glyphname = G;
layers = (
{
anchors = (
{
name = bottom;
position = "{91, 0}";
},
{
name = top;
position = "{91, 1350}";
}
);
layerId = "A1A0948C-E637-4A65-8CCC-05505AD98C44";
paths = (
{
closed = 1;
nodes = (
"116 -8 OFFCURVE",
"138 74 OFFCURVE",
"138 168 QCURVE",
"144 582 LINE",
"88 582 LINE",
"88 558 LINE",
"122 558 LINE",
"122 170 LINE SMOOTH",
"122 100 OFFCURVE",
"106 14 OFFCURVE",
"80 14 QCURVE SMOOTH",
"50 14 OFFCURVE",
"50 218 OFFCURVE",
"50 684 QCURVE SMOOTH",
"50 1150 OFFCURVE",
"50 1334 OFFCURVE",
"86 1334 QCURVE SMOOTH",
"122 1334 OFFCURVE",
"122 1126 OFFCURVE",
"122 836 QCURVE",
"144 836 LINE",
"144 1136 OFFCURVE",
"144 1356 OFFCURVE",
"86 1356 QCURVE SMOOTH",
"28 1356 OFFCURVE",
"28 1156 OFFCURVE",
"28 684 QCURVE SMOOTH",
"28 212 OFFCURVE",
"28 -8 OFFCURVE",
"80 -8 QCURVE SMOOTH"
);
},
{
closed = 1;
nodes = (
"144 0 LINE",
"144 582 LINE",
"130 582 LINE",
"122 50 LINE",
"128 0 LINE"
);
}
);
width = 182;
},
{
anchors = (
{
name = bottom;
position = "{372, 0}";
},
{
name = top;
position = "{372, 1350}";
}
);
layerId = "BA0CA162-2A9B-49EE-921D-3B4346C7D39F";
paths = (
{
closed = 1;
nodes = (
"482 -8 OFFCURVE",
"632 166 OFFCURVE",
"632 380 QCURVE",
"732 702 LINE",
"380 702 LINE",
"380 498 LINE",
"398 498 LINE",
"388 308 LINE SMOOTH",
"384 250 OFFCURVE",
"378 216 OFFCURVE",
"370 216 QCURVE SMOOTH",
"360 216 OFFCURVE",
"360 266 OFFCURVE",
"360 650 QCURVE SMOOTH",
"360 1088 OFFCURVE",
"360 1138 OFFCURVE",
"374 1138 QCURVE SMOOTH",
"384 1138 OFFCURVE",
"384 1088 OFFCURVE",
"384 846 QCURVE",
"732 846 LINE",
"732 1022 OFFCURVE",
"734 1362 OFFCURVE",
"372 1362 QCURVE SMOOTH",
"14 1362 OFFCURVE",
"12 1010 OFFCURVE",
"12 650 QCURVE SMOOTH",
"12 370 OFFCURVE",
"12 -8 OFFCURVE",
"334 -8 QCURVE SMOOTH"
);
},
{
closed = 1;
nodes = (
"732 0 LINE",
"732 702 LINE",
"552 702 LINE",
"502 160 LINE",
"560 0 LINE"
);
}
);
width = 744;
},
{
anchors = (
{
name = bottom;
position = "{1112, 0}";
},
{
name = top;
position = "{1112, 1350}";
}
);
layerId = "C75D3228-2D13-4E9D-9829-45195F4951D0";
paths = (
{
closed = 1;
nodes = (
"1482 -8 OFFCURVE",
"1914 356 OFFCURVE",
"1912 512 QCURVE",
"2048 774 LINE",
"1116 774 LINE",
"1116 476 LINE",
"1458 476 LINE",
"1456 482 LINE",
"1452 438 OFFCURVE",
"1276 350 OFFCURVE",
"1076 350 QCURVE SMOOTH",
"868 350 OFFCURVE",
"654 520 OFFCURVE",
"654 680 QCURVE SMOOTH",
"654 840 OFFCURVE",
"868 1004 OFFCURVE",
"1076 1004 QCURVE SMOOTH",
"1284 1004 OFFCURVE",
"1480 918 OFFCURVE",
"1482 872 QCURVE",
"2048 872 LINE",
"2048 1108 OFFCURVE",
"1506 1362 OFFCURVE",
"1074 1362 QCURVE SMOOTH",
"630 1362 OFFCURVE",
"88 1048 OFFCURVE",
"88 680 QCURVE SMOOTH",
"88 312 OFFCURVE",
"618 -8 OFFCURVE",
"1062 -8 QCURVE SMOOTH"
);
},
{
closed = 1;
nodes = (
"2048 0 LINE",
"2048 774 LINE",
"1812 774 LINE",
"1680 390 LINE",
"1712 0 LINE"
);
}
);
width = 2224;
},
{
anchors = (
{
name = bottom;
position = "{893, 0}";
},
{
name = top;
position = "{893, 1350}";
}
);
layerId = "71977205-6510-4B11-BB00-17BACA883C8F";
paths = (
{
closed = 1;
nodes = (
"1186 -8 OFFCURVE",
"1554 318 OFFCURVE",
"1554 548 QCURVE",
"1556 602 LINE",
"926 602 LINE",
"926 580 LINE",
"1532 580 LINE",
"1532 560 LINE SMOOTH",
"1532 332 OFFCURVE",
"1182 14 OFFCURVE",
"860 14 QCURVE SMOOTH",
"542 14 OFFCURVE",
"158 330 OFFCURVE",
"158 674 QCURVE SMOOTH",
"158 1018 OFFCURVE",
"542 1340 OFFCURVE",
"860 1340 QCURVE SMOOTH",
"1182 1340 OFFCURVE",
"1532 1084 OFFCURVE",
"1532 838 QCURVE",
"1556 838 LINE",
"1556 1100 OFFCURVE",
"1186 1362 OFFCURVE",
"860 1362 QCURVE SMOOTH",
"536 1362 OFFCURVE",
"134 1036 OFFCURVE",
"134 674 QCURVE SMOOTH",
"134 312 OFFCURVE",
"536 -8 OFFCURVE",
"860 -8 QCURVE SMOOTH"
);
},
{
closed = 1;
nodes = (
"1556 0 LINE",
"1556 602 LINE",
"1554 602 LINE",
"1532 572 LINE",
"1534 0 LINE"
);
}
);
width = 1786;
},
{
anchors = (
{
name = bottom;
position = "{798.489, 0}";
},
{
name = top;
position = "{1036.53, 1350}";
}
);
layerId = "5997A0D0-E78E-41EC-9011-DECBEAD8517D";
paths = (
{
closed = 1;
nodes = (
"1046 -8 OFFCURVE",
"1472 318 OFFCURVE",
"1512 548 QCURVE",
"1524 602 LINE",
"894 602 LINE",
"890 580 LINE",
"1496 580 LINE",
"1492 560 LINE SMOOTH",
"1446 334 OFFCURVE",
"1040 14 OFFCURVE",
"718 14 QCURVE SMOOTH",
"400 14 OFFCURVE",
"88 330 OFFCURVE",
"138 674 QCURVE SMOOTH",
"188 1018 OFFCURVE",
"646 1340 OFFCURVE",
"964 1340 QCURVE SMOOTH",
"1286 1340 OFFCURVE",
"1584 1084 OFFCURVE",
"1540 838 QCURVE",
"1564 838 LINE",
"1610 1100 OFFCURVE",
"1288 1362 OFFCURVE",
"962 1362 QCURVE SMOOTH",
"638 1362 OFFCURVE",
"168 1036 OFFCURVE",
"114 674 QCURVE SMOOTH",
"60 312 OFFCURVE",
"396 -8 OFFCURVE",
"720 -8 QCURVE SMOOTH"
);
},
{
closed = 1;
nodes = (
"1416 0 LINE",
"1524 602 LINE",
"1522 602 LINE",
"1494 572 LINE",
"1394 0 LINE"
);
}
);
width = 1786;
},
{
anchors = (
{
name = bottom;
position = "{274.489, 0}";
},
{
name = top;
position = "{512.53, 1350}";
}
);
layerId = "55C4185A-9C39-4468-B19C-DE0A3E571700";
paths = (
{
closed = 1;
nodes = (
"378 -8 OFFCURVE",
"558 166 OFFCURVE",
"596 380 QCURVE",
"752 702 LINE",
"400 702 LINE",
"364 498 LINE",
"382 498 LINE",
"338 308 LINE SMOOTH",
"324 250 OFFCURVE",
"312 216 OFFCURVE",
"304 216 QCURVE SMOOTH",
"294 216 OFFCURVE",
"304 266 OFFCURVE",
"372 650 QCURVE SMOOTH",
"450 1088 OFFCURVE",
"458 1138 OFFCURVE",
"472 1138 QCURVE SMOOTH",
"482 1138 OFFCURVE",
"472 1088 OFFCURVE",
"430 846 QCURVE",
"778 846 LINE",
"808 1022 OFFCURVE",
"870 1362 OFFCURVE",
"508 1362 QCURVE SMOOTH",
"150 1362 OFFCURVE",
"86 1010 OFFCURVE",
"24 650 QCURVE SMOOTH",
"-24 370 OFFCURVE",
"-92 -8 OFFCURVE",
"230 -8 QCURVE SMOOTH"
);
},
{
closed = 1;
nodes = (
"628 0 LINE",
"752 702 LINE",
"572 702 LINE",
"426 160 LINE",
"456 0 LINE"
);
}
);
width = 738;
},
{
anchors = (
{
name = bottom;
position = "{-2.511, 0}";
},
{
name = top;
position = "{235.53, 1350}";
}
);
layerId = "4F53612F-C4F8-4368-83AD-8913BEEF8F1D";
paths = (
{
closed = 1;
nodes = (
"22 -8 OFFCURVE",
"58 74 OFFCURVE",
"74 168 QCURVE",
"154 582 LINE",
"98 582 LINE",
"94 558 LINE",
"128 558 LINE",
"60 170 LINE SMOOTH",
"48 100 OFFCURVE",
"16 14 OFFCURVE",
"-10 14 QCURVE SMOOTH",
"-40 14 OFFCURVE",
"-4 218 OFFCURVE",
"78 684 QCURVE SMOOTH",
"160 1150 OFFCURVE",
"192 1334 OFFCURVE",
"228 1334 QCURVE SMOOTH",
"264 1334 OFFCURVE",
"228 1126 OFFCURVE",
"176 836 QCURVE",
"198 836 LINE",
"252 1136 OFFCURVE",
"290 1356 OFFCURVE",
"232 1356 QCURVE SMOOTH",
"174 1356 OFFCURVE",
"138 1156 OFFCURVE",
"56 684 QCURVE SMOOTH",
"-26 212 OFFCURVE",
"-66 -8 OFFCURVE",
"-14 -8 QCURVE SMOOTH"
);
},
{
closed = 1;
nodes = (
"52 0 LINE",
"154 582 LINE",
"140 582 LINE",
"38 50 LINE",
"36 0 LINE"
);
}
);
width = 184;
},
{
anchors = (
{
name = bottom;
position = "{1017.489, 0}";
},
{
name = top;
position = "{1255.53, 1350}";
}
);
layerId = "E5A4176B-9C10-4B01-BBC9-D7999ECBFAF8";
paths = (
{
closed = 1;
nodes = (
"1358 -8 OFFCURVE",
"1854 356 OFFCURVE",
"1880 512 QCURVE",
"2062 774 LINE",
"1130 774 LINE",
"1076 476 LINE",
"1418 476 LINE",
"1418 482 LINE",
"1406 438 OFFCURVE",
"1214 350 OFFCURVE",
"1014 350 QCURVE SMOOTH",
"806 350 OFFCURVE",
"622 520 OFFCURVE",
"650 680 QCURVE SMOOTH",
"678 840 OFFCURVE",
"922 1004 OFFCURVE",
"1130 1004 QCURVE SMOOTH",
"1338 1004 OFFCURVE",
"1518 918 OFFCURVE",
"1512 872 QCURVE",
"2078 872 LINE",
"2120 1108 OFFCURVE",
"1618 1362 OFFCURVE",
"1186 1362 QCURVE SMOOTH",
"742 1362 OFFCURVE",
"130 1048 OFFCURVE",
"84 680 QCURVE SMOOTH",
"38 310 OFFCURVE",
"494 -8 OFFCURVE",
"938 -8 QCURVE SMOOTH"
);
},
{
closed = 1;
nodes = (
"1924 0 LINE",
"2062 774 LINE",
"1826 774 LINE",
"1626 390 LINE",
"1588 0 LINE"
);
}
);
width = 2224;
}
);
leftKerningGroup = O;
note = G;
rightKerningGroup = G;
unicode = 0047;
},
{
glyphname = H;
layers = (
{
anchors = (
{
name = bottom;
position = "{94, 0}";
},
{
name = center;
position = "{94, 675}";
},
{
name = top;
position = "{94, 1350}";
},
{
name = topleft;
position = "{20, 1350}";
}
);
layerId = "A1A0948C-E637-4A65-8CCC-05505AD98C44";
paths = (
{
closed = 1;
nodes = (
"58 0 LINE",
"58 728 LINE",
"120 728 LINE",
"120 0 LINE",
"142 0 LINE",
"142 1350 LINE",
"120 1350 LINE",
"120 750 LINE",
"58 750 LINE",
"58 1350 LINE",
"36 1350 LINE",
"36 0 LINE"
);
}
);
width = 188;
},
{
anchors = (
{
name = bottom;
position = "{371, 0}";
},
{
name = center;
position = "{371, 675}";
},
{
name = top;
position = "{371, 1350}";
},
{
name = topleft;
position = "{20, 1350}";
}
);
layerId = "BA0CA162-2A9B-49EE-921D-3B4346C7D39F";
paths = (
{
closed = 1;
nodes = (
"360 0 LINE",
"360 558 LINE",
"382 558 LINE",
"382 0 LINE",
"730 0 LINE",
"730 1350 LINE",
"382 1350 LINE",
"382 782 LINE",
"360 782 LINE",
"360 1350 LINE",
"12 1350 LINE",
"12 0 LINE"
);
}
);
width = 742;
},
{
anchors = (
{
name = bottom;
position = "{1110, 0}";
},
{
name = center;
position = "{1110, 675}";
},
{
name = top;
position = "{1110, 1350}";
},
{
name = topleft;
position = "{20, 1350}";
}
);
layerId = "C75D3228-2D13-4E9D-9829-45195F4951D0";
paths = (
{
closed = 1;
nodes = (
"706 0 LINE",
"706 468 LINE",
"1494 468 LINE",
"1494 0 LINE",
"2060 0 LINE",
"2060 1350 LINE",
"1494 1350 LINE",
"1494 830 LINE",
"706 830 LINE",
"706 1350 LINE",
"140 1350 LINE",
"140 0 LINE"
);
}
);
width = 2220;
},
{
anchors = (
{
name = bottom;
position = "{832, 0}";
},
{
name = center;
position = "{832, 675}";
},
{
name = top;
position = "{832, 1350}";
},
{
name = topleft;
position = "{20, 1350}";
}
);
layerId = "71977205-6510-4B11-BB00-17BACA883C8F";
paths = (
{
closed = 1;
nodes = (
"148 0 LINE",
"148 690 LINE",
"1408 690 LINE",
"1408 0 LINE",
"1430 0 LINE",
"1430 1350 LINE",
"1408 1350 LINE",
"1408 712 LINE",
"148 712 LINE",
"148 1350 LINE",
"126 1350 LINE",
"126 0 LINE"
);
}
);
width = 1664;
},
{
anchors = (
{
name = bottom;
position = "{737.489, 0}";
},
{
name = center;
position = "{856.509, 675}";
},
{
name = top;
position = "{975.53, 1350}";
},
{
name = topleft;
position = "{163.53, 1350}";
}
);
layerId = "5997A0D0-E78E-41EC-9011-DECBEAD8517D";
paths = (
{
closed = 1;
nodes = (
"8 0 LINE",
"130 690 LINE",
"1390 690 LINE",
"1268 0 LINE",
"1290 0 LINE",
"1530 1350 LINE",
"1508 1350 LINE",
"1394 712 LINE",
"134 712 LINE",
"248 1350 LINE",
"226 1350 LINE",
"-14 0 LINE"
);
}
);
width = 1664;
},
{
anchors = (
{
name = bottom;
position = "{275.489, 0}";
},
{
name = center;
position = "{394.509, 675}";
},
{
name = top;
position = "{513.53, 1350}";
},
{
name = topleft;
position = "{163.53, 1350}";
}
);
layerId = "55C4185A-9C39-4468-B19C-DE0A3E571700";
paths = (
{
closed = 1;
nodes = (
"260 0 LINE",
"358 558 LINE",
"380 558 LINE",
"280 0 LINE",
"628 0 LINE",
"868 1350 LINE",
"518 1350 LINE",
"418 782 LINE",
"396 782 LINE",
"498 1350 LINE",
"148 1350 LINE",
"-90 0 LINE"
);
}
);
width = 740;
},
{
anchors = (
{
name = bottom;
position = "{-0.511, 0}";
},
{
name = center;
position = "{118.509, 675}";
},
{
name = top;
position = "{237.53, 1350}";
},
{
name = topleft;
position = "{163.53, 1350}";
}
);
layerId = "4F53612F-C4F8-4368-83AD-8913BEEF8F1D";
paths = (
{
closed = 1;
nodes = (
"-38 0 LINE",
"92 728 LINE",
"154 728 LINE",
"26 0 LINE",
"48 0 LINE",
"286 1350 LINE",
"264 1350 LINE",
"158 750 LINE",
"96 750 LINE",
"202 1350 LINE",
"180 1350 LINE",
"-60 0 LINE"
);
}
);
width = 188;
},
{
anchors = (
{
name = bottom;
position = "{1015.489, 0}";
},
{
name = center;
position = "{1134.509, 675}";
},
{
name = top;
position = "{1253.53, 1350}";
},
{
name = topleft;
position = "{163.53, 1350}";
}
);
layerId = "E5A4176B-9C10-4B01-BBC9-D7999ECBFAF8";
paths = (
{
closed = 1;
nodes = (
"608 0 LINE",
"690 468 LINE",
"1478 468 LINE",
"1394 0 LINE",
"1960 0 LINE",
"2198 1350 LINE",
"1632 1350 LINE",
"1540 830 LINE",
"754 830 LINE",
"846 1350 LINE",
"280 1350 LINE",
"42 0 LINE"
);
}
);
width = 2220;
}
);
leftKerningGroup = H;
note = H;
rightKerningGroup = H;
unicode = 0048;
},
{
glyphname = Hbar;
layers = (
{
components = (
{
name = H;
}
);
layerId = "A1A0948C-E637-4A65-8CCC-05505AD98C44";
paths = (
{
closed = 1;
nodes = (
"166 1048 LINE",
"166 1070 LINE",
"12 1070 LINE",
"12 1048 LINE"
);
}
);
width = 188;
},
{
components = (
{
name = H;
}
);
layerId = "BA0CA162-2A9B-49EE-921D-3B4346C7D39F";
paths = (
{
closed = 1;
nodes = (
"788 1046 LINE",
"788 1170 LINE",
"-32 1170 LINE",
"-32 1046 LINE"
);
}
);
width = 742;
},
{
components = (
{
name = H;
}
);
layerId = "C75D3228-2D13-4E9D-9829-45195F4951D0";
paths = (
{
closed = 1;
nodes = (
"2124 1046 LINE",
"2124 1240 LINE",
"64 1240 LINE",
"64 1046 LINE"
);
}
);
width = 2220;
},
{
components = (
{
name = H;
}
);
layerId = "71977205-6510-4B11-BB00-17BACA883C8F";
paths = (
{
closed = 1;
nodes = (
"1522 1048 LINE",
"1522 1070 LINE",
"30 1070 LINE",
"30 1048 LINE"
);
}
);
width = 1664;
},
{
components = (
{
name = H;
}
);
layerId = "5997A0D0-E78E-41EC-9011-DECBEAD8517D";
paths = (
{
closed = 1;
nodes = (
"1574 1048 LINE",
"1578 1070 LINE",
"86 1070 LINE",
"82 1048 LINE"
);
}
);
width = 1664;
},
{
components = (
{
name = H;
}
);
layerId = "55C4185A-9C39-4468-B19C-DE0A3E571700";
paths = (
{
closed = 1;
nodes = (
"866 1046 LINE",
"888 1170 LINE",
"70 1170 LINE",
"46 1046 LINE"
);
}
);
width = 740;
},
{
components = (
{
name = H;
}
);
layerId = "4F53612F-C4F8-4368-83AD-8913BEEF8F1D";
paths = (
{
closed = 1;
nodes = (
"258 1048 LINE",
"262 1070 LINE",
"108 1070 LINE",
"104 1048 LINE"
);
}
);
width = 188;
},
{
components = (
{
name = H;
}
);
layerId = "E5A4176B-9C10-4B01-BBC9-D7999ECBFAF8";
paths = (
{
closed = 1;
nodes = (
"2214 1046 LINE",
"2248 1240 LINE",
"188 1240 LINE",
"154 1046 LINE"
);
}
);
width = 2220;
}
);
leftKerningGroup = H;
rightKerningGroup = H;
unicode = 0126;
},
{
glyphname = I;
layers = (
{
anchors = (
{
name = bottom;
position = "{56, 0}";
},
{
name = ogonek;
position = "{55, 0}";
},
{
name = top;
position = "{60, 1350}";
},
{
name = topleft;
position = "{20, 1350}";
}
);
layerId = "A1A0948C-E637-4A65-8CCC-05505AD98C44";
paths = (
{
closed = 1;
nodes = (
"66 0 LINE",
"66 1350 LINE",
"44 1350 LINE",
"44 0 LINE"
);
}
);
width = 120;
},
{
anchors = (
{
name = bottom;
position = "{187, 0}";
},
{
name = ogonek;
position = "{187, 0}";
},
{
name = top;
position = "{187, 1350}";
},
{
name = topleft;
position = "{20, 1350}";
}
);
layerId = "BA0CA162-2A9B-49EE-921D-3B4346C7D39F";
paths = (
{
closed = 1;
nodes = (
"362 0 LINE",
"362 1350 LINE",
"12 1350 LINE",
"12 0 LINE"
);
}
);
width = 374;
},
{
anchors = (
{
name = bottom;
position = "{503, 0}";
},
{
name = ogonek;
position = "{505, 0}";
},
{
name = top;
position = "{503, 1350}";
},
{
name = topleft;
position = "{20, 1350}";
}
);
layerId = "C75D3228-2D13-4E9D-9829-45195F4951D0";
paths = (
{
closed = 1;
nodes = (
"784 0 LINE",
"784 1350 LINE",
"224 1350 LINE",
"224 0 LINE"
);
}
);
width = 1006;
},
{
anchors = (
{
name = bottom;
position = "{271, 0}";
},
{
name = ogonek;
position = "{272, 0}";
},
{
name = top;
position = "{270, 1350}";
},
{
name = topleft;
position = "{20, 1350}";
}
);
layerId = "71977205-6510-4B11-BB00-17BACA883C8F";
paths = (
{
closed = 1;
nodes = (
"282 0 LINE",
"282 1350 LINE",
"260 1350 LINE",
"260 0 LINE"
);
}
);
width = 622;
},
{
anchors = (
{
name = bottom;
position = "{159, 0}";
},
{
name = ogonek;
position = "{160, 0}";
},
{
name = top;
position = "{454.53, 1350}";
},
{
name = topleft;
position = "{163.53, 1350}";
}
);
layerId = "5997A0D0-E78E-41EC-9011-DECBEAD8517D";
paths = (
{
closed = 1;
nodes = (
"170 0 LINE",
"410 1350 LINE",
"388 1350 LINE",
"148 0 LINE"
);
}
);
width = 622;
},
{
anchors = (
{
name = bottom;
position = "{90.489, 0}";
},
{
name = ogonek;
position = "{132, 0}";
},
{
name = top;
position = "{328.53, 1350}";
},
{
name = topleft;
position = "{163.53, 1350}";
}
);
layerId = "55C4185A-9C39-4468-B19C-DE0A3E571700";
paths = (
{
closed = 1;
nodes = (
"260 0 LINE",
"498 1350 LINE",
"150 1350 LINE",
"-90 0 LINE"
);
}
);
width = 370;
},
{
anchors = (
{
name = bottom;
position = "{-34.511, 0}";
},
{
name = ogonek;
position = "{-38, 0}";
},
{
name = top;
position = "{203.53, 1350}";
},
{
name = topleft;
position = "{163.53, 1350}";
}
);
layerId = "4F53612F-C4F8-4368-83AD-8913BEEF8F1D";
paths = (
{
closed = 1;
nodes = (
"-28 0 LINE",
"210 1350 LINE",
"188 1350 LINE",
"-50 0 LINE"
);
}
);
width = 120;
},
{
anchors = (
{
name = bottom;
position = "{402, 0}";
},
{
name = ogonek;
position = "{387, 0}";
},
{
name = top;
position = "{646.53, 1350}";
},
{
name = topleft;
position = "{163.53, 1350}";
}
);
layerId = "E5A4176B-9C10-4B01-BBC9-D7999ECBFAF8";
paths = (
{
closed = 1;
nodes = (
"660 0 LINE",
"898 1350 LINE",
"338 1350 LINE",
"100 0 LINE"
);
}
);
width = 1006;
}
);
leftKerningGroup = H;
note = I;
rightKerningGroup = H;
unicode = 0049;
},
{
glyphname = J;
layers = (
{
anchors = (
{
name = bottom;
position = "{93, 0}";
},
{
name = top;
position = "{93, 1350}";
}
);
layerId = "A1A0948C-E637-4A65-8CCC-05505AD98C44";
paths = (
{
closed = 1;
nodes = (
"120 -8 OFFCURVE",
"148 72 OFFCURVE",
"148 164 QCURVE SMOOTH",
"148 1350 LINE",
"126 1350 LINE",
"126 164 LINE SMOOTH",
"126 82 OFFCURVE",
"108 14 OFFCURVE",
"88 14 QCURVE SMOOTH",
"68 14 OFFCURVE",
"50 82 OFFCURVE",
"50 164 QCURVE SMOOTH",
"50 614 LINE",
"28 614 LINE",
"28 164 LINE SMOOTH",
"28 72 OFFCURVE",
"56 -8 OFFCURVE",
"88 -8 QCURVE SMOOTH"
);
}
);
width = 186;
},
{
anchors = (
{
name = bottom;
position = "{368, 0}";
},
{
name = top;
position = "{368, 1350}";
}
);
layerId = "BA0CA162-2A9B-49EE-921D-3B4346C7D39F";
paths = (
{
closed = 1;
nodes = (
"552 -8 OFFCURVE",
"724 100 OFFCURVE",
"724 240 QCURVE SMOOTH",
"724 1350 LINE",
"380 1350 LINE",
"380 294 LINE SMOOTH",
"380 252 OFFCURVE",
"380 208 OFFCURVE",
"368 208 QCURVE SMOOTH",
"356 208 OFFCURVE",
"356 252 OFFCURVE",
"356 294 QCURVE SMOOTH",
"356 572 LINE",
"12 572 LINE",
"12 240 LINE SMOOTH",
"12 104 OFFCURVE",
"194 -8 OFFCURVE",
"370 -8 QCURVE SMOOTH"
);
}
);
width = 736;
},
{
anchors = (
{
name = bottom;
position = "{1087, 0}";
},
{
name = top;
position = "{1087, 1350}";
}
);
layerId = "C75D3228-2D13-4E9D-9829-45195F4951D0";
paths = (
{
closed = 1;
nodes = (
"1512 -16 OFFCURVE",
"1994 290 OFFCURVE",
"1994 544 QCURVE SMOOTH",
"1994 1350 LINE",
"1428 1350 LINE",
"1428 572 LINE SMOOTH",
"1428 454 OFFCURVE",
"1260 346 OFFCURVE",
"1036 346 QCURVE SMOOTH",
"812 346 OFFCURVE",
"654 452 OFFCURVE",
"654 532 QCURVE SMOOTH",
"654 636 LINE",
"86 636 LINE",
"86 510 LINE SMOOTH",
"86 260 OFFCURVE",
"564 -16 OFFCURVE",
"1036 -16 QCURVE SMOOTH"
);
}
);
width = 2173;
},
{
anchors = (
{
name = bottom;
position = "{802, 0}";
},
{
name = top;
position = "{802, 1350}";
}
);
layerId = "71977205-6510-4B11-BB00-17BACA883C8F";
paths = (
{
closed = 1;
nodes = (
"1024 -16 OFFCURVE",
"1320 262 OFFCURVE",
"1320 568 QCURVE SMOOTH",
"1320 1350 LINE",
"1298 1350 LINE",
"1298 570 LINE SMOOTH",
"1298 272 OFFCURVE",
"1016 6 OFFCURVE",
"718 6 QCURVE SMOOTH",
"420 6 OFFCURVE",
"138 256 OFFCURVE",
"138 534 QCURVE SMOOTH",
"138 610 LINE",
"116 610 LINE",
"116 528 LINE SMOOTH",
"116 242 OFFCURVE",
"410 -16 OFFCURVE",
"718 -16 QCURVE SMOOTH"
);
}
);
width = 1604;
},
{
anchors = (
{
name = bottom;
position = "{707, 0}";
},
{
name = top;
position = "{946, 1350}";
}
);
layerId = "5997A0D0-E78E-41EC-9011-DECBEAD8517D";
paths = (
{
closed = 1;
nodes = (
"887 -16 OFFCURVE",
"1228 262 OFFCURVE",
"1282 568 QCURVE SMOOTH",
"1419 1350 LINE",
"1397 1350 LINE",
"1260 570 LINE SMOOTH",
"1209 277 OFFCURVE",
"878 6 OFFCURVE",
"580 6 QCURVE SMOOTH",
"282 6 OFFCURVE",
"40 248 OFFCURVE",
"92 529 QCURVE SMOOTH",
"107 610 LINE",
"85 610 LINE",
"70 528 LINE SMOOTH",
"18 242 OFFCURVE",
"273 -16 OFFCURVE",
"581 -16 QCURVE SMOOTH"
);
}
);
width = 1604;
},
{
anchors = (
{
name = bottom;
position = "{271.489, 0}";
},
{
name = top;
position = "{509.53, 1350}";
}
);
layerId = "55C4185A-9C39-4468-B19C-DE0A3E571700";
paths = (
{
closed = 1;
nodes = (
"448 -8 OFFCURVE",
"640 100 OFFCURVE",
"664 240 QCURVE SMOOTH",
"860 1350 LINE",
"516 1350 LINE",
"330 294 LINE SMOOTH",
"322 252 OFFCURVE",
"314 208 OFFCURVE",
"302 208 QCURVE SMOOTH",
"290 208 OFFCURVE",
"298 252 OFFCURVE",
"306 294 QCURVE SMOOTH",
"354 572 LINE",
"10 572 LINE",
"-48 240 LINE SMOOTH",
"-72 104 OFFCURVE",
"90 -8 OFFCURVE",
"266 -8 QCURVE SMOOTH"
);
}
);
width = 732;
},
{
anchors = (
{
name = bottom;
position = "{-0.511, 0}";
},
{
name = top;
position = "{237.53, 1350}";
}
);
layerId = "4F53612F-C4F8-4368-83AD-8913BEEF8F1D";
paths = (
{
closed = 1;
nodes = (
"24 -8 OFFCURVE",
"68 72 OFFCURVE",
"84 164 QCURVE SMOOTH",
"292 1350 LINE",
"270 1350 LINE",
"62 164 LINE SMOOTH",
"48 84 OFFCURVE",
"18 14 OFFCURVE",
"-4 14 QCURVE SMOOTH",
"-24 14 OFFCURVE",
"-30 82 OFFCURVE",
"-16 164 QCURVE SMOOTH",
"64 614 LINE",
"42 614 LINE",
"-38 164 LINE SMOOTH",
"-54 72 OFFCURVE",
"-40 -8 OFFCURVE",
"-6 -8 QCURVE SMOOTH"
);
}
);
width = 188;
},
{
anchors = (
{
name = bottom;
position = "{992.489, 0}";
},
{
name = top;
position = "{1230.53, 1350}";
}
);
layerId = "E5A4176B-9C10-4B01-BBC9-D7999ECBFAF8";
paths = (
{
closed = 1;
nodes = (
"1380 -16 OFFCURVE",
"1916 290 OFFCURVE",
"1960 544 QCURVE SMOOTH",
"2102 1350 LINE",
"1536 1350 LINE",
"1400 572 LINE SMOOTH",
"1378 454 OFFCURVE",
"1192 346 OFFCURVE",
"968 346 QCURVE SMOOTH",
"744 346 OFFCURVE",
"606 452 OFFCURVE",
"620 532 QCURVE SMOOTH",
"638 636 LINE",
"70 636 LINE",
"48 510 LINE SMOOTH",
"2 260 OFFCURVE",
"432 -16 OFFCURVE",
"904 -16 QCURVE SMOOTH"
);
}
);
width = 2173;
}
);
leftKerningGroup = J;
note = J;
rightKerningGroup = J;
unicode = 004A;
},
{
glyphname = K;
layers = (
{
anchors = (
{
name = bottom;
position = "{99, 0}";
},
{
name = top;
position = "{99, 1350}";
}
);
layerId = "A1A0948C-E637-4A65-8CCC-05505AD98C44";
paths = (
{
closed = 1;
nodes = (
"50 0 LINE",
"50 1350 LINE",
"28 1350 LINE",
"28 0 LINE"
);
},
{
closed = 1;
nodes = (
"68 670 LINE",
"162 1350 LINE",
"138 1350 LINE",
"46 670 LINE"
);
},
{
closed = 1;
nodes = (
"162 0 LINE",
"68 678 LINE",
"46 678 LINE",
"138 0 LINE"
);
}
);
width = 198;
},
{
anchors = (
{
name = bottom;
position = "{384, 0}";
},
{
name = top;
position = "{384, 1350}";
}
);
layerId = "BA0CA162-2A9B-49EE-921D-3B4346C7D39F";
paths = (
{
closed = 1;
nodes = (
"356 0 LINE",
"356 1350 LINE",
"12 1350 LINE",
"12 0 LINE"
);
},
{
closed = 1;
nodes = (
"672 670 LINE",
"756 1350 LINE",
"408 1350 LINE",
"346 670 LINE"
);
},
{
closed = 1;
nodes = (
"756 0 LINE",
"672 678 LINE",
"346 678 LINE",
"408 0 LINE"
);
}
);
width = 768;
},
{
anchors = (
{
name = bottom;
position = "{990, 0}";
},
{
name = top;
position = "{990, 1350}";
}
);
layerId = "C75D3228-2D13-4E9D-9829-45195F4951D0";
paths = (
{
closed = 1;
nodes = (
"696 0 LINE",
"696 1350 LINE",
"132 1350 LINE",
"132 0 LINE"
);
},
{
closed = 1;
nodes = (
"1226 670 LINE",
"1926 1350 LINE",
"1308 1350 LINE",
"596 656 LINE"
);
},
{
closed = 1;
nodes = (
"1926 0 LINE",
"1226 678 LINE",
"596 692 LINE",
"1308 0 LINE"
);
}
);
width = 1980;
},
{
anchors = (
{
name = bottom;
position = "{744, 0}";
},
{
name = top;
position = "{744, 1350}";
}
);
layerId = "71977205-6510-4B11-BB00-17BACA883C8F";
paths = (
{
closed = 1;
nodes = (
"202 0 LINE",
"202 1350 LINE",
"180 1350 LINE",
"180 0 LINE"
);
},
{
closed = 1;
nodes = (
"226 670 LINE",
"1350 1350 LINE",
"1304 1350 LINE",
"190 676 LINE"
);
},
{
closed = 1;
nodes = (
"1358 0 LINE",
"226 678 LINE",
"190 672 LINE",
"1312 0 LINE"
);
}
);
width = 1488;
},
{
anchors = (
{
name = bottom;
position = "{649.489, 0}";
},
{
name = top;
position = "{887.53, 1350}";
}
);
layerId = "5997A0D0-E78E-41EC-9011-DECBEAD8517D";
paths = (
{
closed = 1;
nodes = (
"62 0 LINE",
"302 1350 LINE",
"280 1350 LINE",
"40 0 LINE"
);
},
{
closed = 1;
nodes = (
"198 670 LINE",
"1442 1350 LINE",
"1394 1350 LINE",
"164 678 LINE"
);
},
{
closed = 1;
nodes = (
"1210 0 LINE",
"192 678 LINE",
"164 670 LINE",
"1168 0 LINE"
);
}
);
width = 1488;
},
{
anchors = (
{
name = bottom;
position = "{289.489, 0}";
},
{
name = top;
position = "{527.53, 1350}";
}
);
layerId = "55C4185A-9C39-4468-B19C-DE0A3E571700";
paths = (
{
closed = 1;
nodes = (
"254 0 LINE",
"494 1350 LINE",
"150 1350 LINE",
"-90 0 LINE"
);
},
{
closed = 1;
nodes = (
"690 670 LINE",
"894 1350 LINE",
"546 1350 LINE",
"364 670 LINE"
);
},
{
closed = 1;
nodes = (
"654 0 LINE",
"690 678 LINE",
"364 678 LINE",
"306 0 LINE"
);
}
);
width = 768;
},
{
anchors = (
{
name = bottom;
position = "{5.489, 0}";
},
{
name = top;
position = "{243.53, 1350}";
}
);
layerId = "4F53612F-C4F8-4368-83AD-8913BEEF8F1D";
paths = (
{
closed = 1;
nodes = (
"-44 0 LINE",
"196 1350 LINE",
"174 1350 LINE",
"-66 0 LINE"
);
},
{
closed = 1;
nodes = (
"94 670 LINE",
"306 1350 LINE",
"284 1350 LINE",
"72 670 LINE"
);
},
{
closed = 1;
nodes = (
"66 0 LINE",
"94 678 LINE",
"72 678 LINE",
"44 0 LINE"
);
}
);
width = 200;
},
{
anchors = (
{
name = bottom;
position = "{915.489, 0}";
},
{
name = top;
position = "{1153.53, 1350}";
}
);
layerId = "E5A4176B-9C10-4B01-BBC9-D7999ECBFAF8";
paths = (
{
closed = 1;
nodes = (
"558 0 LINE",
"796 1350 LINE",
"230 1350 LINE",
"-8 0 LINE"
);
},
{
closed = 1;
nodes = (
"1206 670 LINE",
"2026 1350 LINE",
"1408 1350 LINE",
"574 656 LINE"
);
},
{
closed = 1;
nodes = (
"1788 0 LINE",
"1206 678 LINE",
"580 692 LINE",
"1168 0 LINE"
);
}
);
width = 2020;
}
);
leftKerningGroup = H;
note = K;
rightKerningGroup = K;
unicode = 004B;
},
{
glyphname = L;
layers = (
{
anchors = (
{
name = bottom;
position = "{82, 0}";
},
{
name = center;
position = "{82, 675}";
},
{
name = top;
position = "{82, 1350}";
},
{
name = topright;
position = "{144, 1350}";
}
);
layerId = "A1A0948C-E637-4A65-8CCC-05505AD98C44";
paths = (
{
closed = 1;
nodes = (
"126 0 LINE",
"126 22 LINE",
"50 22 LINE",
"50 1350 LINE",
"28 1350 LINE",
"28 0 LINE"
);
}
);
width = 164;
},
{
anchors = (
{
name = bottom;
position = "{248, 0}";
},
{
name = center;
position = "{248, 675}";
},
{
name = top;
position = "{248, 1350}";
},
{
name = topright;
position = "{476, 1350}";
}
);
layerId = "BA0CA162-2A9B-49EE-921D-3B4346C7D39F";
paths = (
{
closed = 1;
nodes = (
"484 0 LINE",
"484 224 LINE",
"360 224 LINE",
"360 1350 LINE",
"12 1350 LINE",
"12 0 LINE"
);
}
);
width = 496;
},
{
anchors = (
{
name = bottom;
position = "{843, 0}";
},
{
name = center;
position = "{843, 675}";
},
{
name = top;
position = "{843, 1350}";
},
{
name = topright;
position = "{1666, 1350}";
}
);
layerId = "C75D3228-2D13-4E9D-9829-45195F4951D0";
paths = (
{
closed = 1;
nodes = (
"1576 0 LINE",
"1576 362 LINE",
"688 362 LINE",
"688 1350 LINE",
"122 1350 LINE",
"122 0 LINE"
);
}
);
width = 1686;
},
{
anchors = (
{
name = bottom;
position = "{715, 0}";
},
{
name = center;
position = "{715, 675}";
},
{
name = top;
position = "{715, 1350}";
},
{
name = topright;
position = "{1410, 1350}";
}
);
layerId = "71977205-6510-4B11-BB00-17BACA883C8F";
paths = (
{
closed = 1;
nodes = (
"1250 0 LINE",
"1250 22 LINE",
"176 22 LINE",
"176 1350 LINE",
"154 1350 LINE",
"154 0 LINE"
);
}
);
width = 1430;
},
{
anchors = (
{
name = bottom;
position = "{620.489, 0}";
},
{
name = center;
position = "{739.509, 675}";
},
{
name = top;
position = "{858.53, 1350}";
},
{
name = topright;
position = "{1553.53, 1350}";
}
);
layerId = "5997A0D0-E78E-41EC-9011-DECBEAD8517D";
paths = (
{
closed = 1;
nodes = (
"1110 0 LINE",
"1114 22 LINE",
"40 22 LINE",
"276 1350 LINE",
"254 1350 LINE",
"14 0 LINE"
);
}
);
width = 1430;
},
{
anchors = (
{
name = bottom;
position = "{154.489, 0}";
},
{
name = center;
position = "{273.509, 675}";
},
{
name = top;
position = "{392.53, 1350}";
},
{
name = topright;
position = "{621.53, 1350}";
}
);
layerId = "55C4185A-9C39-4468-B19C-DE0A3E571700";
paths = (
{
closed = 1;
nodes = (
"386 0 LINE",
"428 224 LINE",
"304 224 LINE",
"498 1350 LINE",
"150 1350 LINE",
"-90 0 LINE"
);
}
);
width = 498;
},
{
anchors = (
{
name = bottom;
position = "{-12.511, 0}";
},
{
name = center;
position = "{106.509, 675}";
},
{
name = top;
position = "{225.53, 1350}";
},
{
name = topright;
position = "{287.53, 1350}";
}
);
layerId = "4F53612F-C4F8-4368-83AD-8913BEEF8F1D";
paths = (
{
closed = 1;
nodes = (
"32 0 LINE",
"36 22 LINE",
"-40 22 LINE",
"196 1350 LINE",
"174 1350 LINE",
"-66 0 LINE"
);
}
);
width = 164;
},
{
anchors = (
{
name = bottom;
position = "{748.489, 0}";
},
{
name = center;
position = "{867.509, 675}";
},
{
name = top;
position = "{986.53, 1350}";
},
{
name = topright;
position = "{1809.53, 1350}";
}
);
layerId = "E5A4176B-9C10-4B01-BBC9-D7999ECBFAF8";
paths = (
{
closed = 1;
nodes = (
"1436 0 LINE",
"1500 362 LINE",
"612 362 LINE",
"788 1350 LINE",
"222 1350 LINE",
"-16 0 LINE"
);
}
);
width = 1686;
}
);
leftKerningGroup = H;
note = L;
rightKerningGroup = L;
unicode = 004C;
},
{
glyphname = Lcaron;
layers = (
{
components = (
{
name = L;
}
);
layerId = "A1A0948C-E637-4A65-8CCC-05505AD98C44";
paths = (
{
closed = 1;
nodes = (
"144 1148 LINE",
"174 1348 LINE",
"150 1348 LINE",
"124 1148 LINE"
);
}
);
width = 212;
},
{
components = (
{
name = L;
}
);
layerId = "BA0CA162-2A9B-49EE-921D-3B4346C7D39F";
paths = (
{
closed = 1;
nodes = (
"642 1008 LINE",
"722 1348 LINE",
"498 1348 LINE",
"422 1008 LINE"
);
}
);
width = 734;
},
{
components = (
{
name = L;
}
);
layerId = "C75D3228-2D13-4E9D-9829-45195F4951D0";
paths = (
{
closed = 1;
nodes = (
"1684 890 LINE",
"1854 1348 LINE",
"1498 1348 LINE",
"1368 890 LINE"
);
}
);
width = 1664;
},
{
components = (
{
name = L;
}
);
layerId = "71977205-6510-4B11-BB00-17BACA883C8F";
paths = (
{
closed = 1;
nodes = (
"1234 1126 LINE",
"1432 1348 LINE",
"1404 1348 LINE",
"1208 1126 LINE"
);
}
);
width = 1370;
},
{
components = (
{
name = L;
}
);
layerId = "5997A0D0-E78E-41EC-9011-DECBEAD8517D";
paths = (
{
closed = 1;
nodes = (
"1294 1126 LINE",
"1530 1348 LINE",
"1502 1348 LINE",
"1268 1126 LINE"
);
}
);
width = 1370;
},
{
components = (
{
name = L;
}
);
layerId = "55C4185A-9C39-4468-B19C-DE0A3E571700";
paths = (
{
closed = 1;
nodes = (
"722 1008 LINE",
"864 1348 LINE",
"638 1348 LINE",
"498 1008 LINE"
);
}
);
width = 736;
},
{
components = (
{
name = L;
}
);
layerId = "4F53612F-C4F8-4368-83AD-8913BEEF8F1D";
paths = (
{
closed = 1;
nodes = (
"242 1148 LINE",
"306 1348 LINE",
"282 1348 LINE",
"222 1148 LINE"
);
}
);
width = 200;
},
{
components = (
{
name = L;
}
);
layerId = "E5A4176B-9C10-4B01-BBC9-D7999ECBFAF8";
paths = (
{
closed = 1;
nodes = (
"1708 890 LINE",
"1956 1348 LINE",
"1592 1348 LINE",
"1382 890 LINE"
);
}
);
width = 1664;
}
);
leftKerningGroup = H;
rightKerningGroup = L;
unicode = 013D;
},
{
glyphname = Lslash;
layers = (
{
components = (
{
alignment = -1;
name = L;
transform = "{1, 0, 0, 1, 56, 0}";
}
);
layerId = "A1A0948C-E637-4A65-8CCC-05505AD98C44";
paths = (
{
closed = 1;
nodes = (
"180 898 LINE",
"180 958 LINE",
"28 420 LINE",
"28 360 LINE"
);
}
);
width = 220;
},
{
components = (
{
alignment = -1;
name = L;
transform = "{1, 0, 0, 1, 76, 0}";
}
);
layerId = "BA0CA162-2A9B-49EE-921D-3B4346C7D39F";
paths = (
{
closed = 1;
nodes = (
"518 698 LINE",
"518 958 LINE",
"12 620 LINE",
"12 358 LINE"
);
}
);
width = 572;
},
{
components = (
{
alignment = -1;
name = L;
transform = "{1, 0, 0, 1, 106, 0}";
}
);
layerId = "C75D3228-2D13-4E9D-9829-45195F4951D0";
paths = (
{
closed = 1;
nodes = (
"1340 534 LINE",
"1340 958 LINE",
"50 758 LINE",
"50 334 LINE"
);
}
);
width = 1836;
},
{
components = (
{
alignment = -1;
name = L;
transform = "{1, 0, 0, 1, 94, 0}";
}
);
layerId = "71977205-6510-4B11-BB00-17BACA883C8F";
paths = (
{
closed = 1;
nodes = (
"748 934 LINE",
"748 958 LINE",
"64 420 LINE",
"64 396 LINE"
);
}
);
width = 1548;
},
{
components = (
{
alignment = -1;
name = L;
transform = "{1, 0, 0, 1, 94, 0}";
}
);
layerId = "5997A0D0-E78E-41EC-9011-DECBEAD8517D";
paths = (
{
closed = 1;
nodes = (
"774 934 LINE",
"778 958 LINE",
"-2 420 LINE",
"-4 396 LINE"
);
}
);
width = 1548;
},
{
components = (
{
alignment = -1;
name = L;
transform = "{1, 0, 0, 1, 68, 0}";
}
);
layerId = "55C4185A-9C39-4468-B19C-DE0A3E571700";
paths = (
{
closed = 1;
nodes = (
"534 698 LINE",
"580 958 LINE",
"18 620 LINE",
"-30 358 LINE"
);
}
);
width = 568;
},
{
components = (
{
alignment = -1;
name = L;
transform = "{1, 0, 0, 1, 70, 0}";
}
);
layerId = "4F53612F-C4F8-4368-83AD-8913BEEF8F1D";
paths = (
{
closed = 1;
nodes = (
"246 898 LINE",
"256 958 LINE",
"8 420 LINE",
"-2 360 LINE"
);
}
);
width = 234;
},
{
components = (
{
alignment = -1;
name = L;
transform = "{1, 0, 0, 1, 106, 0}";
}
);
layerId = "E5A4176B-9C10-4B01-BBC9-D7999ECBFAF8";
paths = (
{
closed = 1;
nodes = (
"1296 534 LINE",
"1370 958 LINE",
"44 758 LINE",
"-30 334 LINE"
);
}
);
width = 1836;
}
);
leftKerningGroup = H;
rightKerningGroup = L;
unicode = 0141;
},
{
glyphname = M;
layers = (
{
anchors = (
{
name = bottom;
position = "{150, 0}";
},
{
name = top;
position = "{150, 1350}";
}
);
layerId = "A1A0948C-E637-4A65-8CCC-05505AD98C44";
paths = (
{
closed = 1;
nodes = (
"60 0 LINE",
"60 1328 LINE",
"68 1328 LINE",
"122 124 LINE",
"168 124 LINE",
"222 1328 LINE",
"230 1328 LINE",
"230 0 LINE",
"252 0 LINE",
"252 1350 LINE",
"202 1350 LINE",
"148 142 LINE",
"142 142 LINE",
"88 1350 LINE",
"38 1350 LINE",
"38 0 LINE"
);
}
);
width = 300;
},
{
anchors = (
{
name = bottom;
position = "{584, 0}";
},
{
name = top;
position = "{584, 1350}";
}
);
layerId = "BA0CA162-2A9B-49EE-921D-3B4346C7D39F";
paths = (
{
closed = 1;
nodes = (
"354 0 LINE",
"354 1128 LINE",
"356 1128 LINE",
"418 0 LINE",
"750 0 LINE",
"812 1128 LINE",
"814 1128 LINE",
"814 0 LINE",
"1156 0 LINE",
"1156 1350 LINE",
"626 1350 LINE",
"586 238 LINE",
"582 238 LINE",
"542 1350 LINE",
"12 1350 LINE",
"12 0 LINE"
);
}
);
width = 1168;
},
{
anchors = (
{
name = bottom;
position = "{1376, 0}";
},
{
name = top;
position = "{1376, 1350}";
}
);
layerId = "C75D3228-2D13-4E9D-9829-45195F4951D0";
paths = (
{
closed = 1;
nodes = (
"690 0 LINE",
"690 974 LINE",
"692 974 LINE",
"1050 0 LINE",
"1690 0 LINE",
"2048 974 LINE",
"2050 974 LINE",
"2050 0 LINE",
"2610 0 LINE",
"2610 1350 LINE",
"1704 1350 LINE",
"1372 404 LINE",
"1368 404 LINE",
"1036 1350 LINE",
"130 1350 LINE",
"130 0 LINE"
);
}
);
width = 2752;
},
{
anchors = (
{
name = bottom;
position = "{1054, 0}";
},
{
name = top;
position = "{1054, 1350}";
}
);
layerId = "71977205-6510-4B11-BB00-17BACA883C8F";
paths = (
{
closed = 1;
nodes = (
"202 0 LINE",
"202 1332 LINE",
"204 1332 LINE",
"996 338 LINE",
"1032 338 LINE",
"1824 1332 LINE",
"1826 1332 LINE",
"1826 0 LINE",
"1848 0 LINE",
"1848 1350 LINE",
"1808 1350 LINE",
"1016 356 LINE",
"1012 356 LINE",
"220 1350 LINE",
"180 1350 LINE",
"180 0 LINE"
);
}
);
width = 2108;
},
{
anchors = (
{
name = bottom;
position = "{952.489, 0}";
},
{
name = top;
position = "{1190.53, 1350}";
}
);
layerId = "5997A0D0-E78E-41EC-9011-DECBEAD8517D";
paths = (
{
closed = 1;
nodes = (
"62 0 LINE",
"298 1332 LINE",
"296 1332 LINE",
"918 338 LINE",
"950 338 LINE",
"1924 1332 LINE",
"1922 1332 LINE",
"1686 0 LINE",
"1708 0 LINE",
"1948 1350 LINE",
"1910 1350 LINE",
"932 356 LINE",
"936 356 LINE",
"310 1350 LINE",
"280 1350 LINE",
"40 0 LINE"
);
}
);
width = 2094;
},
{
anchors = (
{
name = bottom;
position = "{489.489, 0}";
},
{
name = top;
position = "{727.53, 1350}";
}
);
layerId = "55C4185A-9C39-4468-B19C-DE0A3E571700";
paths = (
{
closed = 1;
nodes = (
"254 0 LINE",
"454 1128 LINE",
"456 1128 LINE",
"318 0 LINE",
"650 0 LINE",
"912 1128 LINE",
"914 1128 LINE",
"714 0 LINE",
"1056 0 LINE",
"1296 1350 LINE",
"762 1350 LINE",
"524 238 LINE",
"520 238 LINE",
"678 1350 LINE",
"152 1350 LINE",
"-88 0 LINE"
);
}
);
width = 1168;
},
{
anchors = (
{
name = bottom;
position = "{55.489, 0}";
},
{
name = top;
position = "{293.53, 1350}";
}
);
layerId = "4F53612F-C4F8-4368-83AD-8913BEEF8F1D";
paths = (
{
closed = 1;
nodes = (
"-36 0 LINE",
"200 1328 LINE",
"208 1328 LINE",
"48 124 LINE",
"94 124 LINE",
"362 1328 LINE",
"370 1328 LINE",
"134 0 LINE",
"156 0 LINE",
"396 1350 LINE",
"346 1350 LINE",
"78 142 LINE",
"72 142 LINE",
"232 1350 LINE",
"182 1350 LINE",
"-58 0 LINE"
);
}
);
width = 300;
},
{
anchors = (
{
name = bottom;
position = "{1281.489, 0}";
},
{
name = top;
position = "{1519.53, 1350}";
}
);
layerId = "E5A4176B-9C10-4B01-BBC9-D7999ECBFAF8";
paths = (
{
closed = 1;
nodes = (
"570 0 LINE",
"742 974 LINE",
"744 974 LINE",
"930 0 LINE",
"1570 0 LINE",
"2100 974 LINE",
"2102 974 LINE",
"1930 0 LINE",
"2490 0 LINE",
"2730 1350 LINE",
"1814 1350 LINE",
"1314 404 LINE",
"1310 404 LINE",
"1146 1350 LINE",
"250 1350 LINE",
"10 0 LINE"
);
}
);
width = 2752;
}
);
leftKerningGroup = M;
note = M;
rightKerningGroup = M;
unicode = 004D;
},
{
glyphname = N;
layers = (
{
anchors = (
{
name = bottom;
position = "{111, 0}";
},
{
name = top;
position = "{111, 1350}";
}
);
layerId = "A1A0948C-E637-4A65-8CCC-05505AD98C44";
paths = (
{
closed = 1;
nodes = (
"56 0 LINE",
"56 1328 LINE",
"62 1328 LINE",
"130 0 LINE",
"178 0 LINE",
"178 1350 LINE",
"156 1350 LINE",
"156 22 LINE",
"150 22 LINE",
"82 1350 LINE",
"34 1350 LINE",
"34 0 LINE"
);
}
);
width = 222;
},
{
anchors = (
{
name = bottom;
position = "{480, 0}";
},
{
name = top;
position = "{480, 1350}";
}
);
layerId = "BA0CA162-2A9B-49EE-921D-3B4346C7D39F";
paths = (
{
closed = 1;
nodes = (
"354 0 LINE",
"354 1126 LINE",
"358 1126 LINE",
"404 0 LINE",
"948 0 LINE",
"948 1350 LINE",
"604 1350 LINE",
"596 264 LINE",
"594 264 LINE",
"546 1350 LINE",
"12 1350 LINE",
"12 0 LINE"
);
}
);
width = 960;
},
{
anchors = (
{
name = bottom;
position = "{1243, 0}";
},
{
name = top;
position = "{1243, 1350}";
}
);
layerId = "C75D3228-2D13-4E9D-9829-45195F4951D0";
paths = (
{
closed = 1;
nodes = (
"704 0 LINE",
"704 1156 LINE",
"348 1156 LINE",
"1610 0 LINE",
"2318 0 LINE",
"2318 1350 LINE",
"1752 1350 LINE",
"1752 194 LINE",
"2114 194 LINE",
"842 1350 LINE",
"138 1350 LINE",
"138 0 LINE"
);
}
);
width = 2486;
},
{
anchors = (
{
name = bottom;
position = "{910, 0}";
},
{
name = top;
position = "{910, 1350}";
}
);
layerId = "71977205-6510-4B11-BB00-17BACA883C8F";
paths = (
{
closed = 1;
nodes = (
"196 0 LINE",
"196 1342 LINE",
"192 1342 LINE",
"1542 0 LINE",
"1580 0 LINE",
"1580 1350 LINE",
"1558 1350 LINE",
"1558 8 LINE",
"1562 8 LINE",
"212 1350 LINE",
"174 1350 LINE",
"174 0 LINE"
);
}
);
width = 1820;
},
{
anchors = (
{
name = bottom;
position = "{803.489, 0}";
},
{
name = top;
position = "{1041.53, 1350}";
}
);
layerId = "5997A0D0-E78E-41EC-9011-DECBEAD8517D";
paths = (
{
closed = 1;
nodes = (
"56 0 LINE",
"294 1342 LINE",
"290 1342 LINE",
"1402 0 LINE",
"1440 0 LINE",
"1680 1350 LINE",
"1658 1350 LINE",
"1420 8 LINE",
"1424 8 LINE",
"312 1350 LINE",
"274 1350 LINE",
"34 0 LINE"
);
}
);
width = 1796;
},
{
anchors = (
{
name = bottom;
position = "{384.489, 0}";
},
{
name = top;
position = "{622.53, 1350}";
}
);
layerId = "55C4185A-9C39-4468-B19C-DE0A3E571700";
paths = (
{
closed = 1;
nodes = (
"252 0 LINE",
"452 1126 LINE",
"456 1126 LINE",
"302 0 LINE",
"846 0 LINE",
"1086 1350 LINE",
"742 1350 LINE",
"542 264 LINE",
"540 264 LINE",
"684 1350 LINE",
"150 1350 LINE",
"-90 0 LINE"
);
}
);
width = 958;
},
{
anchors = (
{
name = bottom;
position = "{16.489, 0}";
},
{
name = top;
position = "{254.53, 1350}";
}
);
layerId = "4F53612F-C4F8-4368-83AD-8913BEEF8F1D";
paths = (
{
closed = 1;
nodes = (
"-40 0 LINE",
"196 1328 LINE",
"202 1328 LINE",
"34 0 LINE",
"82 0 LINE",
"322 1350 LINE",
"300 1350 LINE",
"64 22 LINE",
"58 22 LINE",
"226 1350 LINE",
"178 1350 LINE",
"-62 0 LINE"
);
}
);
width = 222;
},
{
anchors = (
{
name = bottom;
position = "{1149.489, 0}";
},
{
name = top;
position = "{1387.53, 1350}";
}
);
layerId = "E5A4176B-9C10-4B01-BBC9-D7999ECBFAF8";
paths = (
{
closed = 1;
nodes = (
"564 0 LINE",
"768 1156 LINE",
"412 1156 LINE",
"1470 0 LINE",
"2178 0 LINE",
"2418 1350 LINE",
"1852 1350 LINE",
"1648 194 LINE",
"1992 194 LINE",
"924 1350 LINE",
"238 1350 LINE",
"-2 0 LINE"
);
}
);
width = 2488;
}
);
leftKerningGroup = H;
note = N;
rightKerningGroup = H;
unicode = 004E;
},
{
glyphname = Eng;
layers = (
{
components = (
{
name = N;
}
);
layerId = "A1A0948C-E637-4A65-8CCC-05505AD98C44";
paths = (
{
closed = 1;
nodes = (
"178 -400 OFFCURVE",
"178 -46 OFFCURVE",
"178 0 CURVE",
"156 0 LINE",
"156 -92 OFFCURVE",
"140 -378 OFFCURVE",
"74 -378 CURVE",
"74 -400 LINE"
);
}
);
width = 222;
},
{
components = (
{
name = N;
}
);
layerId = "BA0CA162-2A9B-49EE-921D-3B4346C7D39F";
paths = (
{
closed = 1;
nodes = (
"638 -440 OFFCURVE",
"948 -272 OFFCURVE",
"948 0 CURVE",
"594 0 LINE",
"596 -158 OFFCURVE",
"530 -218 OFFCURVE",
"390 -218 CURVE",
"390 -440 LINE"
);
}
);
width = 960;
},
{
components = (
{
name = N;
}
);
layerId = "C75D3228-2D13-4E9D-9829-45195F4951D0";
paths = (
{
closed = 1;
nodes = (
"1878 -520 OFFCURVE",
"2318 -372 OFFCURVE",
"2318 0 CURVE",
"1730 0 LINE",
"1730 -76 OFFCURVE",
"1672 -172 OFFCURVE",
"1298 -172 CURVE",
"1298 -520 LINE"
);
}
);
width = 2486;
},
{
components = (
{
name = N;
}
);
layerId = "71977205-6510-4B11-BB00-17BACA883C8F";
paths = (
{
closed = 1;
nodes = (
"1456 -480 OFFCURVE",
"1580 -292 OFFCURVE",
"1580 0 CURVE",
"1558 0 LINE",
"1558 -244 OFFCURVE",
"1474 -458 OFFCURVE",
"1060 -458 CURVE",
"1060 -480 LINE"
);
}
);
width = 1820;
},
{
components = (
{
name = N;
}
);
layerId = "5997A0D0-E78E-41EC-9011-DECBEAD8517D";
paths = (
{
closed = 1;
nodes = (
"1232 -480 OFFCURVE",
"1388 -292 OFFCURVE",
"1440 0 CURVE",
"1418 0 LINE",
"1376 -244 OFFCURVE",
"1254 -458 OFFCURVE",
"840 -458 CURVE",
"836 -480 LINE"
);
}
);
width = 1796;
},
{
components = (
{
name = N;
}
);
layerId = "55C4185A-9C39-4468-B19C-DE0A3E571700";
paths = (
{
closed = 1;
nodes = (
"460 -440 OFFCURVE",
"798 -272 OFFCURVE",
"846 0 CURVE",
"492 0 LINE",
"466 -158 OFFCURVE",
"392 -218 OFFCURVE",
"252 -218 CURVE",
"212 -440 LINE"
);
}
);
width = 958;
},
{
components = (
{
name = N;
}
);
layerId = "4F53612F-C4F8-4368-83AD-8913BEEF8F1D";
paths = (
{
closed = 1;
nodes = (
"10 -400 OFFCURVE",
"74 -46 OFFCURVE",
"82 0 CURVE",
"60 0 LINE",
"44 -92 OFFCURVE",
"-24 -378 OFFCURVE",
"-90 -378 CURVE",
"-94 -400 LINE"
);
}
);
width = 222;
},
{
components = (
{
name = N;
}
);
layerId = "E5A4176B-9C10-4B01-BBC9-D7999ECBFAF8";
paths = (
{
closed = 1;
nodes = (
"1646 -520 OFFCURVE",
"2112 -372 OFFCURVE",
"2178 0 CURVE",
"1590 0 LINE",
"1576 -76 OFFCURVE",
"1502 -172 OFFCURVE",
"1128 -172 CURVE",
"1066 -520 LINE"
);
}
);
width = 2488;
}
);
leftKerningGroup = N;
leftMetricsKey = N;
rightKerningGroup = N;
rightMetricsKey = N;
unicode = 014A;
},
{
glyphname = O;
layers = (
{
anchors = (
{
name = bottom;
position = "{91, 0}";
},
{
name = center;
position = "{91, 675}";
},
{
name = ogonek;
position = "{92, 0}";
},
{
name = top;
position = "{91, 1350}";
},
{
name = topleft;
position = "{20, 1350}";
},
{
name = topright;
position = "{162, 1350}";
}
);
layerId = "A1A0948C-E637-4A65-8CCC-05505AD98C44";
paths = (
{
closed = 1;
nodes = (
"144 -8 OFFCURVE",
"144 240 OFFCURVE",
"144 674 QCURVE SMOOTH",
"144 1104 OFFCURVE",
"144 1356 OFFCURVE",
"86 1356 QCURVE SMOOTH",
"28 1356 OFFCURVE",
"28 1106 OFFCURVE",
"28 674 QCURVE SMOOTH",
"28 240 OFFCURVE",
"28 -8 OFFCURVE",
"86 -8 QCURVE SMOOTH"
);
},
{
closed = 1;
nodes = (
"50 14 OFFCURVE",
"50 246 OFFCURVE",
"50 674 QCURVE SMOOTH",
"50 1100 OFFCURVE",
"50 1334 OFFCURVE",
"86 1334 QCURVE SMOOTH",
"122 1334 OFFCURVE",
"122 1100 OFFCURVE",
"122 674 QCURVE SMOOTH",
"122 246 OFFCURVE",
"122 14 OFFCURVE",
"86 14 QCURVE SMOOTH"
);
}
);
width = 182;
},
{
anchors = (
{
name = bottom;
position = "{368, 0}";
},
{
name = center;
position = "{368, 675}";
},
{
name = ogonek;
position = "{389, 0}";
},
{
name = top;
position = "{368, 1350}";
},
{
name = topleft;
position = "{20, 1350}";
},
{
name = topright;
position = "{716, 1350}";
}
);
layerId = "BA0CA162-2A9B-49EE-921D-3B4346C7D39F";
paths = (
{
closed = 1;
nodes = (
"724 -8 OFFCURVE",
"724 316 OFFCURVE",
"724 676 QCURVE SMOOTH",
"724 1036 OFFCURVE",
"724 1362 OFFCURVE",
"368 1362 QCURVE SMOOTH",
"12 1362 OFFCURVE",
"12 1036 OFFCURVE",
"12 676 QCURVE SMOOTH",
"12 316 OFFCURVE",
"12 -8 OFFCURVE",
"368 -8 QCURVE SMOOTH"
);
},
{
closed = 1;
nodes = (
"356 216 OFFCURVE",
"356 264 OFFCURVE",
"356 676 QCURVE SMOOTH",
"356 1098 OFFCURVE",
"356 1138 OFFCURVE",
"368 1138 QCURVE SMOOTH",
"380 1138 OFFCURVE",
"380 1098 OFFCURVE",
"380 676 QCURVE SMOOTH",
"380 264 OFFCURVE",
"380 216 OFFCURVE",
"368 216 QCURVE SMOOTH"
);
}
);
width = 736;
},
{
anchors = (
{
name = bottom;
position = "{1100, 0}";
},
{
name = center;
position = "{1100, 675}";
},
{
name = ogonek;
position = "{1122, 0}";
},
{
name = top;
position = "{1100, 1350}";
},
{
name = topleft;
position = "{20, 1350}";
},
{
name = topright;
position = "{2179, 1350}";
}
);
layerId = "C75D3228-2D13-4E9D-9829-45195F4951D0";
paths = (
{
closed = 1;
nodes = (
"1540 -16 OFFCURVE",
"2122 314 OFFCURVE",
"2122 674 QCURVE SMOOTH",
"2122 1034 OFFCURVE",
"1540 1362 OFFCURVE",
"1096 1362 QCURVE SMOOTH",
"652 1362 OFFCURVE",
"70 1034 OFFCURVE",
"70 674 QCURVE SMOOTH",
"70 314 OFFCURVE",
"652 -16 OFFCURVE",
"1096 -16 QCURVE SMOOTH"
);
},
{
closed = 1;
nodes = (
"880 346 OFFCURVE",
"636 512 OFFCURVE",
"636 674 QCURVE SMOOTH",
"636 836 OFFCURVE",
"880 1000 OFFCURVE",
"1096 1000 QCURVE SMOOTH",
"1312 1000 OFFCURVE",
"1558 836 OFFCURVE",
"1556 674 QCURVE SMOOTH",
"1554 512 OFFCURVE",
"1312 346 OFFCURVE",
"1096 346 QCURVE SMOOTH"
);
}
);
width = 2199;
},
{
anchors = (
{
name = bottom;
position = "{848, 0}";
},
{
name = center;
position = "{905, 675}";
},
{
name = ogonek;
position = "{866, 0}";
},
{
name = top;
position = "{848, 1350}";
},
{
name = topleft;
position = "{20, 1350}";
},
{
name = topright;
position = "{1790, 1350}";
}
);
layerId = "71977205-6510-4B11-BB00-17BACA883C8F";
paths = (
{
closed = 1;
nodes = (
"1202 -8 OFFCURVE",
"1654 328 OFFCURVE",
"1654 676 QCURVE SMOOTH",
"1654 1024 OFFCURVE",
"1202 1362 OFFCURVE",
"848 1362 QCURVE SMOOTH",
"494 1362 OFFCURVE",
"42 1024 OFFCURVE",
"42 676 QCURVE SMOOTH",
"42 328 OFFCURVE",
"494 -8 OFFCURVE",
"848 -8 QCURVE SMOOTH"
);
},
{
closed = 1;
nodes = (
"502 14 OFFCURVE",
"66 340 OFFCURVE",
"66 676 QCURVE SMOOTH",
"66 1012 OFFCURVE",
"502 1340 OFFCURVE",
"848 1340 QCURVE SMOOTH",
"1194 1340 OFFCURVE",
"1630 1012 OFFCURVE",
"1630 676 QCURVE SMOOTH",
"1630 340 OFFCURVE",
"1194 14 OFFCURVE",
"848 14 QCURVE SMOOTH"
);
}
);
width = 1810;
},
{
anchors = (
{
name = bottom;
position = "{750, 0}";
},
{
name = center;
position = "{870, 675}";
},
{
name = ogonek;
position = "{761, 0}";
},
{
name = top;
position = "{989, 1350}";
},
{
name = topleft;
position = "{163.53, 1350}";
},
{
name = topright;
position = "{1933.53, 1350}";
}
);
layerId = "5997A0D0-E78E-41EC-9011-DECBEAD8517D";
paths = (
{
closed = 1;
nodes = (
"1100 -8 OFFCURVE",
"1622 328 OFFCURVE",
"1674 676 QCURVE SMOOTH",
"1726 1022 OFFCURVE",
"1342 1362 OFFCURVE",
"988 1362 QCURVE SMOOTH",
"632 1362 OFFCURVE",
"114 1022 OFFCURVE",
"62 676 QCURVE SMOOTH",
"10 332 OFFCURVE",
"394 -8 OFFCURVE",
"748 -8 QCURVE SMOOTH"
);
},
{
closed = 1;
nodes = (
"402 14 OFFCURVE",
"38 344 OFFCURVE",
"88 676 QCURVE SMOOTH",
"138 1012 OFFCURVE",
"646 1340 OFFCURVE",
"988 1340 QCURVE SMOOTH",
"1334 1340 OFFCURVE",
"1698 1012 OFFCURVE",
"1648 676 QCURVE SMOOTH",
"1598 342 OFFCURVE",
"1092 14 OFFCURVE",
"748 14 QCURVE SMOOTH"
);
}
);
width = 1810;
},
{
anchors = (
{
name = bottom;
position = "{271.489, 0}";
},
{
name = center;
position = "{390.509, 675}";
},
{
name = ogonek;
position = "{287, 0}";
},
{
name = top;
position = "{509.53, 1350}";
},
{
name = topleft;
position = "{163.53, 1350}";
},
{
name = topright;
position = "{855.53, 1350}";
}
);
layerId = "55C4185A-9C39-4468-B19C-DE0A3E571700";
paths = (
{
closed = 1;
nodes = (
"620 -8 OFFCURVE",
"676 316 OFFCURVE",
"740 676 QCURVE SMOOTH",
"804 1036 OFFCURVE",
"860 1362 OFFCURVE",
"504 1362 QCURVE SMOOTH",
"148 1362 OFFCURVE",
"92 1036 OFFCURVE",
"28 676 QCURVE SMOOTH",
"-36 316 OFFCURVE",
"-92 -8 OFFCURVE",
"264 -8 QCURVE SMOOTH"
);
},
{
closed = 1;
nodes = (
"290 216 OFFCURVE",
"300 264 OFFCURVE",
"372 676 QCURVE SMOOTH",
"446 1098 OFFCURVE",
"454 1138 OFFCURVE",
"466 1138 QCURVE SMOOTH",
"478 1138 OFFCURVE",
"470 1098 OFFCURVE",
"396 676 QCURVE SMOOTH",
"324 264 OFFCURVE",
"314 216 OFFCURVE",
"302 216 QCURVE SMOOTH"
);
}
);
width = 732;
},
{
anchors = (
{
name = bottom;
position = "{-2.511, 0}";
},
{
name = center;
position = "{116.509, 675}";
},
{
name = ogonek;
position = "{-6, 0}";
},
{
name = top;
position = "{235.53, 1350}";
},
{
name = topleft;
position = "{163.53, 1350}";
},
{
name = topright;
position = "{307.53, 1350}";
}
);
layerId = "4F53612F-C4F8-4368-83AD-8913BEEF8F1D";
paths = (
{
closed = 1;
nodes = (
"50 -8 OFFCURVE",
"94 240 OFFCURVE",
"170 674 QCURVE SMOOTH",
"246 1104 OFFCURVE",
"290 1356 OFFCURVE",
"232 1356 QCURVE SMOOTH",
"174 1356 OFFCURVE",
"130 1106 OFFCURVE",
"54 674 QCURVE SMOOTH",
"-24 240 OFFCURVE",
"-68 -8 OFFCURVE",
"-10 -8 QCURVE SMOOTH"
);
},
{
closed = 1;
nodes = (
"-42 14 OFFCURVE",
"-2 246 OFFCURVE",
"76 674 QCURVE SMOOTH",
"152 1100 OFFCURVE",
"192 1334 OFFCURVE",
"228 1334 QCURVE SMOOTH",
"264 1334 OFFCURVE",
"224 1100 OFFCURVE",
"148 674 QCURVE SMOOTH",
"72 246 OFFCURVE",
"32 14 OFFCURVE",
"-6 14 QCURVE SMOOTH"
);
}
);
width = 184;
},
{
anchors = (
{
name = bottom;
position = "{995, 0}";
},
{
name = center;
position = "{1115, 675}";
},
{
name = ogonek;
position = "{1021, 0}";
},
{
name = top;
position = "{1234, 1350}";
},
{
name = topleft;
position = "{163.53, 1350}";
},
{
name = topright;
position = "{2322.53, 1350}";
}
);
layerId = "E5A4176B-9C10-4B01-BBC9-D7999ECBFAF8";
paths = (
{
closed = 1;
nodes = (
"1424 -16 OFFCURVE",
"2078 314 OFFCURVE",
"2128 674 QCURVE SMOOTH",
"2178 1034 OFFCURVE",
"1668 1362 OFFCURVE",
"1224 1362 QCURVE SMOOTH",
"780 1362 OFFCURVE",
"132 1034 OFFCURVE",
"76 674 QCURVE SMOOTH",
"20 314 OFFCURVE",
"536 -16 OFFCURVE",
"980 -16 QCURVE SMOOTH"
);
},
{
closed = 1;
nodes = (
"828 346 OFFCURVE",
"614 512 OFFCURVE",
"642 674 QCURVE SMOOTH",
"670 832 OFFCURVE",
"948 1000 OFFCURVE",
"1160 1000 QCURVE SMOOTH",
"1376 1000 OFFCURVE",
"1592 836 OFFCURVE",
"1562 674 QCURVE SMOOTH",
"1532 514 OFFCURVE",
"1256 346 OFFCURVE",
"1044 346 QCURVE SMOOTH"
);
}
);
width = 2199;
}
);
leftKerningGroup = O;
note = O;
rightKerningGroup = O;
unicode = 004F;
},
{
glyphname = Oslash;
layers = (
{
anchors = (
{
name = bottom;
position = "{91, 0}";
},
{
name = top;
position = "{91, 1350}";
}
);
components = (
{
name = O;
}
);
layerId = "A1A0948C-E637-4A65-8CCC-05505AD98C44";
paths = (
{
closed = 1;
nodes = (
"36 0 LINE",
"158 1348 LINE",
"136 1348 LINE",
"14 0 LINE"
);
}
);
width = 182;
},
{
anchors = (
{
name = bottom;
position = "{368, 0}";
},
{
name = top;
position = "{368, 1350}";
}
);
components = (
{
name = O;
}
);
layerId = "BA0CA162-2A9B-49EE-921D-3B4346C7D39F";
paths = (
{
closed = 1;
nodes = (
"72 0 LINE",
"744 1348 LINE",
"666 1348 LINE",
"-8 0 LINE"
);
}
);
width = 736;
},
{
anchors = (
{
name = bottom;
position = "{1099, 0}";
},
{
name = top;
position = "{1099, 1350}";
}
);
components = (
{
name = O;
}
);
layerId = "C75D3228-2D13-4E9D-9829-45195F4951D0";
paths = (
{
closed = 1;
nodes = (
"418 0 LINE",
"2158 1348 LINE",
"1780 1348 LINE",
"38 0 LINE"
);
}
);
width = 2198;
},
{
anchors = (
{
name = bottom;
position = "{905, 0}";
},
{
name = top;
position = "{905, 1350}";
}
);
components = (
{
name = O;
}
);
layerId = "71977205-6510-4B11-BB00-17BACA883C8F";
paths = (
{
closed = 1;
nodes = (
"192 0 LINE",
"1554 1348 LINE",
"1526 1348 LINE",
"158 0 LINE"
);
}
);
width = 1810;
},
{
anchors = (
{
name = bottom;
position = "{790.489, 0}";
},
{
name = top;
position = "{1028.53, 1350}";
}
);
components = (
{
name = O;
}
);
layerId = "5997A0D0-E78E-41EC-9011-DECBEAD8517D";
paths = (
{
closed = 1;
nodes = (
"58 0 LINE",
"1652 1348 LINE",
"1620 1348 LINE",
"18 0 LINE"
);
}
);
width = 1770;
},
{
anchors = (
{
name = bottom;
position = "{271.489, 0}";
},
{
name = top;
position = "{509.53, 1350}";
}
);
components = (
{
name = O;
}
);
layerId = "55C4185A-9C39-4468-B19C-DE0A3E571700";
paths = (
{
closed = 1;
nodes = (
"-24 0 LINE",
"884 1348 LINE",
"806 1348 LINE",
"-104 0 LINE"
);
}
);
width = 732;
},
{
anchors = (
{
name = bottom;
position = "{-2.511, 0}";
},
{
name = top;
position = "{235.53, 1350}";
}
);
components = (
{
name = O;
}
);
layerId = "4F53612F-C4F8-4368-83AD-8913BEEF8F1D";
paths = (
{
closed = 1;
nodes = (
"-62 0 LINE",
"296 1348 LINE",
"274 1348 LINE",
"-84 0 LINE"
);
}
);
width = 184;
},
{
anchors = (
{
name = bottom;
position = "{1004.489, 0}";
},
{
name = top;
position = "{1242.53, 1350}";
}
);
components = (
{
name = O;
}
);
layerId = "E5A4176B-9C10-4B01-BBC9-D7999ECBFAF8";
paths = (
{
closed = 1;
nodes = (
"300 0 LINE",
"2276 1348 LINE",
"1898 1348 LINE",
"-80 0 LINE"
);
}
);
width = 2198;
}
);
leftKerningGroup = O;
rightKerningGroup = O;
unicode = 00D8;
},
{
glyphname = P;
layers = (
{
anchors = (
{
name = bottom;
position = "{85, 0}";
},
{
name = top;
position = "{85, 1350}";
}
);
layerId = "A1A0948C-E637-4A65-8CCC-05505AD98C44";
paths = (
{
closed = 1;
nodes = (
"50 0 LINE",
"50 388 LINE",
"72 388 LINE SMOOTH",
"132 388 OFFCURVE",
"132 680 OFFCURVE",
"132 868 QCURVE SMOOTH",
"132 1056 OFFCURVE",
"132 1350 OFFCURVE",
"72 1350 QCURVE SMOOTH",
"28 1350 LINE",
"28 0 LINE"
);
},
{
closed = 1;
nodes = (
"50 1328 LINE",
"68 1328 LINE SMOOTH",
"110 1328 OFFCURVE",
"110 1056 OFFCURVE",
"110 868 QCURVE SMOOTH",
"110 680 OFFCURVE",
"110 410 OFFCURVE",
"68 410 QCURVE SMOOTH",
"50 410 LINE"
);
}
);
width = 170;
},
{
anchors = (
{
name = bottom;
position = "{372, 0}";
},
{
name = top;
position = "{372, 1350}";
}
);
layerId = "BA0CA162-2A9B-49EE-921D-3B4346C7D39F";
paths = (
{
closed = 1;
nodes = (
"360 0 LINE",
"360 352 LINE",
"500 352 LINE SMOOTH",
"732 352 OFFCURVE",
"732 722 OFFCURVE",
"732 852 QCURVE SMOOTH",
"732 980 OFFCURVE",
"732 1350 OFFCURVE",
"500 1350 QCURVE SMOOTH",
"12 1350 LINE",
"12 0 LINE"
);
},
{
closed = 1;
nodes = (
"360 1126 LINE",
"370 1126 LINE SMOOTH",
"384 1126 OFFCURVE",
"384 1006 OFFCURVE",
"384 852 QCURVE SMOOTH",
"384 696 OFFCURVE",
"384 576 OFFCURVE",
"370 576 QCURVE SMOOTH",
"360 576 LINE"
);
}
);
width = 744;
},
{
anchors = (
{
name = bottom;
position = "{1032, 0}";
},
{
name = top;
position = "{1032, 1350}";
}
);
layerId = "C75D3228-2D13-4E9D-9829-45195F4951D0";
paths = (
{
closed = 1;
nodes = (
"694 0 LINE",
"694 310 LINE",
"1334 310 LINE SMOOTH",
"1680 310 OFFCURVE",
"1966 564 OFFCURVE",
"1966 830 QCURVE SMOOTH",
"1966 1094 OFFCURVE",
"1680 1350 OFFCURVE",
"1334 1350 QCURVE SMOOTH",
"128 1350 LINE",
"128 0 LINE"
);
},
{
closed = 1;
nodes = (
"694 988 LINE",
"1176 988 LINE SMOOTH",
"1300 988 OFFCURVE",
"1408 918 OFFCURVE",
"1408 830 QCURVE SMOOTH",
"1408 740 OFFCURVE",
"1300 672 OFFCURVE",
"1176 672 QCURVE SMOOTH",
"694 672 LINE"
);
}
);
width = 2063;
},
{
anchors = (
{
name = bottom;
position = "{779, 0}";
},
{
name = top;
position = "{779, 1350}";
}
);
layerId = "71977205-6510-4B11-BB00-17BACA883C8F";
paths = (
{
closed = 1;
nodes = (
"162 0 LINE",
"162 478 LINE",
"816 478 LINE SMOOTH",
"1092 478 OFFCURVE",
"1358 684 OFFCURVE",
"1358 914 QCURVE SMOOTH",
"1358 1144 OFFCURVE",
"1092 1350 OFFCURVE",
"816 1350 QCURVE SMOOTH",
"140 1350 LINE",
"140 0 LINE"
);
},
{
closed = 1;
nodes = (
"162 1328 LINE",
"806 1328 LINE SMOOTH",
"1086 1328 OFFCURVE",
"1334 1126 OFFCURVE",
"1334 914 QCURVE SMOOTH",
"1334 702 OFFCURVE",
"1086 500 OFFCURVE",
"806 500 QCURVE SMOOTH",
"162 500 LINE"
);
}
);
width = 1558;
},
{
anchors = (
{
name = bottom;
position = "{684.489, 0}";
},
{
name = top;
position = "{922.53, 1350}";
}
);
layerId = "5997A0D0-E78E-41EC-9011-DECBEAD8517D";
paths = (
{
closed = 1;
nodes = (
"48 0 LINE",
"134 478 LINE",
"790 478 LINE SMOOTH",
"1066 478 OFFCURVE",
"1406 748 OFFCURVE",
"1406 1024 QCURVE SMOOTH",
"1406 1174 OFFCURVE",
"1216 1350 OFFCURVE",
"960 1350 QCURVE SMOOTH",
"266 1350 LINE",
"26 0 LINE"
);
},
{
closed = 1;
nodes = (
"284 1328 LINE",
"954 1328 LINE SMOOTH",
"1214 1328 OFFCURVE",
"1382 1156 OFFCURVE",
"1382 1024 QCURVE SMOOTH",
"1382 764 OFFCURVE",
"1062 500 OFFCURVE",
"782 500 QCURVE SMOOTH",
"138 500 LINE"
);
}
);
width = 1558;
},
{
anchors = (
{
name = bottom;
position = "{276.489, 0}";
},
{
name = top;
position = "{514.53, 1350}";
}
);
layerId = "55C4185A-9C39-4468-B19C-DE0A3E571700";
paths = (
{
closed = 1;
nodes = (
"258 0 LINE",
"322 352 LINE",
"462 352 LINE SMOOTH",
"694 352 OFFCURVE",
"758 722 OFFCURVE",
"782 852 QCURVE SMOOTH",
"806 980 OFFCURVE",
"870 1350 OFFCURVE",
"638 1350 QCURVE SMOOTH",
"150 1350 LINE",
"-90 0 LINE"
);
},
{
closed = 1;
nodes = (
"458 1126 LINE",
"468 1126 LINE SMOOTH",
"482 1126 OFFCURVE",
"462 1006 OFFCURVE",
"434 852 QCURVE SMOOTH",
"406 696 OFFCURVE",
"384 576 OFFCURVE",
"370 576 QCURVE SMOOTH",
"360 576 LINE"
);
}
);
width = 742;
},
{
anchors = (
{
name = bottom;
position = "{-7.511, 0}";
},
{
name = top;
position = "{230.53, 1350}";
}
);
layerId = "4F53612F-C4F8-4368-83AD-8913BEEF8F1D";
paths = (
{
closed = 1;
nodes = (
"-44 0 LINE",
"28 388 LINE",
"50 388 LINE SMOOTH",
"110 388 OFFCURVE",
"160 680 OFFCURVE",
"194 868 QCURVE SMOOTH",
"228 1056 OFFCURVE",
"280 1350 OFFCURVE",
"220 1350 QCURVE SMOOTH",
"176 1350 LINE",
"-66 0 LINE"
);
},
{
closed = 1;
nodes = (
"194 1328 LINE",
"212 1328 LINE SMOOTH",
"254 1328 OFFCURVE",
"206 1056 OFFCURVE",
"172 868 QCURVE SMOOTH",
"138 680 OFFCURVE",
"92 410 OFFCURVE",
"50 410 QCURVE SMOOTH",
"32 410 LINE"
);
}
);
width = 174;
},
{
anchors = (
{
name = bottom;
position = "{937.489, 0}";
},
{
name = top;
position = "{1175.53, 1350}";
}
);
layerId = "E5A4176B-9C10-4B01-BBC9-D7999ECBFAF8";
paths = (
{
closed = 1;
nodes = (
"582 0 LINE",
"638 310 LINE",
"1278 310 LINE SMOOTH",
"1624 310 OFFCURVE",
"2002 636 OFFCURVE",
"2002 906 QCURVE SMOOTH",
"2002 1096 OFFCURVE",
"1770 1350 OFFCURVE",
"1424 1350 QCURVE SMOOTH",
"256 1350 LINE",
"16 0 LINE"
);
},
{
closed = 1;
nodes = (
"758 988 LINE",
"1240 988 LINE SMOOTH",
"1364 988 OFFCURVE",
"1444 918 OFFCURVE",
"1444 850 QCURVE SMOOTH",
"1444 758 OFFCURVE",
"1308 672 OFFCURVE",
"1184 672 QCURVE SMOOTH",
"702 672 LINE"
);
}
);
width = 2063;
}
);
leftKerningGroup = H;
note = P;
rightKerningGroup = P;
unicode = 0050;
},
{
glyphname = Thorn;
layers = (
{
anchors = (
{
name = bottom;
position = "{105, 0}";
},
{
name = top;
position = "{105, 1350}";
}
);
layerId = "A1A0948C-E637-4A65-8CCC-05505AD98C44";
paths = (
{
closed = 1;
nodes = (
"50 0 LINE",
"50 288 LINE",
"94 288 LINE",
"146 288 OFFCURVE",
"172 370 OFFCURVE",
"172 538 CURVE SMOOTH",
"172 822 LINE SMOOTH",
"172 982 OFFCURVE",
"144 1072 OFFCURVE",
"94 1072 CURVE",
"50 1072 LINE",
"50 1350 LINE",
"28 1350 LINE",
"28 0 LINE"
);
},
{
closed = 1;
nodes = (
"50 1048 LINE",
"80 1048 LINE",
"130 1048 OFFCURVE",
"150 978 OFFCURVE",
"150 802 CURVE SMOOTH",
"150 558 LINE SMOOTH",
"150 374 OFFCURVE",
"132 310 OFFCURVE",
"80 310 CURVE",
"50 310 LINE"
);
}
);
width = 210;
},
{
anchors = (
{
name = bottom;
position = "{373, 0}";
},
{
name = top;
position = "{373, 1350}";
}
);
layerId = "BA0CA162-2A9B-49EE-921D-3B4346C7D39F";
paths = (
{
closed = 1;
nodes = (
"358 0 LINE",
"358 288 LINE",
"514 288 LINE",
"672 288 OFFCURVE",
"734 364 OFFCURVE",
"734 558 CURVE SMOOTH",
"734 802 LINE SMOOTH",
"734 990 OFFCURVE",
"666 1072 OFFCURVE",
"514 1072 CURVE",
"358 1072 LINE",
"358 1350 LINE",
"12 1350 LINE",
"12 0 LINE"
);
},
{
closed = 1;
nodes = (
"358 848 LINE",
"368 848 LINE",
"388 848 OFFCURVE",
"388 832 OFFCURVE",
"388 778 CURVE SMOOTH",
"388 598 LINE SMOOTH",
"388 528 OFFCURVE",
"386 510 OFFCURVE",
"368 510 CURVE",
"358 510 LINE"
);
}
);
width = 746;
},
{
anchors = (
{
name = bottom;
position = "{1023, 0}";
},
{
name = top;
position = "{1023, 1350}";
}
);
layerId = "C75D3228-2D13-4E9D-9829-45195F4951D0";
paths = (
{
closed = 1;
nodes = (
"666 0 LINE",
"666 288 LINE",
"1498 288 LINE SMOOTH",
"1824 288 OFFCURVE",
"1920 412 OFFCURVE",
"1920 638 CURVE SMOOTH",
"1920 726 LINE SMOOTH",
"1920 922 OFFCURVE",
"1802 1072 OFFCURVE",
"1498 1072 CURVE",
"666 1072 LINE",
"666 1350 LINE",
"108 1350 LINE",
"108 0 LINE"
);
},
{
closed = 1;
nodes = (
"666 712 LINE",
"1296 712 LINE",
"1338 712 OFFCURVE",
"1360 710 OFFCURVE",
"1360 686 CURVE SMOOTH",
"1360 672 LINE SMOOTH",
"1360 650 OFFCURVE",
"1340 648 OFFCURVE",
"1296 648 CURVE",
"666 648 LINE"
);
}
);
width = 2045;
},
{
anchors = (
{
name = bottom;
position = "{740, 0}";
},
{
name = top;
position = "{740, 1350}";
}
);
layerId = "71977205-6510-4B11-BB00-17BACA883C8F";
paths = (
{
closed = 1;
nodes = (
"194 0 LINE",
"194 288 LINE",
"892 288 LINE",
"1200 288 OFFCURVE",
"1292 458 OFFCURVE",
"1292 650 CURVE SMOOTH",
"1292 704 LINE SMOOTH",
"1292 902 OFFCURVE",
"1204 1072 OFFCURVE",
"892 1072 CURVE",
"194 1072 LINE",
"194 1350 LINE",
"172 1350 LINE",
"172 0 LINE"
);
},
{
closed = 1;
nodes = (
"194 1048 LINE",
"892 1048 LINE",
"1184 1048 OFFCURVE",
"1270 894 OFFCURVE",
"1270 694 CURVE SMOOTH",
"1270 660 LINE SMOOTH",
"1270 468 OFFCURVE",
"1176 310 OFFCURVE",
"892 310 CURVE",
"194 310 LINE"
);
}
);
width = 1480;
},
{
anchors = (
{
name = bottom;
position = "{645.489, 0}";
},
{
name = top;
position = "{883.53, 1350}";
}
);
layerId = "5997A0D0-E78E-41EC-9011-DECBEAD8517D";
paths = (
{
closed = 1;
nodes = (
"54 0 LINE",
"106 288 LINE",
"804 288 LINE",
"1112 288 OFFCURVE",
"1232 458 OFFCURVE",
"1268 650 CURVE SMOOTH",
"1278 704 LINE SMOOTH",
"1314 902 OFFCURVE",
"1254 1072 OFFCURVE",
"942 1072 CURVE",
"244 1072 LINE",
"294 1350 LINE",
"272 1350 LINE",
"32 0 LINE"
);
},
{
closed = 1;
nodes = (
"240 1048 LINE",
"944 1048 LINE",
"1236 1048 OFFCURVE",
"1288 894 OFFCURVE",
"1252 694 CURVE SMOOTH",
"1246 660 LINE SMOOTH",
"1212 468 OFFCURVE",
"1086 310 OFFCURVE",
"802 310 CURVE",
"110 310 LINE"
);
}
);
width = 1480;
},
{
anchors = (
{
name = bottom;
position = "{276.489, 0}";
},
{
name = top;
position = "{514.53, 1350}";
}
);
layerId = "55C4185A-9C39-4468-B19C-DE0A3E571700";
paths = (
{
closed = 1;
nodes = (
"254 0 LINE",
"306 288 LINE",
"462 288 LINE",
"620 288 OFFCURVE",
"696 364 OFFCURVE",
"730 558 CURVE SMOOTH",
"772 802 LINE SMOOTH",
"804 990 OFFCURVE",
"752 1072 OFFCURVE",
"600 1072 CURVE",
"444 1072 LINE",
"494 1350 LINE",
"148 1350 LINE",
"-92 0 LINE"
);
},
{
closed = 1;
nodes = (
"404 848 LINE",
"414 848 LINE",
"434 848 OFFCURVE",
"432 832 OFFCURVE",
"422 778 CURVE SMOOTH",
"390 598 LINE SMOOTH",
"378 528 OFFCURVE",
"372 510 OFFCURVE",
"354 510 CURVE",
"344 510 LINE"
);
}
);
width = 742;
},
{
anchors = (
{
name = bottom;
position = "{11.489, 0}";
},
{
name = top;
position = "{249.53, 1350}";
}
);
layerId = "4F53612F-C4F8-4368-83AD-8913BEEF8F1D";
paths = (
{
closed = 1;
nodes = (
"-44 0 LINE",
"8 288 LINE",
"50 288 LINE",
"104 288 OFFCURVE",
"144 370 OFFCURVE",
"174 536 CURVE SMOOTH",
"224 822 LINE SMOOTH",
"252 982 OFFCURVE",
"240 1072 OFFCURVE",
"188 1072 CURVE",
"146 1072 LINE",
"194 1350 LINE",
"172 1350 LINE",
"-66 0 LINE"
);
},
{
closed = 1;
nodes = (
"142 1048 LINE",
"172 1048 LINE",
"222 1048 OFFCURVE",
"230 978 OFFCURVE",
"198 804 CURVE SMOOTH",
"154 558 LINE SMOOTH",
"122 374 OFFCURVE",
"94 310 OFFCURVE",
"40 310 CURVE",
"12 310 LINE"
);
}
);
width = 212;
},
{
anchors = (
{
name = bottom;
position = "{928.489, 0}";
},
{
name = top;
position = "{1166.53, 1350}";
}
);
layerId = "E5A4176B-9C10-4B01-BBC9-D7999ECBFAF8";
paths = (
{
closed = 1;
nodes = (
"532 0 LINE",
"584 288 LINE",
"1416 288 LINE SMOOTH",
"1742 288 OFFCURVE",
"1864 412 OFFCURVE",
"1900 638 CURVE SMOOTH",
"1914 726 LINE SMOOTH",
"1946 922 OFFCURVE",
"1858 1072 OFFCURVE",
"1554 1072 CURVE",
"722 1072 LINE",
"772 1350 LINE",
"214 1350 LINE",
"-26 0 LINE"
);
},
{
closed = 1;
nodes = (
"658 712 LINE",
"1288 712 LINE",
"1330 712 OFFCURVE",
"1352 710 OFFCURVE",
"1348 686 CURVE SMOOTH",
"1346 672 LINE SMOOTH",
"1342 650 OFFCURVE",
"1322 648 OFFCURVE",
"1278 648 CURVE",
"648 648 LINE"
);
}
);
width = 2045;
}
);
leftKerningGroup = H;
note = Thorn;
rightKerningGroup = Thorn;
unicode = 00DE;
},
{
glyphname = Q;
layers = (
{
anchors = (
{
name = bottom;
position = "{97, 0}";
},
{
name = top;
position = "{97, 1350}";
}
);
components = (
{
name = O;
}
);
layerId = "A1A0948C-E637-4A65-8CCC-05505AD98C44";
paths = (
{
closed = 1;
nodes = (
"180 -84 LINE",
"104 22 LINE",
"88 8 LINE",
"164 -96 LINE"
);
}
);
width = 194;
},
{
anchors = (
{
name = bottom;
position = "{373, 0}";
},
{
name = top;
position = "{373, 1350}";
}
);
components = (
{
name = O;
}
);
layerId = "BA0CA162-2A9B-49EE-921D-3B4346C7D39F";
paths = (
{
closed = 1;
nodes = (
"776 -114 LINE",
"570 232 LINE",
"324 132 LINE",
"534 -228 LINE"
);
}
);
width = 746;
},
{
anchors = (
{
name = bottom;
position = "{1109, 0}";
},
{
name = top;
position = "{1109, 1350}";
}
);
components = (
{
name = O;
}
);
layerId = "C75D3228-2D13-4E9D-9829-45195F4951D0";
paths = (
{
closed = 1;
nodes = (
"2060 -150 LINE",
"1650 322 LINE",
"1224 114 LINE",
"1660 -390 LINE"
);
}
);
width = 2218;
},
{
anchors = (
{
name = bottom;
position = "{905, 0}";
},
{
name = top;
position = "{905, 1350}";
}
);
components = (
{
name = O;
}
);
layerId = "71977205-6510-4B11-BB00-17BACA883C8F";
paths = (
{
closed = 1;
nodes = (
"1592 -140 LINE",
"1366 140 LINE",
"1348 124 LINE",
"1572 -156 LINE"
);
}
);
width = 1810;
},
{
anchors = (
{
name = bottom;
position = "{810.489, 0}";
},
{
name = top;
position = "{1048.53, 1350}";
}
);
components = (
{
name = O;
}
);
layerId = "5997A0D0-E78E-41EC-9011-DECBEAD8517D";
paths = (
{
closed = 1;
nodes = (
"1462 -140 LINE",
"1286 140 LINE",
"1266 124 LINE",
"1440 -156 LINE"
);
}
);
width = 1810;
},
{
anchors = (
{
name = bottom;
position = "{276.489, 0}";
},
{
name = top;
position = "{514.53, 1350}";
}
);
components = (
{
name = O;
}
);
layerId = "55C4185A-9C39-4468-B19C-DE0A3E571700";
paths = (
{
closed = 1;
nodes = (
"656 -114 LINE",
"510 232 LINE",
"246 132 LINE",
"394 -228 LINE"
);
}
);
width = 742;
},
{
anchors = (
{
name = bottom;
position = "{2.489, 0}";
},
{
name = top;
position = "{240.53, 1350}";
}
);
components = (
{
name = O;
}
);
layerId = "4F53612F-C4F8-4368-83AD-8913BEEF8F1D";
paths = (
{
closed = 1;
nodes = (
"72 -84 LINE",
"14 22 LINE",
"-6 8 LINE",
"54 -96 LINE"
);
}
);
width = 194;
},
{
anchors = (
{
name = bottom;
position = "{1014.489, 0}";
},
{
name = top;
position = "{1252.53, 1350}";
}
);
components = (
{
name = O;
}
);
layerId = "E5A4176B-9C10-4B01-BBC9-D7999ECBFAF8";
paths = (
{
closed = 1;
nodes = (
"1960 -150 LINE",
"1632 322 LINE",
"1170 114 LINE",
"1518 -390 LINE"
);
}
);
width = 2218;
}
);
leftKerningGroup = O;
note = Q;
rightKerningGroup = O;
unicode = 0051;
},
{
glyphname = R;
layers = (
{
anchors = (
{
name = bottom;
position = "{89, 0}";
},
{
name = top;
position = "{89, 1350}";
}
);
layerId = "A1A0948C-E637-4A65-8CCC-05505AD98C44";
paths = (
{
closed = 1;
nodes = (
"50 0 LINE",
"50 632 LINE",
"68 632 LINE SMOOTH",
"134 632 OFFCURVE",
"134 856 OFFCURVE",
"134 990 QCURVE SMOOTH",
"134 1124 OFFCURVE",
"134 1350 OFFCURVE",
"68 1350 QCURVE SMOOTH",
"28 1350 LINE",
"28 0 LINE"
);
},
{
closed = 1;
nodes = (
"140 0 LINE",
"108 660 LINE",
"86 638 LINE",
"118 0 LINE"
);
},
{
closed = 1;
nodes = (
"50 1328 LINE",
"68 1328 LINE SMOOTH",
"112 1328 OFFCURVE",
"112 1124 OFFCURVE",
"112 990 QCURVE SMOOTH",
"112 856 OFFCURVE",
"112 654 OFFCURVE",
"68 654 QCURVE SMOOTH",
"50 654 LINE"
);
}
);
width = 178;
},
{
anchors = (
{
name = bottom;
position = "{375, 0}";
},
{
name = top;
position = "{375, 1350}";
}
);
layerId = "BA0CA162-2A9B-49EE-921D-3B4346C7D39F";
paths = (
{
closed = 1;
nodes = (
"362 0 LINE",
"362 570 LINE",
"516 570 LINE SMOOTH",
"730 570 OFFCURVE",
"730 866 OFFCURVE",
"730 944 QCURVE SMOOTH",
"730 1026 OFFCURVE",
"730 1350 OFFCURVE",
"514 1350 QCURVE SMOOTH",
"12 1350 LINE",
"12 0 LINE"
);
},
{
closed = 1;
nodes = (
"758 0 LINE",
"676 632 LINE",
"364 612 LINE",
"406 0 LINE"
);
},
{
closed = 1;
nodes = (
"362 1126 LINE",
"368 1126 LINE SMOOTH",
"386 1126 OFFCURVE",
"386 1030 OFFCURVE",
"386 944 QCURVE SMOOTH",
"386 858 OFFCURVE",
"386 764 OFFCURVE",
"368 764 QCURVE SMOOTH",
"362 764 LINE"
);
}
);
width = 770;
},
{
anchors = (
{
name = bottom;
position = "{1050, 0}";
},
{
name = top;
position = "{1050, 1350}";
}
);
layerId = "C75D3228-2D13-4E9D-9829-45195F4951D0";
paths = (
{
closed = 1;
nodes = (
"706 0 LINE",
"706 424 LINE",
"1412 424 LINE SMOOTH",
"1704 424 OFFCURVE",
"1994 646 OFFCURVE",
"1994 888 QCURVE SMOOTH",
"1994 1132 OFFCURVE",
"1724 1350 OFFCURVE",
"1452 1350 QCURVE SMOOTH",
"140 1350 LINE",
"140 0 LINE"
);
},
{
closed = 1;
nodes = (
"2046 0 LINE",
"1410 630 LINE",
"834 630 LINE",
"1406 0 LINE"
);
},
{
closed = 1;
nodes = (
"706 988 LINE",
"1250 988 LINE SMOOTH",
"1334 988 OFFCURVE",
"1428 934 OFFCURVE",
"1428 876 QCURVE SMOOTH",
"1428 816 OFFCURVE",
"1334 764 OFFCURVE",
"1250 764 QCURVE SMOOTH",
"706 764 LINE"
);
}
);
width = 2100;
},
{
anchors = (
{
name = bottom;
position = "{770, 0}";
},
{
name = top;
position = "{770, 1350}";
}
);
layerId = "71977205-6510-4B11-BB00-17BACA883C8F";
paths = (
{
closed = 1;
nodes = (
"164 0 LINE",
"164 680 LINE",
"1008 680 LINE SMOOTH",
"1218 680 OFFCURVE",
"1400 854 OFFCURVE",
"1400 1016 QCURVE SMOOTH",
"1400 1178 OFFCURVE",
"1218 1350 OFFCURVE",
"1008 1350 QCURVE SMOOTH",
"142 1350 LINE",
"142 0 LINE"
);
},
{
closed = 1;
nodes = (
"1364 0 LINE",
"1036 692 LINE",
"1012 692 LINE",
"1340 0 LINE"
);
},
{
closed = 1;
nodes = (
"164 1328 LINE",
"1006 1328 LINE SMOOTH",
"1210 1328 OFFCURVE",
"1376 1170 OFFCURVE",
"1376 1016 QCURVE SMOOTH",
"1376 862 OFFCURVE",
"1210 702 OFFCURVE",
"1006 702 QCURVE SMOOTH",
"164 702 LINE"
);
}
);
width = 1580;
},
{
anchors = (
{
name = bottom;
position = "{635, 0}";
},
{
name = top;
position = "{874, 1350}";
}
);
layerId = "5997A0D0-E78E-41EC-9011-DECBEAD8517D";
paths = (
{
closed = 1;
nodes = (
"50 0 LINE",
"170 680 LINE",
"1016 680 LINE SMOOTH",
"1226 680 OFFCURVE",
"1438 854 OFFCURVE",
"1466 1016 QCURVE SMOOTH",
"1494 1178 OFFCURVE",
"1344 1350 OFFCURVE",
"1134 1350 QCURVE SMOOTH",
"268 1350 LINE",
"28 0 LINE"
);
},
{
closed = 1;
nodes = (
"1250 0 LINE",
"1044 692 LINE",
"1020 692 LINE",
"1226 0 LINE"
);
},
{
closed = 1;
nodes = (
"286 1328 LINE",
"1130 1328 LINE SMOOTH",
"1334 1328 OFFCURVE",
"1470 1170 OFFCURVE",
"1442 1016 QCURVE SMOOTH",
"1414 862 OFFCURVE",
"1218 702 OFFCURVE",
"1014 702 QCURVE SMOOTH",
"174 702 LINE"
);
}
);
width = 1580;
},
{
anchors = (
{
name = bottom;
position = "{268, 0}";
},
{
name = top;
position = "{507, 1350}";
}
);
layerId = "55C4185A-9C39-4468-B19C-DE0A3E571700";
paths = (
{
closed = 1;
nodes = (
"260 0 LINE",
"362 570 LINE",
"516 570 LINE SMOOTH",
"730 570 OFFCURVE",
"782 866 OFFCURVE",
"796 944 QCURVE SMOOTH",
"810 1026 OFFCURVE",
"868 1350 OFFCURVE",
"652 1350 QCURVE SMOOTH",
"150 1350 LINE",
"-90 0 LINE"
);
},
{
closed = 1;
nodes = (
"656 0 LINE",
"686 632 LINE",
"370 612 LINE",
"304 0 LINE"
);
},
{
closed = 1;
nodes = (
"460 1126 LINE",
"466 1126 LINE SMOOTH",
"484 1126 OFFCURVE",
"466 1030 OFFCURVE",
"452 944 QCURVE SMOOTH",
"438 858 OFFCURVE",
"420 764 OFFCURVE",
"402 764 QCURVE SMOOTH",
"396 764 LINE"
);
}
);
width = 766;
},
{
anchors = (
{
name = bottom;
position = "{-4.511, 0}";
},
{
name = top;
position = "{233.53, 1350}";
}
);
layerId = "4F53612F-C4F8-4368-83AD-8913BEEF8F1D";
paths = (
{
closed = 1;
nodes = (
"-44 0 LINE",
"70 632 LINE",
"88 632 LINE SMOOTH",
"154 632 OFFCURVE",
"194 856 OFFCURVE",
"218 990 QCURVE SMOOTH",
"242 1124 OFFCURVE",
"282 1350 OFFCURVE",
"216 1350 QCURVE SMOOTH",
"176 1350 LINE",
"-66 0 LINE"
);
},
{
closed = 1;
nodes = (
"48 0 LINE",
"134 660 LINE",
"108 638 LINE",
"26 0 LINE"
);
},
{
closed = 1;
nodes = (
"194 1328 LINE",
"212 1328 LINE SMOOTH",
"256 1328 OFFCURVE",
"220 1124 OFFCURVE",
"196 990 QCURVE SMOOTH",
"172 856 OFFCURVE",
"136 654 OFFCURVE",
"92 654 QCURVE SMOOTH",
"74 654 LINE"
);
}
);
width = 180;
},
{
anchors = (
{
name = bottom;
position = "{925, 0}";
},
{
name = top;
position = "{1164, 1350}";
}
);
layerId = "E5A4176B-9C10-4B01-BBC9-D7999ECBFAF8";
paths = (
{
closed = 1;
nodes = (
"586 0 LINE",
"662 424 LINE",
"1368 424 LINE SMOOTH",
"1660 424 OFFCURVE",
"1988 646 OFFCURVE",
"2032 888 QCURVE SMOOTH",
"2074 1132 OFFCURVE",
"1844 1350 OFFCURVE",
"1572 1350 QCURVE SMOOTH",
"260 1350 LINE",
"20 0 LINE"
);
},
{
closed = 1;
nodes = (
"1926 0 LINE",
"1402 630 LINE",
"826 630 LINE",
"1286 0 LINE"
);
},
{
closed = 1;
nodes = (
"762 988 LINE",
"1306 988 LINE SMOOTH",
"1390 988 OFFCURVE",
"1474 934 OFFCURVE",
"1464 876 QCURVE SMOOTH",
"1452 816 OFFCURVE",
"1350 764 OFFCURVE",
"1266 764 QCURVE SMOOTH",
"722 764 LINE"
);
}
);
width = 2160;
}
);
leftKerningGroup = H;
note = R;
rightKerningGroup = R;
unicode = 0052;
},
{
glyphname = S;
layers = (
{
anchors = (
{
name = bottom;
position = "{92, 0}";
},
{
name = top;
position = "{92, 1350}";
}
);
layerId = "A1A0948C-E637-4A65-8CCC-05505AD98C44";
paths = (
{
closed = 1;
nodes = (
"146 -12 OFFCURVE",
"146 194 OFFCURVE",
"146 300 QCURVE SMOOTH",
"146 480 OFFCURVE",
"146 638 OFFCURVE",
"92 692 QCURVE SMOOTH",
"52 732 OFFCURVE",
"52 892 OFFCURVE",
"52 1040 QCURVE SMOOTH",
"52 1136 OFFCURVE",
"52 1334 OFFCURVE",
"88 1334 QCURVE SMOOTH",
"124 1334 OFFCURVE",
"124 1136 OFFCURVE",
"124 796 QCURVE",
"146 796 LINE",
"146 1136 OFFCURVE",
"146 1356 OFFCURVE",
"88 1356 QCURVE SMOOTH",
"30 1356 OFFCURVE",
"30 1138 OFFCURVE",
"30 1040 QCURVE SMOOTH",
"30 880 OFFCURVE",
"30 720 OFFCURVE",
"82 670 QCURVE SMOOTH",
"124 628 OFFCURVE",
"124 476 OFFCURVE",
"124 300 QCURVE SMOOTH",
"124 194 OFFCURVE",
"124 10 OFFCURVE",
"86 10 QCURVE SMOOTH",
"50 10 OFFCURVE",
"50 194 OFFCURVE",
"50 554 QCURVE",
"28 554 LINE",
"28 194 OFFCURVE",
"28 -12 OFFCURVE",
"86 -12 QCURVE SMOOTH"
);
}
);
width = 184;
},
{
anchors = (
{
name = bottom;
position = "{374, 0}";
},
{
name = top;
position = "{374, 1350}";
}
);
layerId = "BA0CA162-2A9B-49EE-921D-3B4346C7D39F";
paths = (
{
closed = 1;
nodes = (
"736 -8 OFFCURVE",
"736 288 OFFCURVE",
"736 412 QCURVE SMOOTH",
"736 604 OFFCURVE",
"652 724 OFFCURVE",
"472 810 QCURVE SMOOTH",
"384 852 OFFCURVE",
"360 896 OFFCURVE",
"360 1006 QCURVE SMOOTH",
"360 1074 OFFCURVE",
"360 1140 OFFCURVE",
"372 1140 QCURVE SMOOTH",
"384 1140 OFFCURVE",
"384 1074 OFFCURVE",
"384 890 QCURVE",
"732 890 LINE",
"732 1050 OFFCURVE",
"732 1362 OFFCURVE",
"374 1362 QCURVE",
"12 1362 OFFCURVE",
"12 1046 OFFCURVE",
"12 954 QCURVE SMOOTH",
"12 762 OFFCURVE",
"94 624 OFFCURVE",
"288 532 QCURVE SMOOTH",
"364 496 OFFCURVE",
"384 440 OFFCURVE",
"384 356 QCURVE SMOOTH",
"384 280 OFFCURVE",
"384 214 OFFCURVE",
"372 214 QCURVE SMOOTH",
"360 214 OFFCURVE",
"360 280 OFFCURVE",
"360 468 QCURVE",
"12 468 LINE",
"12 288 OFFCURVE",
"12 -8 OFFCURVE",
"372 -8 QCURVE SMOOTH"
);
}
);
width = 748;
},
{
anchors = (
{
name = bottom;
position = "{1099, 0}";
},
{
name = top;
position = "{1099, 1350}";
}
);
layerId = "C75D3228-2D13-4E9D-9829-45195F4951D0";
paths = (
{
closed = 1;
nodes = (
"1526 -8 OFFCURVE",
"2090 210 OFFCURVE",
"2060 470 QCURVE SMOOTH",
"2040 632 OFFCURVE",
"1736 806 OFFCURVE",
"1260 840 QCURVE SMOOTH",
"1016 858 OFFCURVE",
"630 886 OFFCURVE",
"630 926 QCURVE SMOOTH",
"630 962 OFFCURVE",
"900 994 OFFCURVE",
"1076 994 QCURVE SMOOTH",
"1230 994 OFFCURVE",
"1494 944 OFFCURVE",
"1494 874 QCURVE",
"2060 874 LINE",
"2060 1126 OFFCURVE",
"1504 1362 OFFCURVE",
"1074 1362 QCURVE SMOOTH",
"646 1362 OFFCURVE",
"64 1144 OFFCURVE",
"96 896 QCURVE SMOOTH",
"114 754 OFFCURVE",
"436 534 OFFCURVE",
"876 508 QCURVE SMOOTH",
"1138 492 OFFCURVE",
"1514 468 OFFCURVE",
"1514 426 QCURVE SMOOTH",
"1514 390 OFFCURVE",
"1254 352 OFFCURVE",
"1088 352 QCURVE SMOOTH",
"920 352 OFFCURVE",
"660 410 OFFCURVE",
"660 482 QCURVE",
"94 482 LINE",
"94 226 OFFCURVE",
"638 -8 OFFCURVE",
"1094 -8 QCURVE SMOOTH"
);
}
);
width = 2198;
},
{
anchors = (
{
name = bottom;
position = "{792, 0}";
},
{
name = top;
position = "{792, 1350}";
}
);
layerId = "71977205-6510-4B11-BB00-17BACA883C8F";
paths = (
{
closed = 1;
nodes = (
"1124 -8 OFFCURVE",
"1476 164 OFFCURVE",
"1476 328 QCURVE SMOOTH",
"1476 492 OFFCURVE",
"1114 622 OFFCURVE",
"794 694 QCURVE SMOOTH",
"484 764 OFFCURVE",
"128 898 OFFCURVE",
"128 1048 QCURVE SMOOTH",
"128 1206 OFFCURVE",
"466 1340 OFFCURVE",
"790 1340 QCURVE SMOOTH",
"1118 1340 OFFCURVE",
"1452 1144 OFFCURVE",
"1452 880 QCURVE",
"1476 880 LINE",
"1476 1150 OFFCURVE",
"1138 1362 OFFCURVE",
"790 1362 QCURVE",
"460 1362 OFFCURVE",
"104 1222 OFFCURVE",
"104 1048 QCURVE SMOOTH",
"104 884 OFFCURVE",
"464 746 OFFCURVE",
"780 674 QCURVE SMOOTH",
"1090 604 OFFCURVE",
"1452 480 OFFCURVE",
"1452 328 QCURVE SMOOTH",
"1452 178 OFFCURVE",
"1114 14 OFFCURVE",
"788 14 QCURVE SMOOTH",
"456 14 OFFCURVE",
"128 226 OFFCURVE",
"128 492 QCURVE",
"104 492 LINE",
"104 212 OFFCURVE",
"442 -8 OFFCURVE",
"788 -8 QCURVE SMOOTH"
);
}
);
width = 1668;
},
{
anchors = (
{
name = bottom;
position = "{678, 0}";
},
{
name = top;
position = "{917, 1350}";
}
);
layerId = "5997A0D0-E78E-41EC-9011-DECBEAD8517D";
paths = (
{
closed = 1;
nodes = (
"1004 -8 OFFCURVE",
"1386 164 OFFCURVE",
"1414 328 QCURVE SMOOTH",
"1444 492 OFFCURVE",
"1102 614 OFFCURVE",
"796 690 QCURVE SMOOTH",
"500 764 OFFCURVE",
"166 894 OFFCURVE",
"194 1048 QCURVE SMOOTH",
"222 1202 OFFCURVE",
"586 1340 OFFCURVE",
"910 1340 QCURVE SMOOTH",
"1238 1340 OFFCURVE",
"1534 1144 OFFCURVE",
"1488 880 QCURVE",
"1512 880 LINE",
"1560 1150 OFFCURVE",
"1258 1362 OFFCURVE",
"910 1362 QCURVE",
"580 1362 OFFCURVE",
"202 1222 OFFCURVE",
"170 1048 QCURVE SMOOTH",
"140 882 OFFCURVE",
"480 746 OFFCURVE",
"782 670 QCURVE SMOOTH",
"1080 596 OFFCURVE",
"1416 482 OFFCURVE",
"1390 328 QCURVE SMOOTH",
"1366 182 OFFCURVE",
"994 14 OFFCURVE",
"668 14 QCURVE SMOOTH",
"336 14 OFFCURVE",
"48 226 OFFCURVE",
"96 492 QCURVE",
"72 492 LINE",
"22 212 OFFCURVE",
"322 -8 OFFCURVE",
"668 -8 QCURVE SMOOTH"
);
}
);
width = 1668;
},
{
anchors = (
{
name = bottom;
position = "{273, 0}";
},
{
name = top;
position = "{512, 1350}";
}
);
layerId = "55C4185A-9C39-4468-B19C-DE0A3E571700";
paths = (
{
closed = 1;
nodes = (
"634 -8 OFFCURVE",
"686 288 OFFCURVE",
"708 412 QCURVE SMOOTH",
"742 604 OFFCURVE",
"678 724 OFFCURVE",
"514 810 QCURVE SMOOTH",
"434 852 OFFCURVE",
"416 896 OFFCURVE",
"436 1006 QCURVE SMOOTH",
"448 1074 OFFCURVE",
"460 1140 OFFCURVE",
"472 1140 QCURVE SMOOTH",
"484 1140 OFFCURVE",
"472 1074 OFFCURVE",
"440 890 QCURVE",
"788 890 LINE",
"816 1050 OFFCURVE",
"872 1362 OFFCURVE",
"514 1362 QCURVE",
"152 1362 OFFCURVE",
"96 1046 OFFCURVE",
"80 954 QCURVE SMOOTH",
"46 762 OFFCURVE",
"104 622 OFFCURVE",
"280 532 QCURVE SMOOTH",
"350 496 OFFCURVE",
"360 440 OFFCURVE",
"346 356 QCURVE SMOOTH",
"334 280 OFFCURVE",
"320 214 OFFCURVE",
"308 214 QCURVE SMOOTH",
"296 214 OFFCURVE",
"308 280 OFFCURVE",
"342 468 QCURVE",
"-6 468 LINE",
"-38 288 OFFCURVE",
"-90 -8 OFFCURVE",
"270 -8 QCURVE SMOOTH"
);
}
);
width = 746;
},
{
anchors = (
{
name = bottom;
position = "{-0.511, 0}";
},
{
name = top;
position = "{237.53, 1350}";
}
);
layerId = "4F53612F-C4F8-4368-83AD-8913BEEF8F1D";
paths = (
{
closed = 1;
nodes = (
"52 -12 OFFCURVE",
"86 194 OFFCURVE",
"106 300 QCURVE SMOOTH",
"140 480 OFFCURVE",
"164 632 OFFCURVE",
"120 690 QCURVE SMOOTH",
"88 734 OFFCURVE",
"118 892 OFFCURVE",
"142 1040 QCURVE SMOOTH",
"158 1136 OFFCURVE",
"194 1334 OFFCURVE",
"230 1334 QCURVE SMOOTH",
"266 1334 OFFCURVE",
"232 1136 OFFCURVE",
"172 796 QCURVE",
"194 796 LINE",
"254 1136 OFFCURVE",
"292 1356 OFFCURVE",
"234 1356 QCURVE SMOOTH",
"176 1356 OFFCURVE",
"138 1138 OFFCURVE",
"120 1040 QCURVE SMOOTH",
"90 880 OFFCURVE",
"66 724 OFFCURVE",
"106 670 QCURVE SMOOTH",
"140 624 OFFCURVE",
"116 468 OFFCURVE",
"84 300 QCURVE SMOOTH",
"64 194 OFFCURVE",
"34 10 OFFCURVE",
"-6 10 QCURVE SMOOTH",
"-42 10 OFFCURVE",
"-10 194 OFFCURVE",
"56 554 QCURVE",
"34 554 LINE",
"-32 194 OFFCURVE",
"-68 -12 OFFCURVE",
"-10 -12 QCURVE SMOOTH"
);
}
);
width = 188;
},
{
anchors = (
{
name = bottom;
position = "{965, 0}";
},
{
name = top;
position = "{1204, 1350}";
}
);
layerId = "E5A4176B-9C10-4B01-BBC9-D7999ECBFAF8";
paths = (
{
closed = 1;
nodes = (
"1406 -8 OFFCURVE",
"1988 210 OFFCURVE",
"2024 470 QCURVE SMOOTH",
"2046 630 OFFCURVE",
"1760 806 OFFCURVE",
"1290 840 QCURVE SMOOTH",
"1048 858 OFFCURVE",
"668 886 OFFCURVE",
"674 926 QCURVE SMOOTH",
"680 962 OFFCURVE",
"956 994 OFFCURVE",
"1132 994 QCURVE SMOOTH",
"1286 994 OFFCURVE",
"1542 944 OFFCURVE",
"1530 874 QCURVE",
"2096 874 LINE",
"2140 1126 OFFCURVE",
"1626 1362 OFFCURVE",
"1196 1362 QCURVE SMOOTH",
"768 1362 OFFCURVE",
"134 1142 OFFCURVE",
"134 896 QCURVE SMOOTH",
"134 754 OFFCURVE",
"412 534 OFFCURVE",
"846 508 QCURVE SMOOTH",
"1106 492 OFFCURVE",
"1478 468 OFFCURVE",
"1470 426 QCURVE SMOOTH",
"1464 390 OFFCURVE",
"1198 352 OFFCURVE",
"1032 352 QCURVE SMOOTH",
"864 352 OFFCURVE",
"614 410 OFFCURVE",
"626 482 QCURVE",
"60 482 LINE",
"14 226 OFFCURVE",
"518 -8 OFFCURVE",
"974 -8 QCURVE SMOOTH"
);
}
);
width = 2198;
}
);
leftKerningGroup = S;
note = S;
rightKerningGroup = S;
unicode = 0053;
},
{
glyphname = Germandbls;
layers = (
{
anchors = (
{
name = bottom;
position = "{114, 0}";
},
{
name = top;
position = "{114, 1350}";
}
);
layerId = "A1A0948C-E637-4A65-8CCC-05505AD98C44";
paths = (
{
closed = 1;
nodes = (
"58 0 LINE",
"58 1330 LINE",
"160 1330 LINE",
"84 782 LINE",
"84 762 LINE",
"136 680 OFFCURVE",
"160 542 OFFCURVE",
"160 334 CURVE SMOOTH",
"160 106 OFFCURVE",
"132 22 OFFCURVE",
"84 22 CURVE",
"84 0 LINE",
"144 0 OFFCURVE",
"182 86 OFFCURVE",
"182 338 CURVE SMOOTH",
"182 536 OFFCURVE",
"154 698 OFFCURVE",
"104 776 CURVE",
"182 1330 LINE",
"182 1350 LINE",
"36 1350 LINE",
"36 0 LINE"
);
}
);
width = 220;
},
{
anchors = (
{
name = bottom;
position = "{399, 0}";
},
{
name = top;
position = "{399, 1350}";
}
);
layerId = "BA0CA162-2A9B-49EE-921D-3B4346C7D39F";
paths = (
{
closed = 1;
nodes = (
"362 0 LINE",
"362 1126 LINE",
"436 1126 LINE",
"388 830 LINE",
"388 606 LINE",
"406 590 OFFCURVE",
"430 526 OFFCURVE",
"430 412 CURVE SMOOTH",
"430 266 OFFCURVE",
"404 224 OFFCURVE",
"388 224 CURVE",
"388 0 LINE",
"746 0 OFFCURVE",
"786 104 OFFCURVE",
"786 418 CURVE SMOOTH",
"786 616 OFFCURVE",
"772 698 OFFCURVE",
"694 756 CURVE",
"782 1148 LINE",
"782 1350 LINE",
"12 1350 LINE",
"12 0 LINE"
);
}
);
width = 798;
},
{
anchors = (
{
name = bottom;
position = "{1023, 0}";
},
{
name = top;
position = "{1023, 1350}";
}
);
layerId = "C75D3228-2D13-4E9D-9829-45195F4951D0";
paths = (
{
closed = 1;
nodes = (
"700 0 LINE",
"700 966 LINE",
"1116 966 LINE",
"888 850 LINE",
"888 566 LINE",
"1108 566 OFFCURVE",
"1332 564 OFFCURVE",
"1332 452 CURVE SMOOTH",
"1332 346 OFFCURVE",
"1234 344 OFFCURVE",
"888 344 CURVE",
"888 0 LINE",
"1738 0 OFFCURVE",
"1906 106 OFFCURVE",
"1906 418 CURVE SMOOTH",
"1906 656 OFFCURVE",
"1712 756 OFFCURVE",
"1362 756 CURVE",
"1786 988 LINE",
"1786 1350 LINE",
"140 1350 LINE",
"140 0 LINE"
);
}
);
width = 2041;
},
{
anchors = (
{
name = bottom;
position = "{765, 0}";
},
{
name = top;
position = "{765, 1350}";
}
);
layerId = "71977205-6510-4B11-BB00-17BACA883C8F";
paths = (
{
closed = 1;
nodes = (
"148 0 LINE",
"148 1330 LINE",
"1212 1330 LINE",
"428 786 LINE",
"428 762 LINE",
"1128 762 OFFCURVE",
"1302 682 OFFCURVE",
"1302 376 CURVE SMOOTH",
"1302 102 OFFCURVE",
"1108 -18 OFFCURVE",
"428 22 CURVE",
"428 0 LINE",
"1120 -40 OFFCURVE",
"1324 86 OFFCURVE",
"1324 378 CURVE SMOOTH",
"1324 696 OFFCURVE",
"1138 780 OFFCURVE",
"456 780 CURVE",
"1246 1330 LINE",
"1246 1350 LINE",
"126 1350 LINE",
"126 0 LINE"
);
}
);
width = 1516;
},
{
anchors = (
{
name = bottom;
position = "{27, 0}";
},
{
name = top;
position = "{266, 1350}";
}
);
layerId = "4F53612F-C4F8-4368-83AD-8913BEEF8F1D";
paths = (
{
closed = 1;
nodes = (
"-38 0 LINE",
"198 1330 LINE",
"300 1330 LINE",
"126 782 LINE",
"124 762 LINE",
"160 680 OFFCURVE",
"160 542 OFFCURVE",
"124 334 CURVE SMOOTH",
"84 106 OFFCURVE",
"40 22 OFFCURVE",
"-8 22 CURVE",
"-12 0 LINE",
"48 0 OFFCURVE",
"102 86 OFFCURVE",
"146 338 CURVE SMOOTH",
"180 536 OFFCURVE",
"182 698 OFFCURVE",
"146 776 CURVE",
"322 1330 LINE",
"326 1350 LINE",
"180 1350 LINE",
"-60 0 LINE"
);
}
);
width = 221;
},
{
anchors = (
{
name = bottom;
position = "{301, 0}";
},
{
name = top;
position = "{540, 1350}";
}
);
layerId = "55C4185A-9C39-4468-B19C-DE0A3E571700";
paths = (
{
closed = 1;
nodes = (
"259 0 LINE",
"459 1126 LINE",
"533 1126 LINE",
"433 830 LINE",
"393 606 LINE",
"409 590 OFFCURVE",
"421 526 OFFCURVE",
"401 412 CURVE SMOOTH",
"375 266 OFFCURVE",
"341 224 OFFCURVE",
"325 224 CURVE",
"285 0 LINE",
"643 0 OFFCURVE",
"703 104 OFFCURVE",
"757 418 CURVE SMOOTH",
"791 616 OFFCURVE",
"793 698 OFFCURVE",
"725 756 CURVE",
"883 1148 LINE",
"919 1350 LINE",
"149 1350 LINE",
"-91 0 LINE"
);
}
);
width = 794;
},
{
anchors = (
{
name = bottom;
position = "{929, 0}";
},
{
name = top;
position = "{1168, 1350}";
}
);
layerId = "E5A4176B-9C10-4B01-BBC9-D7999ECBFAF8";
paths = (
{
closed = 1;
nodes = (
"601 0 LINE",
"773 966 LINE",
"1189 966 LINE",
"939 850 LINE",
"889 566 LINE",
"1109 566 OFFCURVE",
"1333 564 OFFCURVE",
"1313 452 CURVE SMOOTH",
"1295 346 OFFCURVE",
"1197 344 OFFCURVE",
"851 344 CURVE",
"789 0 LINE",
"1639 0 OFFCURVE",
"1825 106 OFFCURVE",
"1881 418 CURVE SMOOTH",
"1923 656 OFFCURVE",
"1747 756 OFFCURVE",
"1397 756 CURVE",
"1863 988 LINE",
"1927 1350 LINE",
"281 1350 LINE",
"41 0 LINE"
);
}
);
width = 2064;
},
{
anchors = (
{
name = bottom;
position = "{629, 0}";
},
{
name = top;
position = "{868, 1350}";
}
);
layerId = "5997A0D0-E78E-41EC-9011-DECBEAD8517D";
paths = (
{
closed = 1;
nodes = (
"9 0 LINE",
"243 1330 LINE",
"1303 1330 LINE",
"427 786 LINE",
"423 762 LINE",
"1123 762 OFFCURVE",
"1259 686 OFFCURVE",
"1227 376 CURVE SMOOTH",
"1199 102 OFFCURVE",
"965 -18 OFFCURVE",
"293 22 CURVE",
"289 0 LINE",
"973 -40 OFFCURVE",
"1221 86 OFFCURVE",
"1251 378 CURVE SMOOTH",
"1283 698 OFFCURVE",
"1139 780 OFFCURVE",
"457 780 CURVE",
"1341 1330 LINE",
"1345 1350 LINE",
"225 1350 LINE",
"-13 0 LINE"
);
}
);
width = 1497;
}
);
leftKerningGroup = H;
leftMetricsKey = H;
rightKerningGroup = S;
rightMetricsKey = S;
unicode = 1E9E;
},
{
glyphname = T;
layers = (
{
anchors = (
{
name = bottom;
position = "{79, 0}";
},
{
name = center;
position = "{79, 675}";
},
{
name = top;
position = "{79, 1350}";
}
);
layerId = "A1A0948C-E637-4A65-8CCC-05505AD98C44";
paths = (
{
closed = 1;
nodes = (
"84 0 LINE",
"84 1328 LINE",
"132 1328 LINE",
"132 1350 LINE",
"16 1350 LINE",
"16 1328 LINE",
"62 1328 LINE",
"62 0 LINE"
);
}
);
width = 158;
},
{
anchors = (
{
name = bottom;
position = "{310, 0}";
},
{
name = center;
position = "{310, 675}";
},
{
name = top;
position = "{310, 1350}";
}
);
layerId = "BA0CA162-2A9B-49EE-921D-3B4346C7D39F";
paths = (
{
closed = 1;
nodes = (
"484 0 LINE",
"484 1126 LINE",
"608 1126 LINE",
"608 1350 LINE",
"12 1350 LINE",
"12 1126 LINE",
"136 1126 LINE",
"136 0 LINE"
);
}
);
width = 620;
},
{
anchors = (
{
name = bottom;
position = "{1069, 0}";
},
{
name = center;
position = "{1069, 675}";
},
{
name = top;
position = "{1069, 1350}";
}
);
layerId = "C75D3228-2D13-4E9D-9829-45195F4951D0";
paths = (
{
closed = 1;
nodes = (
"1352 0 LINE",
"1352 988 LINE",
"2010 988 LINE",
"2010 1350 LINE",
"126 1350 LINE",
"126 988 LINE",
"786 988 LINE",
"786 0 LINE"
);
}
);
width = 2137;
},
{
anchors = (
{
name = bottom;
position = "{864, 0}";
},
{
name = center;
position = "{864, 675}";
},
{
name = top;
position = "{864, 1350}";
}
);
layerId = "71977205-6510-4B11-BB00-17BACA883C8F";
paths = (
{
closed = 1;
nodes = (
"830 0 LINE",
"830 1328 LINE",
"1540 1328 LINE",
"1540 1350 LINE",
"94 1350 LINE",
"94 1328 LINE",
"808 1328 LINE",
"808 0 LINE"
);
}
);
width = 1728;
},
{
anchors = (
{
name = bottom;
position = "{768.489, 0}";
},
{
name = center;
position = "{887.509, 675}";
},
{
name = top;
position = "{1006.53, 1350}";
}
);
layerId = "5997A0D0-E78E-41EC-9011-DECBEAD8517D";
paths = (
{
closed = 1;
nodes = (
"728 0 LINE",
"964 1328 LINE",
"1674 1328 LINE",
"1678 1350 LINE",
"232 1350 LINE",
"228 1328 LINE",
"942 1328 LINE",
"706 0 LINE"
);
}
);
width = 1726;
},
{
anchors = (
{
name = bottom;
position = "{212.489, 0}";
},
{
name = center;
position = "{331.509, 675}";
},
{
name = top;
position = "{450.53, 1350}";
}
);
layerId = "55C4185A-9C39-4468-B19C-DE0A3E571700";
paths = (
{
closed = 1;
nodes = (
"382 0 LINE",
"580 1126 LINE",
"702 1126 LINE",
"742 1350 LINE",
"148 1350 LINE",
"108 1126 LINE",
"232 1126 LINE",
"32 0 LINE"
);
}
);
width = 614;
},
{
anchors = (
{
name = bottom;
position = "{-15.511, 0}";
},
{
name = center;
position = "{103.509, 675}";
},
{
name = top;
position = "{222.53, 1350}";
}
);
layerId = "4F53612F-C4F8-4368-83AD-8913BEEF8F1D";
paths = (
{
closed = 1;
nodes = (
"-8 0 LINE",
"226 1328 LINE",
"272 1328 LINE",
"276 1350 LINE",
"160 1350 LINE",
"158 1328 LINE",
"204 1328 LINE",
"-30 0 LINE"
);
}
);
width = 158;
},
{
anchors = (
{
name = bottom;
position = "{959.489, 0}";
},
{
name = center;
position = "{1078.509, 675}";
},
{
name = top;
position = "{1197.53, 1350}";
}
);
layerId = "E5A4176B-9C10-4B01-BBC9-D7999ECBFAF8";
paths = (
{
closed = 1;
nodes = (
"1232 0 LINE",
"1406 988 LINE",
"2064 988 LINE",
"2128 1350 LINE",
"244 1350 LINE",
"180 988 LINE",
"840 988 LINE",
"666 0 LINE"
);
}
);
width = 2108;
}
);
leftKerningGroup = T;
note = T;
rightKerningGroup = T;
unicode = 0054;
},
{
glyphname = Tbar;
layers = (
{
components = (
{
name = T;
}
);
layerId = "A1A0948C-E637-4A65-8CCC-05505AD98C44";
paths = (
{
closed = 1;
nodes = (
"130 966 LINE",
"130 988 LINE",
"20 988 LINE",
"20 966 LINE"
);
}
);
width = 158;
},
{
components = (
{
name = T;
}
);
layerId = "BA0CA162-2A9B-49EE-921D-3B4346C7D39F";
paths = (
{
closed = 1;
nodes = (
"580 696 LINE",
"580 920 LINE",
"30 920 LINE",
"30 696 LINE"
);
}
);
width = 620;
},
{
components = (
{
name = T;
}
);
layerId = "C75D3228-2D13-4E9D-9829-45195F4951D0";
paths = (
{
closed = 1;
nodes = (
"1870 500 LINE",
"1870 804 LINE",
"302 804 LINE",
"302 500 LINE"
);
}
);
width = 2137;
},
{
components = (
{
name = T;
}
);
layerId = "71977205-6510-4B11-BB00-17BACA883C8F";
paths = (
{
closed = 1;
nodes = (
"1432 828 LINE",
"1432 850 LINE",
"210 850 LINE",
"210 828 LINE"
);
}
);
width = 1728;
},
{
components = (
{
name = T;
}
);
layerId = "5997A0D0-E78E-41EC-9011-DECBEAD8517D";
paths = (
{
closed = 1;
nodes = (
"1474 828 LINE",
"1478 850 LINE",
"256 850 LINE",
"252 828 LINE"
);
}
);
width = 1726;
},
{
components = (
{
name = T;
}
);
layerId = "55C4185A-9C39-4468-B19C-DE0A3E571700";
paths = (
{
closed = 1;
nodes = (
"602 696 LINE",
"644 920 LINE",
"96 920 LINE",
"52 696 LINE"
);
}
);
width = 614;
},
{
components = (
{
name = T;
}
);
layerId = "4F53612F-C4F8-4368-83AD-8913BEEF8F1D";
paths = (
{
closed = 1;
nodes = (
"208 966 LINE",
"212 988 LINE",
"102 988 LINE",
"98 966 LINE"
);
}
);
width = 158;
},
{
components = (
{
name = T;
}
);
layerId = "E5A4176B-9C10-4B01-BBC9-D7999ECBFAF8";
paths = (
{
closed = 1;
nodes = (
"1844 500 LINE",
"1896 804 LINE",
"328 804 LINE",
"276 500 LINE"
);
}
);
width = 2108;
}
);
leftKerningGroup = T;
leftMetricsKey = T;
rightKerningGroup = T;
rightMetricsKey = T;
unicode = 0166;
},
{
glyphname = U;
layers = (
{
anchors = (
{
name = bottom;
position = "{95, 0}";
},
{
name = ogonek;
position = "{97, 0}";
},
{
name = top;
position = "{95, 1350}";
},
{
name = topright;
position = "{170, 1350}";
}
);
layerId = "A1A0948C-E637-4A65-8CCC-05505AD98C44";
paths = (
{
closed = 1;
nodes = (
"120 -12 OFFCURVE",
"148 52 OFFCURVE",
"148 156 QCURVE SMOOTH",
"148 1350 LINE",
"126 1350 LINE",
"126 160 LINE SMOOTH",
"126 60 OFFCURVE",
"108 10 OFFCURVE",
"90 10 QCURVE SMOOTH",
"72 10 OFFCURVE",
"54 60 OFFCURVE",
"54 160 QCURVE SMOOTH",
"54 1350 LINE",
"32 1350 LINE",
"32 156 LINE SMOOTH",
"32 52 OFFCURVE",
"60 -12 OFFCURVE",
"90 -12 QCURVE SMOOTH"
);
}
);
width = 190;
},
{
anchors = (
{
name = bottom;
position = "{372, 0}";
},
{
name = ogonek;
position = "{377, 0}";
},
{
name = top;
position = "{372, 1350}";
},
{
name = topright;
position = "{724, 1350}";
}
);
layerId = "BA0CA162-2A9B-49EE-921D-3B4346C7D39F";
paths = (
{
closed = 1;
nodes = (
"570 -8 OFFCURVE",
"732 120 OFFCURVE",
"732 264 QCURVE SMOOTH",
"732 1350 LINE",
"384 1350 LINE",
"384 282 LINE SMOOTH",
"384 250 OFFCURVE",
"382 216 OFFCURVE",
"372 216 QCURVE SMOOTH",
"362 216 OFFCURVE",
"360 250 OFFCURVE",
"360 282 QCURVE SMOOTH",
"360 1350 LINE",
"12 1350 LINE",
"12 264 LINE SMOOTH",
"12 120 OFFCURVE",
"174 -8 OFFCURVE",
"372 -8 QCURVE SMOOTH"
);
}
);
width = 744;
},
{
anchors = (
{
name = bottom;
position = "{1137, 0}";
},
{
name = ogonek;
position = "{1122, 0}";
},
{
name = top;
position = "{1137, 1350}";
},
{
name = topright;
position = "{2253, 1350}";
}
);
layerId = "C75D3228-2D13-4E9D-9829-45195F4951D0";
paths = (
{
closed = 1;
nodes = (
"1614 -8 OFFCURVE",
"2114 306 OFFCURVE",
"2114 682 QCURVE SMOOTH",
"2114 1350 LINE",
"1548 1350 LINE",
"1548 726 LINE SMOOTH",
"1548 516 OFFCURVE",
"1374 354 OFFCURVE",
"1122 354 QCURVE SMOOTH",
"870 354 OFFCURVE",
"696 518 OFFCURVE",
"696 726 QCURVE SMOOTH",
"696 1350 LINE",
"130 1350 LINE",
"130 682 LINE SMOOTH",
"130 306 OFFCURVE",
"630 -8 OFFCURVE",
"1122 -8 QCURVE SMOOTH"
);
}
);
width = 2273;
},
{
anchors = (
{
name = bottom;
position = "{880, 0}";
},
{
name = ogonek;
position = "{878, 0}";
},
{
name = top;
position = "{880, 1350}";
},
{
name = topright;
position = "{1804, 1350}";
}
);
layerId = "71977205-6510-4B11-BB00-17BACA883C8F";
paths = (
{
closed = 1;
nodes = (
"1204 -8 OFFCURVE",
"1574 258 OFFCURVE",
"1574 552 QCURVE SMOOTH",
"1574 1348 LINE",
"1552 1348 LINE",
"1552 566 LINE SMOOTH",
"1552 276 OFFCURVE",
"1202 14 OFFCURVE",
"878 14 QCURVE SMOOTH",
"554 14 OFFCURVE",
"204 276 OFFCURVE",
"204 566 QCURVE SMOOTH",
"204 1348 LINE",
"182 1348 LINE",
"182 552 LINE SMOOTH",
"182 258 OFFCURVE",
"552 -8 OFFCURVE",
"878 -8 QCURVE SMOOTH"
);
}
);
width = 1824;
},
{
anchors = (
{
name = bottom;
position = "{817.489, 0}";
},
{
name = ogonek;
position = "{784, 0}";
},
{
name = top;
position = "{1026, 1350}";
},
{
name = topright;
position = "{1947.53, 1350}";
}
);
layerId = "5997A0D0-E78E-41EC-9011-DECBEAD8517D";
paths = (
{
closed = 1;
nodes = (
"1064 -8 OFFCURVE",
"1482 258 OFFCURVE",
"1534 552 QCURVE SMOOTH",
"1674 1348 LINE",
"1652 1348 LINE",
"1514 566 LINE SMOOTH",
"1462 276 OFFCURVE",
"1062 14 OFFCURVE",
"738 14 QCURVE SMOOTH",
"414 14 OFFCURVE",
"114 276 OFFCURVE",
"166 566 QCURVE SMOOTH",
"304 1348 LINE",
"282 1348 LINE",
"142 552 LINE SMOOTH",
"90 258 OFFCURVE",
"412 -8 OFFCURVE",
"738 -8 QCURVE SMOOTH"
);
}
);
width = 1824;
},
{
anchors = (
{
name = bottom;
position = "{276.489, 0}";
},
{
name = ogonek;
position = "{287, 0}";
},
{
name = top;
position = "{514.53, 1350}";
},
{
name = topright;
position = "{865.53, 1350}";
}
);
layerId = "55C4185A-9C39-4468-B19C-DE0A3E571700";
paths = (
{
closed = 1;
nodes = (
"468 -8 OFFCURVE",
"652 120 OFFCURVE",
"678 264 QCURVE SMOOTH",
"870 1350 LINE",
"522 1350 LINE",
"334 282 LINE SMOOTH",
"328 250 OFFCURVE",
"320 216 OFFCURVE",
"310 216 QCURVE SMOOTH",
"300 216 OFFCURVE",
"304 250 OFFCURVE",
"310 282 QCURVE SMOOTH",
"498 1350 LINE",
"150 1350 LINE",
"-44 264 LINE SMOOTH",
"-70 120 OFFCURVE",
"72 -8 OFFCURVE",
"270 -8 QCURVE SMOOTH"
);
}
);
width = 742;
},
{
anchors = (
{
name = bottom;
position = "{-10, 0}";
},
{
name = ogonek;
position = "{1, 0}";
},
{
name = top;
position = "{236, 1350}";
},
{
name = topright;
position = "{313.53, 1350}";
}
);
layerId = "4F53612F-C4F8-4368-83AD-8913BEEF8F1D";
paths = (
{
closed = 1;
nodes = (
"22 -12 OFFCURVE",
"62 52 OFFCURVE",
"80 156 QCURVE SMOOTH",
"290 1350 LINE",
"268 1350 LINE",
"58 160 LINE SMOOTH",
"40 60 OFFCURVE",
"14 10 OFFCURVE",
"-6 10 QCURVE SMOOTH",
"-24 10 OFFCURVE",
"-34 60 OFFCURVE",
"-16 160 QCURVE SMOOTH",
"196 1350 LINE",
"174 1350 LINE",
"-38 156 LINE SMOOTH",
"-56 52 OFFCURVE",
"-40 -12 OFFCURVE",
"-10 -12 QCURVE SMOOTH"
);
}
);
width = 190;
},
{
anchors = (
{
name = bottom;
position = "{1042.489, 0}";
},
{
name = ogonek;
position = "{1022, 0}";
},
{
name = top;
position = "{1280.53, 1350}";
},
{
name = topright;
position = "{2396.53, 1350}";
}
);
layerId = "E5A4176B-9C10-4B01-BBC9-D7999ECBFAF8";
paths = (
{
closed = 1;
nodes = (
"1502 -8 OFFCURVE",
"2058 306 OFFCURVE",
"2124 682 QCURVE SMOOTH",
"2242 1350 LINE",
"1676 1350 LINE",
"1566 726 LINE SMOOTH",
"1528 516 OFFCURVE",
"1326 354 OFFCURVE",
"1074 354 QCURVE SMOOTH",
"822 354 OFFCURVE",
"678 518 OFFCURVE",
"714 726 QCURVE SMOOTH",
"824 1350 LINE",
"258 1350 LINE",
"140 682 LINE SMOOTH",
"74 306 OFFCURVE",
"518 -8 OFFCURVE",
"1010 -8 QCURVE SMOOTH"
);
}
);
width = 2273;
}
);
leftKerningGroup = U;
note = U;
rightKerningGroup = U;
unicode = 0055;
},
{
glyphname = V;
layers = (
{
anchors = (
{
name = bottom;
position = "{102, 0}";
},
{
name = top;
position = "{102, 1350}";
}
);
layerId = "A1A0948C-E637-4A65-8CCC-05505AD98C44";
paths = (
{
closed = 1;
nodes = (
"116 0 LINE",
"166 1350 LINE",
"144 1350 LINE",
"98 22 LINE",
"90 22 LINE",
"44 1350 LINE",
"22 1350 LINE",
"72 0 LINE"
);
}
);
width = 204;
},
{
anchors = (
{
name = bottom;
position = "{388, 0}";
},
{
name = top;
position = "{388, 1350}";
}
);
layerId = "BA0CA162-2A9B-49EE-921D-3B4346C7D39F";
paths = (
{
closed = 1;
nodes = (
"664 0 LINE",
"764 1350 LINE",
"410 1350 LINE",
"390 220 LINE",
"386 220 LINE",
"368 1350 LINE",
"12 1350 LINE",
"112 0 LINE"
);
}
);
width = 776;
},
{
anchors = (
{
name = bottom;
position = "{1116, 0}";
},
{
name = top;
position = "{1116, 1350}";
}
);
layerId = "C75D3228-2D13-4E9D-9829-45195F4951D0";
paths = (
{
closed = 1;
nodes = (
"1526 0 LINE",
"2140 1350 LINE",
"1568 1350 LINE",
"1100 270 LINE",
"1124 270 LINE",
"652 1350 LINE",
"80 1350 LINE",
"696 0 LINE"
);
}
);
width = 2232;
},
{
anchors = (
{
name = bottom;
position = "{854, 0}";
},
{
name = top;
position = "{854, 1350}";
}
);
layerId = "71977205-6510-4B11-BB00-17BACA883C8F";
paths = (
{
closed = 1;
nodes = (
"842 0 LINE",
"1552 1350 LINE",
"1526 1350 LINE",
"822 12 LINE",
"824 12 LINE",
"122 1350 LINE",
"96 1350 LINE",
"802 0 LINE"
);
}
);
width = 1708;
},
{
anchors = (
{
name = bottom;
position = "{759.489, 0}";
},
{
name = top;
position = "{997.53, 1350}";
}
);
layerId = "5997A0D0-E78E-41EC-9011-DECBEAD8517D";
paths = (
{
closed = 1;
nodes = (
"726 0 LINE",
"1672 1350 LINE",
"1642 1350 LINE",
"704 12 LINE",
"706 12 LINE",
"238 1350 LINE",
"214 1350 LINE",
"684 0 LINE"
);
}
);
width = 1708;
},
{
anchors = (
{
name = bottom;
position = "{291.489, 0}";
},
{
name = top;
position = "{529.53, 1350}";
}
);
layerId = "55C4185A-9C39-4468-B19C-DE0A3E571700";
paths = (
{
closed = 1;
nodes = (
"562 0 LINE",
"900 1350 LINE",
"544 1350 LINE",
"326 220 LINE",
"322 220 LINE",
"502 1350 LINE",
"148 1350 LINE",
"10 0 LINE"
);
}
);
width = 772;
},
{
anchors = (
{
name = bottom;
position = "{7.489, 0}";
},
{
name = top;
position = "{245.53, 1350}";
}
);
layerId = "4F53612F-C4F8-4368-83AD-8913BEEF8F1D";
paths = (
{
closed = 1;
nodes = (
"24 0 LINE",
"314 1350 LINE",
"292 1350 LINE",
"10 22 LINE",
"2 22 LINE",
"192 1350 LINE",
"170 1350 LINE",
"-20 0 LINE"
);
}
);
width = 204;
},
{
anchors = (
{
name = bottom;
position = "{1021.489, 0}";
},
{
name = top;
position = "{1259.53, 1350}";
}
);
layerId = "E5A4176B-9C10-4B01-BBC9-D7999ECBFAF8";
paths = (
{
closed = 1;
nodes = (
"1396 0 LINE",
"2248 1350 LINE",
"1668 1350 LINE",
"1008 270 LINE",
"1032 270 LINE",
"752 1350 LINE",
"186 1350 LINE",
"564 0 LINE"
);
}
);
width = 2232;
}
);
leftKerningGroup = V;
note = V;
rightKerningGroup = V;
unicode = 0056;
},
{
glyphname = W;
layers = (
{
anchors = (
{
name = bottom;
position = "{163, 0}";
},
{
name = top;
position = "{163, 1350}";
}
);
layerId = "A1A0948C-E637-4A65-8CCC-05505AD98C44";
paths = (
{
closed = 1;
nodes = (
"108 0 LINE",
"156 1328 LINE",
"160 1328 LINE",
"206 0 LINE",
"250 0 LINE",
"288 1350 LINE",
"266 1350 LINE",
"230 20 LINE",
"226 20 LINE",
"180 1350 LINE",
"136 1350 LINE",
"88 20 LINE",
"84 20 LINE",
"50 1350 LINE",
"28 1350 LINE",
"64 0 LINE"
);
}
);
width = 326;
},
{
anchors = (
{
name = bottom;
position = "{593, 0}";
},
{
name = top;
position = "{593, 1350}";
}
);
layerId = "BA0CA162-2A9B-49EE-921D-3B4346C7D39F";
paths = (
{
closed = 1;
nodes = (
"564 0 LINE",
"592 1126 LINE",
"596 1126 LINE",
"622 0 LINE",
"1108 0 LINE",
"1174 1350 LINE",
"816 1350 LINE",
"816 224 LINE",
"812 224 LINE",
"752 1350 LINE",
"434 1350 LINE",
"374 224 LINE",
"370 224 LINE",
"370 1350 LINE",
"12 1350 LINE",
"78 0 LINE"
);
}
);
width = 1186;
},
{
anchors = (
{
name = bottom;
position = "{1590, 0}";
},
{
name = top;
position = "{1590, 1350}";
}
);
layerId = "C75D3228-2D13-4E9D-9829-45195F4951D0";
paths = (
{
closed = 1;
nodes = (
"1326 0 LINE",
"1606 1070 LINE",
"1528 1070 LINE",
"1804 0 LINE",
"2670 0 LINE",
"3080 1350 LINE",
"2454 1350 LINE",
"2186 324 LINE",
"2226 324 LINE",
"1922 1350 LINE",
"1212 1350 LINE",
"908 324 LINE",
"948 324 LINE",
"678 1350 LINE",
"52 1350 LINE",
"464 0 LINE"
);
}
);
width = 3180;
},
{
anchors = (
{
name = bottom;
position = "{1217, 0}";
},
{
name = top;
position = "{1217, 1350}";
}
);
layerId = "71977205-6510-4B11-BB00-17BACA883C8F";
paths = (
{
closed = 1;
nodes = (
"620 0 LINE",
"1198 1324 LINE",
"1192 1324 LINE",
"1772 0 LINE",
"1796 0 LINE",
"2274 1350 LINE",
"2248 1350 LINE",
"1782 34 LINE",
"1784 34 LINE",
"1208 1350 LINE",
"1182 1350 LINE",
"608 34 LINE",
"610 34 LINE",
"142 1350 LINE",
"116 1350 LINE",
"594 0 LINE"
);
}
);
width = 2434;
},
{
anchors = (
{
name = bottom;
position = "{1122.489, 0}";
},
{
name = top;
position = "{1360.53, 1350}";
}
);
layerId = "5997A0D0-E78E-41EC-9011-DECBEAD8517D";
paths = (
{
closed = 1;
nodes = (
"494 0 LINE",
"1306 1324 LINE",
"1300 1324 LINE",
"1646 0 LINE",
"1670 0 LINE",
"2388 1350 LINE",
"2360 1350 LINE",
"1660 34 LINE",
"1664 34 LINE",
"1322 1350 LINE",
"1294 1350 LINE",
"486 34 LINE",
"490 34 LINE",
"256 1350 LINE",
"230 1350 LINE",
"468 0 LINE"
);
}
);
width = 2434;
},
{
anchors = (
{
name = bottom;
position = "{495.489, 0}";
},
{
name = top;
position = "{733.53, 1350}";
}
);
layerId = "55C4185A-9C39-4468-B19C-DE0A3E571700";
paths = (
{
closed = 1;
nodes = (
"460 0 LINE",
"688 1126 LINE",
"692 1126 LINE",
"518 0 LINE",
"1004 0 LINE",
"1310 1350 LINE",
"952 1350 LINE",
"752 224 LINE",
"748 224 LINE",
"888 1350 LINE",
"570 1350 LINE",
"310 224 LINE",
"306 224 LINE",
"506 1350 LINE",
"148 1350 LINE",
"-26 0 LINE"
);
}
);
width = 1180;
},
{
anchors = (
{
name = bottom;
position = "{69.489, 0}";
},
{
name = top;
position = "{307.53, 1350}";
}
);
layerId = "4F53612F-C4F8-4368-83AD-8913BEEF8F1D";
paths = (
{
closed = 1;
nodes = (
"12 0 LINE",
"296 1328 LINE",
"300 1328 LINE",
"110 0 LINE",
"154 0 LINE",
"432 1350 LINE",
"410 1350 LINE",
"138 20 LINE",
"134 20 LINE",
"324 1350 LINE",
"278 1350 LINE",
"-4 20 LINE",
"-8 20 LINE",
"194 1350 LINE",
"172 1350 LINE",
"-32 0 LINE"
);
}
);
width = 328;
},
{
anchors = (
{
name = bottom;
position = "{1494.489, 0}";
},
{
name = top;
position = "{1732.53, 1350}";
}
);
layerId = "E5A4176B-9C10-4B01-BBC9-D7999ECBFAF8";
paths = (
{
closed = 1;
nodes = (
"1216 0 LINE",
"1684 1070 LINE",
"1604 1070 LINE",
"1694 0 LINE",
"2558 0 LINE",
"3208 1350 LINE",
"2574 1350 LINE",
"2124 324 LINE",
"2162 324 LINE",
"2040 1350 LINE",
"1328 1350 LINE",
"844 324 LINE",
"886 324 LINE",
"798 1350 LINE",
"180 1350 LINE",
"354 0 LINE"
);
}
);
width = 3178;
}
);
leftKerningGroup = W;
note = W;
rightKerningGroup = W;
unicode = 0057;
},
{
glyphname = X;
layers = (
{
anchors = (
{
name = bottom;
position = "{95, 0}";
},
{
name = top;
position = "{95, 1350}";
}
);
layerId = "A1A0948C-E637-4A65-8CCC-05505AD98C44";
paths = (
{
closed = 1;
nodes = (
"38 0 LINE",
"90 654 LINE",
"142 0 LINE",
"164 0 LINE",
"110 668 LINE",
"162 1350 LINE",
"140 1350 LINE",
"90 682 LINE",
"42 1350 LINE",
"20 1350 LINE",
"70 668 LINE",
"16 0 LINE"
);
}
);
width = 190;
},
{
anchors = (
{
name = bottom;
position = "{412, 0}";
},
{
name = top;
position = "{412, 1350}";
}
);
layerId = "BA0CA162-2A9B-49EE-921D-3B4346C7D39F";
paths = (
{
closed = 1;
nodes = (
"376 0 LINE",
"412 522 LINE",
"448 0 LINE",
"812 0 LINE",
"712 668 LINE",
"806 1350 LINE",
"442 1350 LINE",
"412 814 LINE",
"382 1350 LINE",
"18 1350 LINE",
"112 668 LINE",
"12 0 LINE"
);
}
);
width = 824;
},
{
anchors = (
{
name = bottom;
position = "{1102, 0}";
},
{
name = top;
position = "{1102, 1350}";
}
);
layerId = "C75D3228-2D13-4E9D-9829-45195F4951D0";
paths = (
{
closed = 1;
nodes = (
"684 0 LINE",
"1102 430 LINE",
"1522 0 LINE",
"2204 0 LINE",
"1478 668 LINE",
"2184 1350 LINE",
"1502 1350 LINE",
"1102 906 LINE",
"704 1350 LINE",
"20 1350 LINE",
"722 668 LINE",
"0 0 LINE"
);
}
);
width = 2204;
},
{
anchors = (
{
name = bottom;
position = "{842, 0}";
},
{
name = top;
position = "{842, 1350}";
}
);
layerId = "71977205-6510-4B11-BB00-17BACA883C8F";
paths = (
{
closed = 1;
nodes = (
"116 0 LINE",
"802 660 LINE",
"1488 0 LINE",
"1522 0 LINE",
"824 668 LINE",
"1502 1350 LINE",
"1468 1350 LINE",
"802 676 LINE",
"136 1350 LINE",
"102 1350 LINE",
"780 668 LINE",
"82 0 LINE"
);
}
);
width = 1684;
},
{
anchors = (
{
name = bottom;
position = "{747.489, 0}";
},
{
name = top;
position = "{985.53, 1350}";
}
);
layerId = "5997A0D0-E78E-41EC-9011-DECBEAD8517D";
paths = (
{
closed = 1;
nodes = (
"30 0 LINE",
"832 660 LINE",
"1402 0 LINE",
"1432 0 LINE",
"852 668 LINE",
"1654 1350 LINE",
"1616 1350 LINE",
"832 676 LINE",
"284 1350 LINE",
"254 1350 LINE",
"810 668 LINE",
"-8 0 LINE"
);
}
);
width = 1684;
},
{
anchors = (
{
name = bottom;
position = "{315.489, 0}";
},
{
name = top;
position = "{553.53, 1350}";
}
);
layerId = "55C4185A-9C39-4468-B19C-DE0A3E571700";
paths = (
{
closed = 1;
nodes = (
"274 0 LINE",
"404 522 LINE",
"346 0 LINE",
"710 0 LINE",
"728 668 LINE",
"944 1350 LINE",
"580 1350 LINE",
"454 814 LINE",
"520 1350 LINE",
"156 1350 LINE",
"128 668 LINE",
"-90 0 LINE"
);
}
);
width = 820;
},
{
anchors = (
{
name = bottom;
position = "{1.489, 0}";
},
{
name = top;
position = "{239.53, 1350}";
}
);
layerId = "4F53612F-C4F8-4368-83AD-8913BEEF8F1D";
paths = (
{
closed = 1;
nodes = (
"-54 0 LINE",
"112 654 LINE",
"50 0 LINE",
"72 0 LINE",
"134 668 LINE",
"308 1350 LINE",
"286 1350 LINE",
"118 682 LINE",
"186 1350 LINE",
"164 1350 LINE",
"96 668 LINE",
"-78 0 LINE"
);
}
);
width = 192;
},
{
anchors = (
{
name = bottom;
position = "{1007.489, 0}";
},
{
name = top;
position = "{1245.53, 1350}";
}
);
layerId = "E5A4176B-9C10-4B01-BBC9-D7999ECBFAF8";
paths = (
{
closed = 1;
nodes = (
"590 0 LINE",
"1084 430 LINE",
"1428 0 LINE",
"2110 0 LINE",
"1502 668 LINE",
"2330 1350 LINE",
"1648 1350 LINE",
"1168 906 LINE",
"850 1350 LINE",
"166 1350 LINE",
"746 668 LINE",
"-94 0 LINE"
);
}
);
width = 2204;
}
);
leftKerningGroup = X;
note = X;
rightKerningGroup = X;
unicode = 0058;
},
{
glyphname = Y;
layers = (
{
anchors = (
{
name = bottom;
position = "{92, 0}";
},
{
name = top;
position = "{92, 1350}";
},
{
name = topleft;
position = "{20, 1350}";
}
);
layerId = "A1A0948C-E637-4A65-8CCC-05505AD98C44";
paths = (
{
closed = 1;
nodes = (
"98 436 LINE",
"146 1350 LINE",
"124 1350 LINE",
"84 474 LINE",
"90 474 LINE",
"50 1350 LINE",
"28 1350 LINE",
"76 436 LINE"
);
},
{
closed = 1;
nodes = (
"98 0 LINE",
"98 448 LINE",
"76 448 LINE",
"76 0 LINE"
);
}
);
width = 184;
},
{
anchors = (
{
name = bottom;
position = "{398, 0}";
},
{
name = top;
position = "{398, 1350}";
},
{
name = topleft;
position = "{20, 1350}";
}
);
layerId = "BA0CA162-2A9B-49EE-921D-3B4346C7D39F";
paths = (
{
closed = 1;
nodes = (
"568 266 LINE",
"788 1350 LINE",
"426 1350 LINE",
"402 680 LINE",
"398 680 LINE",
"372 1350 LINE",
"10 1350 LINE",
"232 266 LINE"
);
},
{
closed = 1;
nodes = (
"574 0 LINE",
"574 552 LINE",
"226 552 LINE",
"226 0 LINE"
);
}
);
width = 796;
},
{
anchors = (
{
name = bottom;
position = "{1143, 0}";
},
{
name = top;
position = "{1143, 1350}";
},
{
name = topleft;
position = "{20, 1350}";
}
);
layerId = "C75D3228-2D13-4E9D-9829-45195F4951D0";
paths = (
{
closed = 1;
nodes = (
"1414 446 LINE",
"2288 1350 LINE",
"1652 1350 LINE",
"1110 740 LINE",
"1184 740 LINE",
"638 1350 LINE",
"2 1350 LINE",
"878 446 LINE"
);
},
{
closed = 1;
nodes = (
"1428 0 LINE",
"1428 672 LINE",
"864 672 LINE",
"864 0 LINE"
);
}
);
width = 2285;
},
{
anchors = (
{
name = bottom;
position = "{892, 0}";
},
{
name = top;
position = "{892, 1350}";
},
{
name = topleft;
position = "{20, 1350}";
}
);
layerId = "71977205-6510-4B11-BB00-17BACA883C8F";
paths = (
{
closed = 1;
nodes = (
"862 578 LINE",
"1612 1350 LINE",
"1582 1350 LINE",
"854 602 LINE",
"856 602 LINE",
"128 1350 LINE",
"98 1350 LINE",
"848 578 LINE"
);
},
{
closed = 1;
nodes = (
"866 0 LINE",
"866 596 LINE",
"844 596 LINE",
"844 0 LINE"
);
}
);
width = 1784;
},
{
anchors = (
{
name = bottom;
position = "{797.489, 0}";
},
{
name = top;
position = "{1035.53, 1350}";
},
{
name = topleft;
position = "{163.53, 1350}";
}
);
layerId = "5997A0D0-E78E-41EC-9011-DECBEAD8517D";
paths = (
{
closed = 1;
nodes = (
"842 578 LINE",
"1730 1350 LINE",
"1698 1350 LINE",
"838 602 LINE",
"840 602 LINE",
"244 1350 LINE",
"216 1350 LINE",
"828 578 LINE"
);
},
{
closed = 1;
nodes = (
"744 0 LINE",
"850 596 LINE",
"828 596 LINE",
"722 0 LINE"
);
}
);
width = 1784;
},
{
anchors = (
{
name = bottom;
position = "{300.489, 0}";
},
{
name = top;
position = "{538.53, 1350}";
},
{
name = topleft;
position = "{163.53, 1350}";
}
);
layerId = "55C4185A-9C39-4468-B19C-DE0A3E571700";
paths = (
{
closed = 1;
nodes = (
"510 266 LINE",
"922 1350 LINE",
"560 1350 LINE",
"416 680 LINE",
"412 680 LINE",
"506 1350 LINE",
"144 1350 LINE",
"174 266 LINE"
);
},
{
closed = 1;
nodes = (
"468 0 LINE",
"566 552 LINE",
"218 552 LINE",
"120 0 LINE"
);
}
);
width = 790;
},
{
anchors = (
{
name = bottom;
position = "{-2.511, 0}";
},
{
name = top;
position = "{235.53, 1350}";
},
{
name = topleft;
position = "{163.53, 1350}";
}
);
layerId = "4F53612F-C4F8-4368-83AD-8913BEEF8F1D";
paths = (
{
closed = 1;
nodes = (
"80 436 LINE",
"290 1350 LINE",
"268 1350 LINE",
"72 474 LINE",
"78 474 LINE",
"194 1350 LINE",
"172 1350 LINE",
"58 436 LINE"
);
},
{
closed = 1;
nodes = (
"2 0 LINE",
"82 448 LINE",
"60 448 LINE",
"-20 0 LINE"
);
}
);
width = 184;
},
{
anchors = (
{
name = bottom;
position = "{1035.489, 0}";
},
{
name = top;
position = "{1273.53, 1350}";
},
{
name = topleft;
position = "{163.53, 1350}";
}
);
layerId = "E5A4176B-9C10-4B01-BBC9-D7999ECBFAF8";
paths = (
{
closed = 1;
nodes = (
"1356 446 LINE",
"2390 1350 LINE",
"1746 1350 LINE",
"1096 740 LINE",
"1170 740 LINE",
"732 1350 LINE",
"102 1350 LINE",
"820 446 LINE"
);
},
{
closed = 1;
nodes = (
"1292 0 LINE",
"1410 672 LINE",
"844 672 LINE",
"726 0 LINE"
);
}
);
width = 2259;
}
);
leftKerningGroup = Y;
note = Y;
rightKerningGroup = Y;
unicode = 0059;
},
{
glyphname = Y.001;
layers = (
{
anchors = (
{
name = bottom;
position = "{80, 0}";
},
{
name = top;
position = "{80, 1350}";
},
{
name = topleft;
position = "{20, 1350}";
}
);
layerId = "A1A0948C-E637-4A65-8CCC-05505AD98C44";
paths = (
{
closed = 1;
nodes = (
"86 516 LINE",
"134 1350 LINE",
"112 1350 LINE",
"74 594 LINE",
"76 594 LINE",
"38 1350 LINE",
"16 1350 LINE",
"64 516 LINE"
);
},
{
closed = 1;
nodes = (
"86 0 LINE",
"86 528 LINE",
"64 528 LINE",
"64 0 LINE"
);
}
);
width = 160;
},
{
anchors = (
{
name = bottom;
position = "{378, 0}";
},
{
name = top;
position = "{378, 1350}";
},
{
name = topleft;
position = "{20, 1350}";
}
);
layerId = "BA0CA162-2A9B-49EE-921D-3B4346C7D39F";
paths = (
{
closed = 1;
nodes = (
"624 420 LINE",
"744 1350 LINE",
"410 1350 LINE",
"378 674 LINE",
"382 674 LINE",
"348 1350 LINE",
"14 1350 LINE",
"136 420 LINE"
);
},
{
closed = 1;
nodes = (
"554 0 LINE",
"554 626 LINE",
"206 626 LINE",
"206 0 LINE"
);
}
);
width = 756;
},
{
anchors = (
{
name = bottom;
position = "{1143, 0}";
},
{
name = top;
position = "{1143, 1350}";
},
{
name = topleft;
position = "{20, 1350}";
}
);
layerId = "C75D3228-2D13-4E9D-9829-45195F4951D0";
paths = (
{
closed = 1;
nodes = (
"1414 446 LINE",
"2288 1350 LINE",
"1652 1350 LINE",
"1110 740 LINE",
"1184 740 LINE",
"638 1350 LINE",
"2 1350 LINE",
"878 446 LINE"
);
},
{
closed = 1;
nodes = (
"1428 0 LINE",
"1428 672 LINE",
"866 672 LINE",
"866 0 LINE"
);
}
);
width = 2285;
},
{
anchors = (
{
name = bottom;
position = "{892, 0}";
},
{
name = top;
position = "{892, 1350}";
},
{
name = topleft;
position = "{20, 1350}";
}
);
layerId = "71977205-6510-4B11-BB00-17BACA883C8F";
paths = (
{
closed = 1;
nodes = (
"862 578 LINE",
"1612 1350 LINE",
"1582 1350 LINE",
"854 600 LINE",
"856 600 LINE",
"128 1350 LINE",
"98 1350 LINE",
"848 578 LINE"
);
},
{
closed = 1;
nodes = (
"866 0 LINE",
"866 596 LINE",
"844 596 LINE",
"844 0 LINE"
);
}
);
width = 1784;
},
{
anchors = (
{
name = bottom;
position = "{797.489, 0}";
},
{
name = top;
position = "{1035.53, 1350}";
},
{
name = topleft;
position = "{163.53, 1350}";
}
);
layerId = "5997A0D0-E78E-41EC-9011-DECBEAD8517D";
paths = (
{
closed = 1;
nodes = (
"846 578 LINE",
"1728 1350 LINE",
"1696 1350 LINE",
"836 600 LINE",
"838 600 LINE",
"244 1350 LINE",
"214 1350 LINE",
"824 578 LINE"
);
},
{
closed = 1;
nodes = (
"744 0 LINE",
"850 596 LINE",
"828 596 LINE",
"722 0 LINE"
);
}
);
width = 1784;
},
{
anchors = (
{
name = bottom;
position = "{283.489, 0}";
},
{
name = top;
position = "{521.53, 1350}";
},
{
name = topleft;
position = "{163.53, 1350}";
}
);
layerId = "55C4185A-9C39-4468-B19C-DE0A3E571700";
paths = (
{
closed = 1;
nodes = (
"600 420 LINE",
"884 1350 LINE",
"550 1350 LINE",
"398 674 LINE",
"402 674 LINE",
"488 1350 LINE",
"154 1350 LINE",
"112 420 LINE"
);
},
{
closed = 1;
nodes = (
"454 0 LINE",
"566 626 LINE",
"218 626 LINE",
"106 0 LINE"
);
}
);
width = 756;
},
{
anchors = (
{
name = bottom;
position = "{-14.511, 0}";
},
{
name = top;
position = "{223.53, 1350}";
},
{
name = topleft;
position = "{163.53, 1350}";
}
);
layerId = "4F53612F-C4F8-4368-83AD-8913BEEF8F1D";
paths = (
{
closed = 1;
nodes = (
"82 516 LINE",
"278 1350 LINE",
"256 1350 LINE",
"84 594 LINE",
"86 594 LINE",
"182 1350 LINE",
"160 1350 LINE",
"60 516 LINE"
);
},
{
closed = 1;
nodes = (
"-10 0 LINE",
"84 528 LINE",
"62 528 LINE",
"-32 0 LINE"
);
}
);
width = 160;
},
{
anchors = (
{
name = bottom;
position = "{1047.489, 0}";
},
{
name = top;
position = "{1285.53, 1350}";
},
{
name = topleft;
position = "{163.53, 1350}";
}
);
layerId = "E5A4176B-9C10-4B01-BBC9-D7999ECBFAF8";
paths = (
{
closed = 1;
nodes = (
"1382 446 LINE",
"2416 1350 LINE",
"1760 1350 LINE",
"1110 740 LINE",
"1184 740 LINE",
"746 1350 LINE",
"130 1350 LINE",
"846 446 LINE"
);
},
{
closed = 1;
nodes = (
"1316 0 LINE",
"1436 672 LINE",
"874 672 LINE",
"754 0 LINE"
);
}
);
width = 2284;
}
);
leftKerningGroup = Y;
note = Y;
rightKerningGroup = Y;
},
{
glyphname = Z;
layers = (
{
anchors = (
{
name = bottom;
position = "{74, 0}";
},
{
name = center;
position = "{74, 675}";
},
{
name = top;
position = "{74, 1350}";
}
);
layerId = "A1A0948C-E637-4A65-8CCC-05505AD98C44";
paths = (
{
closed = 1;
nodes = (
"110 0 LINE",
"110 22 LINE",
"50 22 LINE",
"104 1330 LINE",
"104 1350 LINE",
"28 1350 LINE",
"28 1328 LINE",
"82 1328 LINE",
"28 20 LINE",
"28 0 LINE"
);
}
);
width = 148;
},
{
anchors = (
{
name = bottom;
position = "{254, 0}";
},
{
name = center;
position = "{254, 675}";
},
{
name = top;
position = "{254, 1350}";
}
);
layerId = "BA0CA162-2A9B-49EE-921D-3B4346C7D39F";
paths = (
{
closed = 1;
nodes = (
"496 0 LINE",
"496 224 LINE",
"330 226 LINE",
"494 1130 LINE",
"494 1350 LINE",
"26 1350 LINE",
"26 1126 LINE",
"178 1126 LINE",
"12 224 LINE",
"12 0 LINE"
);
}
);
width = 508;
},
{
anchors = (
{
name = bottom;
position = "{998, 0}";
},
{
name = center;
position = "{998, 675}";
},
{
name = top;
position = "{998, 1350}";
}
);
layerId = "C75D3228-2D13-4E9D-9829-45195F4951D0";
paths = (
{
closed = 1;
nodes = (
"1842 0 LINE",
"1842 362 LINE",
"784 364 LINE",
"1824 984 LINE",
"1824 1350 LINE",
"114 1350 LINE",
"114 988 LINE",
"1138 990 LINE",
"98 380 LINE",
"98 0 LINE"
);
}
);
width = 1995;
},
{
anchors = (
{
name = bottom;
position = "{806, 0}";
},
{
name = center;
position = "{806, 675}";
},
{
name = top;
position = "{806, 1350}";
}
);
layerId = "71977205-6510-4B11-BB00-17BACA883C8F";
paths = (
{
closed = 1;
nodes = (
"1436 0 LINE",
"1436 22 LINE",
"140 24 LINE",
"1364 1324 LINE",
"1364 1350 LINE",
"124 1350 LINE",
"124 1328 LINE",
"1336 1326 LINE",
"112 30 LINE",
"112 0 LINE"
);
}
);
width = 1612;
},
{
anchors = (
{
name = bottom;
position = "{711.489, 0}";
},
{
name = center;
position = "{830.509, 675}";
},
{
name = top;
position = "{949.53, 1350}";
}
);
layerId = "5997A0D0-E78E-41EC-9011-DECBEAD8517D";
paths = (
{
closed = 1;
nodes = (
"1296 0 LINE",
"1300 22 LINE",
"8 24 LINE",
"1458 1324 LINE",
"1464 1350 LINE",
"224 1350 LINE",
"220 1328 LINE",
"1428 1326 LINE",
"-22 30 LINE",
"-28 0 LINE"
);
}
);
width = 1612;
},
{
anchors = (
{
name = bottom;
position = "{157.489, 0}";
},
{
name = center;
position = "{276.509, 675}";
},
{
name = top;
position = "{395.53, 1350}";
}
);
layerId = "55C4185A-9C39-4468-B19C-DE0A3E571700";
paths = (
{
closed = 1;
nodes = (
"392 0 LINE",
"432 224 LINE",
"266 226 LINE",
"590 1130 LINE",
"630 1350 LINE",
"160 1350 LINE",
"120 1126 LINE",
"274 1126 LINE",
"-50 224 LINE",
"-90 0 LINE"
);
}
);
width = 504;
},
{
anchors = (
{
name = bottom;
position = "{-17.511, 0}";
},
{
name = center;
position = "{101.509, 675}";
},
{
name = top;
position = "{220.53, 1350}";
}
);
layerId = "4F53612F-C4F8-4368-83AD-8913BEEF8F1D";
paths = (
{
closed = 1;
nodes = (
"20 0 LINE",
"24 22 LINE",
"-40 22 LINE",
"248 1330 LINE",
"252 1350 LINE",
"174 1350 LINE",
"170 1328 LINE",
"226 1328 LINE",
"-62 20 LINE",
"-66 0 LINE"
);
}
);
width = 154;
},
{
anchors = (
{
name = bottom;
position = "{903.489, 0}";
},
{
name = center;
position = "{1022.509, 675}";
},
{
name = top;
position = "{1141.53, 1350}";
}
);
layerId = "E5A4176B-9C10-4B01-BBC9-D7999ECBFAF8";
paths = (
{
closed = 1;
nodes = (
"1720 0 LINE",
"1784 362 LINE",
"728 364 LINE",
"1876 984 LINE",
"1942 1350 LINE",
"232 1350 LINE",
"168 988 LINE",
"1192 990 LINE",
"44 380 LINE",
"-24 0 LINE"
);
}
);
width = 1995;
}
);
leftKerningGroup = Z;
note = Z;
rightKerningGroup = Z;
unicode = 005A;
},
{
glyphname = a;
layers = (
{
anchors = (
{
name = bottom;
position = "{100, 0}";
},
{
name = ogonek;
position = "{144, 0}";
},
{
name = top;
position = "{100, 1072}";
}
);
layerId = "A1A0948C-E637-4A65-8CCC-05505AD98C44";
paths = (
{
closed = 1;
nodes = (
"156 0 LINE",
"156 678 LINE SMOOTH",
"156 864 OFFCURVE",
"156 1082 OFFCURVE",
"96 1082 QCURVE SMOOTH",
"36 1082 OFFCURVE",
"36 864 OFFCURVE",
"36 672 QCURVE",
"58 672 LINE",
"58 858 OFFCURVE",
"58 1060 OFFCURVE",
"96 1060 QCURVE SMOOTH",
"134 1060 OFFCURVE",
"134 858 OFFCURVE",
"134 672 QCURVE SMOOTH",
"134 38 LINE",
"134 0 LINE"
);
},
{
closed = 1;
nodes = (
"122 -6 OFFCURVE",
"150 76 OFFCURVE",
"150 192 QCURVE",
"134 192 LINE",
"134 74 OFFCURVE",
"110 16 OFFCURVE",
"88 16 QCURVE SMOOTH",
"60 16 OFFCURVE",
"58 172 OFFCURVE",
"58 276 QCURVE SMOOTH",
"58 412 OFFCURVE",
"58 558 OFFCURVE",
"92 574 QCURVE SMOOTH",
"114 584 OFFCURVE",
"146 584 QCURVE",
"146 606 LINE",
"106 606 OFFCURVE",
"86 596 QCURVE SMOOTH",
"36 572 OFFCURVE",
"36 414 OFFCURVE",
"36 276 QCURVE SMOOTH",
"36 172 OFFCURVE",
"36 -6 OFFCURVE",
"88 -6 QCURVE SMOOTH"
);
}
);
width = 200;
},
{
anchors = (
{
name = bottom;
position = "{378, 0}";
},
{
name = ogonek;
position = "{540, 0}";
},
{
name = top;
position = "{378, 1072}";
}
);
layerId = "BA0CA162-2A9B-49EE-921D-3B4346C7D39F";
paths = (
{
closed = 1;
nodes = (
"744 0 LINE",
"744 568 LINE SMOOTH",
"744 752 OFFCURVE",
"744 1084 OFFCURVE",
"380 1084 QCURVE SMOOTH",
"18 1084 OFFCURVE",
"18 752 OFFCURVE",
"18 660 QCURVE",
"366 662 LINE",
"366 794 OFFCURVE",
"366 858 OFFCURVE",
"380 858 QCURVE SMOOTH",
"394 858 OFFCURVE",
"394 794 OFFCURVE",
"394 662 QCURVE SMOOTH",
"394 182 LINE",
"460 0 LINE"
);
},
{
closed = 1;
nodes = (
"380 -10 OFFCURVE",
"502 148 OFFCURVE",
"500 314 QCURVE",
"394 438 LINE",
"394 266 OFFCURVE",
"394 214 OFFCURVE",
"380 214 QCURVE SMOOTH",
"366 214 OFFCURVE",
"366 282 OFFCURVE",
"366 328 QCURVE SMOOTH",
"366 382 OFFCURVE",
"374 414 OFFCURVE",
"384 422 QCURVE SMOOTH",
"394 430 OFFCURVE",
"402 430 QCURVE",
"402 642 LINE",
"214 642 OFFCURVE",
"138 604 QCURVE SMOOTH",
"66 568 OFFCURVE",
"4 446 OFFCURVE",
"4 308 QCURVE SMOOTH",
"4 120 OFFCURVE",
"138 -10 OFFCURVE",
"254 -10 QCURVE SMOOTH"
);
}
);
width = 756;
},
{
anchors = (
{
name = bottom;
position = "{1075, 0}";
},
{
name = ogonek;
position = "{1621, 0}";
},
{
name = top;
position = "{1075, 1072}";
}
);
layerId = "C75D3228-2D13-4E9D-9829-45195F4951D0";
paths = (
{
closed = 1;
nodes = (
"1980 0 LINE",
"1980 542 LINE SMOOTH",
"1980 838 OFFCURVE",
"1516 1104 OFFCURVE",
"1068 1104 QCURVE SMOOTH",
"670 1104 OFFCURVE",
"174 954 OFFCURVE",
"124 902 QCURVE",
"670 676 LINE",
"702 696 OFFCURVE",
"922 750 OFFCURVE",
"1064 750 QCURVE SMOOTH",
"1226 750 OFFCURVE",
"1422 690 OFFCURVE",
"1422 668 QCURVE SMOOTH",
"1422 186 LINE",
"1502 0 LINE"
);
},
{
closed = 1;
nodes = (
"1176 -20 OFFCURVE",
"1602 162 OFFCURVE",
"1636 340 QCURVE",
"1444 484 LINE",
"1434 398 OFFCURVE",
"1192 316 OFFCURVE",
"918 316 QCURVE SMOOTH",
"790 316 OFFCURVE",
"658 334 OFFCURVE",
"658 354 QCURVE SMOOTH",
"658 376 OFFCURVE",
"802 394 OFFCURVE",
"1018 402 QCURVE SMOOTH",
"1194 408 OFFCURVE",
"1456 420 QCURVE",
"1456 666 LINE",
"1076 666 OFFCURVE",
"844 656 QCURVE SMOOTH",
"536 642 OFFCURVE",
"88 490 OFFCURVE",
"88 322 QCURVE SMOOTH",
"88 148 OFFCURVE",
"510 -20 OFFCURVE",
"830 -20 QCURVE SMOOTH"
);
}
);
width = 2150;
},
{
anchors = (
{
name = bottom;
position = "{778, 0}";
},
{
name = ogonek;
position = "{1294, 0}";
},
{
name = top;
position = "{778, 1072}";
}
);
layerId = "71977205-6510-4B11-BB00-17BACA883C8F";
paths = (
{
closed = 1;
nodes = (
"1306 0 LINE",
"1306 722 LINE SMOOTH",
"1306 884 OFFCURVE",
"1004 1082 OFFCURVE",
"742 1082 QCURVE SMOOTH",
"452 1082 OFFCURVE",
"132 894 OFFCURVE",
"132 752 QCURVE",
"158 752 LINE",
"158 882 OFFCURVE",
"464 1060 OFFCURVE",
"742 1060 QCURVE SMOOTH",
"992 1060 OFFCURVE",
"1284 874 OFFCURVE",
"1284 710 QCURVE SMOOTH",
"1284 224 LINE",
"1284 0 LINE"
);
},
{
closed = 1;
nodes = (
"946 -10 OFFCURVE",
"1290 144 OFFCURVE",
"1304 234 QCURVE",
"1286 250 LINE",
"1266 154 OFFCURVE",
"936 12 OFFCURVE",
"656 12 QCURVE SMOOTH",
"396 12 OFFCURVE",
"152 162 OFFCURVE",
"152 298 QCURVE SMOOTH",
"152 444 OFFCURVE",
"406 596 OFFCURVE",
"698 596 QCURVE SMOOTH",
"936 596 OFFCURVE",
"1290 596 QCURVE",
"1290 618 LINE",
"946 618 OFFCURVE",
"698 618 QCURVE SMOOTH",
"382 618 OFFCURVE",
"128 448 OFFCURVE",
"128 298 QCURVE SMOOTH",
"128 150 OFFCURVE",
"386 -10 OFFCURVE",
"656 -10 QCURVE SMOOTH"
);
}
);
width = 1556;
},
{
anchors = (
{
name = bottom;
position = "{583, 0}";
},
{
name = ogonek;
position = "{1123, 0}";
},
{
name = top;
position = "{773, 1072}";
}
);
layerId = "5997A0D0-E78E-41EC-9011-DECBEAD8517D";
paths = (
{
closed = 1;
nodes = (
"1136 0 LINE",
"1264 722 LINE SMOOTH",
"1292 884 OFFCURVE",
"1026 1082 OFFCURVE",
"764 1082 QCURVE SMOOTH",
"474 1082 OFFCURVE",
"120 894 OFFCURVE",
"96 752 QCURVE",
"122 752 LINE",
"144 882 OFFCURVE",
"486 1060 OFFCURVE",
"764 1060 QCURVE SMOOTH",
"1014 1060 OFFCURVE",
"1270 874 OFFCURVE",
"1240 710 QCURVE SMOOTH",
"1154 224 LINE",
"1114 0 LINE"
);
},
{
closed = 1;
nodes = (
"776 -10 OFFCURVE",
"1144 136 OFFCURVE",
"1178 238 QCURVE",
"1158 244 LINE",
"1122 148 OFFCURVE",
"768 12 OFFCURVE",
"488 12 QCURVE SMOOTH",
"228 12 OFFCURVE",
"22 170 OFFCURVE",
"38 308 QCURVE SMOOTH",
"54 454 OFFCURVE",
"346 604 OFFCURVE",
"640 616 QCURVE SMOOTH",
"880 626 OFFCURVE",
"1234 644 QCURVE",
"1238 666 LINE",
"920 650 OFFCURVE",
"642 638 QCURVE SMOOTH",
"320 624 OFFCURVE",
"30 458 OFFCURVE",
"14 308 QCURVE SMOOTH",
"-2 158 OFFCURVE",
"216 -10 OFFCURVE",
"486 -10 QCURVE SMOOTH"
);
}
);
width = 1556;
},
{
anchors = (
{
name = bottom;
position = "{280.489, 0}";
},
{
name = ogonek;
position = "{439, 0}";
},
{
name = top;
position = "{469.511, 1072}";
}
);
layerId = "55C4185A-9C39-4468-B19C-DE0A3E571700";
paths = (
{
closed = 1;
nodes = (
"642 0 LINE",
"758 648 LINE SMOOTH",
"784 792 OFFCURVE",
"834 1084 OFFCURVE",
"472 1084 QCURVE SMOOTH",
"108 1084 OFFCURVE",
"56 792 OFFCURVE",
"36 680 QCURVE",
"388 682 LINE",
"406 794 OFFCURVE",
"418 858 OFFCURVE",
"432 858 QCURVE SMOOTH",
"446 858 OFFCURVE",
"436 794 OFFCURVE",
"412 662 QCURVE SMOOTH",
"328 182 LINE",
"360 0 LINE"
);
},
{
closed = 1;
nodes = (
"280 -10 OFFCURVE",
"450 148 OFFCURVE",
"476 314 QCURVE",
"374 442 LINE",
"344 270 OFFCURVE",
"332 214 OFFCURVE",
"318 214 QCURVE SMOOTH",
"304 214 OFFCURVE",
"316 278 OFFCURVE",
"324 324 QCURVE SMOOTH",
"336 390 OFFCURVE",
"354 424 OFFCURVE",
"366 434 QCURVE SMOOTH",
"376 442 OFFCURVE",
"380 442 QCURVE",
"416 642 LINE",
"228 642 OFFCURVE",
"146 604 QCURVE SMOOTH",
"68 568 OFFCURVE",
"-20 426 OFFCURVE",
"-40 308 QCURVE SMOOTH",
"-72 120 OFFCURVE",
"38 -10 OFFCURVE",
"154 -10 QCURVE SMOOTH"
);
}
);
width = 750;
},
{
anchors = (
{
name = bottom;
position = "{6.489, 0}";
},
{
name = ogonek;
position = "{49, 0}";
},
{
name = top;
position = "{195.511, 1072}";
}
);
layerId = "4F53612F-C4F8-4368-83AD-8913BEEF8F1D";
paths = (
{
closed = 1;
nodes = (
"60 0 LINE",
"178 678 LINE SMOOTH",
"210 864 OFFCURVE",
"250 1082 OFFCURVE",
"190 1082 QCURVE SMOOTH",
"130 1082 OFFCURVE",
"92 864 OFFCURVE",
"58 672 QCURVE",
"80 672 LINE",
"112 858 OFFCURVE",
"148 1060 OFFCURVE",
"186 1060 QCURVE SMOOTH",
"224 1060 OFFCURVE",
"188 858 OFFCURVE",
"156 672 QCURVE SMOOTH",
"44 38 LINE",
"38 0 LINE"
);
},
{
closed = 1;
nodes = (
"24 -6 OFFCURVE",
"66 76 OFFCURVE",
"86 192 QCURVE",
"70 192 LINE",
"50 74 OFFCURVE",
"16 16 OFFCURVE",
"-6 16 QCURVE SMOOTH",
"-34 16 OFFCURVE",
"-8 172 OFFCURVE",
"10 276 QCURVE SMOOTH",
"34 412 OFFCURVE",
"60 558 OFFCURVE",
"96 574 QCURVE SMOOTH",
"120 584 OFFCURVE",
"152 584 QCURVE",
"156 606 LINE",
"116 606 OFFCURVE",
"94 596 QCURVE SMOOTH",
"40 572 OFFCURVE",
"12 414 OFFCURVE",
"-12 276 QCURVE SMOOTH",
"-30 172 OFFCURVE",
"-62 -6 OFFCURVE",
"-10 -6 QCURVE SMOOTH"
);
}
);
width = 202;
},
{
anchors = (
{
name = bottom;
position = "{980.489, 0}";
},
{
name = ogonek;
position = "{1506, 0}";
},
{
name = top;
position = "{1169.511, 1072}";
}
);
layerId = "E5A4176B-9C10-4B01-BBC9-D7999ECBFAF8";
paths = (
{
closed = 1;
nodes = (
"1860 0 LINE",
"1966 594 LINE SMOOTH",
"2022 910 OFFCURVE",
"1478 1104 OFFCURVE",
"1144 1104 QCURVE SMOOTH",
"852 1104 OFFCURVE",
"232 978 OFFCURVE",
"186 912 QCURVE",
"712 682 LINE",
"748 698 OFFCURVE",
"936 750 OFFCURVE",
"1078 750 QCURVE SMOOTH",
"1240 750 OFFCURVE",
"1424 690 OFFCURVE",
"1420 668 QCURVE SMOOTH",
"1336 186 LINE",
"1382 0 LINE"
);
},
{
closed = 1;
nodes = (
"1054 -20 OFFCURVE",
"1552 162 OFFCURVE",
"1616 340 QCURVE",
"1392 504 LINE",
"1374 428 OFFCURVE",
"1184 332 OFFCURVE",
"946 318 QCURVE SMOOTH",
"776 308 OFFCURVE",
"614 332 OFFCURVE",
"618 352 QCURVE SMOOTH",
"622 374 OFFCURVE",
"768 392 OFFCURVE",
"970 402 QCURVE SMOOTH",
"1148 410 OFFCURVE",
"1410 418 QCURVE",
"1454 666 LINE",
"1074 666 OFFCURVE",
"840 652 QCURVE SMOOTH",
"528 634 OFFCURVE",
"42 490 OFFCURVE",
"26 322 QCURVE SMOOTH",
"10 146 OFFCURVE",
"388 -20 OFFCURVE",
"708 -20 QCURVE SMOOTH"
);
}
);
width = 2150;
}
);
leftKerningGroup = a;
note = a;
rightKerningGroup = n;
unicode = 0061;
},
{
glyphname = a.ss01;
layers = (
{
anchors = (
{
name = bottom;
position = "{103, 0}";
},
{
name = ogonek;
position = "{152, 1}";
},
{
name = top;
position = "{103, 1072}";
}
);
components = (
{
name = dcurve;
transform = "{1, 0, 0, 1, 10, 0}";
}
);
layerId = "A1A0948C-E637-4A65-8CCC-05505AD98C44";
paths = (
{
closed = 1;
nodes = (
"162 0 LINE",
"162 1072 LINE",
"140 1072 LINE",
"140 66 LINE",
"142 0 LINE"
);
}
);
width = 206;
},
{
anchors = (
{
name = bottom;
position = "{1063, 0}";
},
{
name = ogonek;
position = "{1524, 0}";
},
{
name = top;
position = "{1063, 1072}";
}
);
components = (
{
name = dcurve;
}
);
layerId = "C75D3228-2D13-4E9D-9829-45195F4951D0";
paths = (
{
closed = 1;
nodes = (
"1974 0 LINE",
"1974 1072 LINE",
"1408 1072 LINE",
"1408 228 LINE",
"1408 0 LINE"
);
}
);
width = 2151;
},
{
anchors = (
{
name = bottom;
position = "{369, 0}";
},
{
name = ogonek;
position = "{530, 0}";
},
{
name = top;
position = "{369, 1072}";
}
);
components = (
{
name = dcurve;
}
);
layerId = "BA0CA162-2A9B-49EE-921D-3B4346C7D39F";
paths = (
{
closed = 1;
nodes = (
"726 0 LINE",
"726 1072 LINE",
"382 1072 LINE",
"382 168 LINE",
"456 0 LINE"
);
}
);
width = 738;
},
{
anchors = (
{
name = bottom;
position = "{770, 0}";
},
{
name = ogonek;
position = "{1295, 0}";
},
{
name = top;
position = "{770, 1072}";
}
);
components = (
{
name = dcurve;
transform = "{1, 0, 0, 1, 10, 0}";
}
);
layerId = "71977205-6510-4B11-BB00-17BACA883C8F";
paths = (
{
closed = 1;
nodes = (
"1306 0 LINE",
"1306 1072 LINE",
"1284 1072 LINE",
"1284 328 LINE",
"1284 0 LINE"
);
}
);
width = 1562;
},
{
anchors = (
{
name = bottom;
position = "{623, 0}";
},
{
name = ogonek;
position = "{1198, 0}";
},
{
name = top;
position = "{813, 1072}";
}
);
components = (
{
name = dcurve;
transform = "{1, 0, 0, 1, 10, 0}";
}
);
layerId = "5997A0D0-E78E-41EC-9011-DECBEAD8517D";
paths = (
{
closed = 1;
nodes = (
"1210 0 LINE",
"1398 1072 LINE",
"1376 1072 LINE",
"1246 328 LINE",
"1188 0 LINE"
);
}
);
width = 1562;
},
{
anchors = (
{
name = bottom;
position = "{273.489, 0}";
},
{
name = ogonek;
position = "{434, 0}";
},
{
name = top;
position = "{462.511, 1072}";
}
);
components = (
{
name = dcurve;
}
);
layerId = "55C4185A-9C39-4468-B19C-DE0A3E571700";
paths = (
{
closed = 1;
nodes = (
"626 0 LINE",
"814 1072 LINE",
"470 1072 LINE",
"312 168 LINE",
"356 0 LINE"
);
}
);
width = 736;
},
{
anchors = (
{
name = bottom;
position = "{8, 0}";
},
{
name = ogonek;
position = "{61, 0}";
},
{
name = top;
position = "{198, 1072}";
}
);
components = (
{
name = dcurve;
transform = "{1, 0, 0, 1, 10, 0}";
}
);
layerId = "4F53612F-C4F8-4368-83AD-8913BEEF8F1D";
paths = (
{
closed = 1;
nodes = (
"70 0 LINE",
"258 1072 LINE",
"236 1072 LINE",
"58 66 LINE",
"50 0 LINE"
);
}
);
width = 208;
},
{
anchors = (
{
name = bottom;
position = "{971, 0}";
},
{
name = ogonek;
position = "{1406, 0}";
},
{
name = top;
position = "{1161, 1072}";
}
);
components = (
{
name = dcurve;
}
);
layerId = "E5A4176B-9C10-4B01-BBC9-D7999ECBFAF8";
paths = (
{
closed = 1;
nodes = (
"1850 0 LINE",
"2038 1072 LINE",
"1472 1072 LINE",
"1324 228 LINE",
"1284 0 LINE"
);
}
);
width = 2151;
}
);
leftKerningGroup = o;
leftMetricsKey = d;
rightKerningGroup = l;
rightMetricsKey = d;
},
{
glyphname = ae;
layers = (
{
anchors = (
{
name = bottom;
position = "{151, 0}";
},
{
name = top;
position = "{151, 1072}";
}
);
components = (
{
alignment = -1;
name = e;
transform = "{1, 0, 0, 1, 100, 0}";
}
);
layerId = "A1A0948C-E637-4A65-8CCC-05505AD98C44";
paths = (
{
closed = 1;
nodes = (
"156 678 LINE SMOOTH",
"156 864 OFFCURVE",
"156 1082 OFFCURVE",
"96 1082 QCURVE SMOOTH",
"36 1082 OFFCURVE",
"36 864 OFFCURVE",
"36 672 QCURVE",
"58 672 LINE",
"58 858 OFFCURVE",
"58 1060 OFFCURVE",
"96 1060 QCURVE SMOOTH",
"134 1060 OFFCURVE",
"134 858 OFFCURVE",
"134 672 QCURVE SMOOTH",
"134 140 LINE",
"136 104 LINE",
"156 96 LINE"
);
},
{
closed = 1;
nodes = (
"120 -6 OFFCURVE",
"154 76 OFFCURVE",
"154 192 QCURVE",
"134 192 LINE",
"134 78 OFFCURVE",
"108 16 OFFCURVE",
"86 16 QCURVE SMOOTH",
"60 16 OFFCURVE",
"58 152 OFFCURVE",
"58 276 QCURVE SMOOTH",
"58 402 OFFCURVE",
"58 558 OFFCURVE",
"92 574 QCURVE SMOOTH",
"114 584 OFFCURVE",
"146 584 QCURVE",
"146 606 LINE",
"106 606 OFFCURVE",
"86 596 QCURVE SMOOTH",
"36 572 OFFCURVE",
"36 414 OFFCURVE",
"36 276 QCURVE SMOOTH",
"36 152 OFFCURVE",
"36 -6 OFFCURVE",
"86 -6 QCURVE SMOOTH"
);
}
);
width = 300;
},
{
anchors = (
{
name = bottom;
position = "{561, 0}";
},
{
name = top;
position = "{561, 1072}";
}
);
components = (
{
alignment = -1;
name = e;
transform = "{1, 0, 0, 1, 382, 0}";
}
);
layerId = "BA0CA162-2A9B-49EE-921D-3B4346C7D39F";
paths = (
{
closed = 1;
nodes = (
"742 648 LINE SMOOTH",
"742 792 OFFCURVE",
"742 1084 OFFCURVE",
"380 1084 QCURVE SMOOTH",
"16 1084 OFFCURVE",
"16 792 OFFCURVE",
"16 680 QCURVE",
"366 680 LINE",
"366 792 OFFCURVE",
"366 858 OFFCURVE",
"380 858 QCURVE SMOOTH",
"394 858 OFFCURVE",
"394 794 OFFCURVE",
"394 662 QCURVE SMOOTH",
"394 182 LINE",
"460 182 LINE",
"742 148 LINE"
);
},
{
closed = 1;
nodes = (
"488 -10 OFFCURVE",
"602 148 OFFCURVE",
"600 314 QCURVE",
"394 450 LINE",
"394 278 OFFCURVE",
"394 214 OFFCURVE",
"380 214 QCURVE SMOOTH",
"366 214 OFFCURVE",
"366 278 OFFCURVE",
"366 324 QCURVE SMOOTH",
"366 390 OFFCURVE",
"378 426 OFFCURVE",
"388 434 QCURVE SMOOTH",
"398 442 OFFCURVE",
"402 442 QCURVE",
"402 642 LINE",
"214 642 OFFCURVE",
"138 604 QCURVE SMOOTH",
"66 568 OFFCURVE",
"4 426 OFFCURVE",
"4 308 QCURVE SMOOTH",
"4 120 OFFCURVE",
"138 -10 OFFCURVE",
"254 -10 QCURVE SMOOTH"
);
}
);
width = 1134;
},
{
anchors = (
{
name = bottom;
position = "{1703, 0}";
},
{
name = top;
position = "{1703, 1072}";
}
);
components = (
{
alignment = -1;
name = e;
transform = "{1, 0, 0, 1, 1334, 0}";
}
);
layerId = "C75D3228-2D13-4E9D-9829-45195F4951D0";
paths = (
{
closed = 1;
nodes = (
"1980 594 LINE SMOOTH",
"1980 910 OFFCURVE",
"1402 1104 OFFCURVE",
"1068 1104 QCURVE SMOOTH",
"776 1104 OFFCURVE",
"178 978 OFFCURVE",
"144 912 QCURVE",
"710 682 LINE",
"744 698 OFFCURVE",
"922 750 OFFCURVE",
"1064 750 QCURVE SMOOTH",
"1226 750 OFFCURVE",
"1422 690 OFFCURVE",
"1422 668 QCURVE SMOOTH",
"1422 336 LINE",
"1502 286 LINE",
"1980 286 LINE"
);
},
{
closed = 1;
nodes = (
"1176 -20 OFFCURVE",
"1642 162 OFFCURVE",
"1676 340 QCURVE",
"1424 504 LINE",
"1414 418 OFFCURVE",
"1244 332 OFFCURVE",
"1008 318 QCURVE SMOOTH",
"840 308 OFFCURVE",
"674 332 OFFCURVE",
"674 352 QCURVE SMOOTH",
"674 374 OFFCURVE",
"818 392 OFFCURVE",
"1018 402 QCURVE SMOOTH",
"1194 410 OFFCURVE",
"1456 418 QCURVE",
"1456 666 LINE",
"1076 666 OFFCURVE",
"844 652 QCURVE SMOOTH",
"536 634 OFFCURVE",
"88 490 OFFCURVE",
"88 322 QCURVE SMOOTH",
"88 148 OFFCURVE",
"510 -20 OFFCURVE",
"830 -20 QCURVE SMOOTH"
);
}
);
width = 3480;
},
{
anchors = (
{
name = bottom;
position = "{1379, 0}";
},
{
name = top;
position = "{1379, 1072}";
}
);
components = (
{
alignment = -1;
name = e;
transform = "{1, 0, 0, 1, 1164, 0}";
}
);
layerId = "71977205-6510-4B11-BB00-17BACA883C8F";
paths = (
{
closed = 1;
nodes = (
"1306 722 LINE SMOOTH",
"1306 884 OFFCURVE",
"1004 1082 OFFCURVE",
"742 1082 QCURVE SMOOTH",
"452 1082 OFFCURVE",
"132 894 OFFCURVE",
"132 752 QCURVE",
"158 752 LINE",
"158 882 OFFCURVE",
"464 1060 OFFCURVE",
"742 1060 QCURVE SMOOTH",
"992 1060 OFFCURVE",
"1284 874 OFFCURVE",
"1284 710 QCURVE SMOOTH",
"1284 562 LINE",
"1284 544 LINE",
"1306 544 LINE"
);
},
{
closed = 1;
nodes = (
"944 -10 OFFCURVE",
"1306 212 OFFCURVE",
"1306 544 QCURVE",
"1284 544 LINE",
"1284 226 OFFCURVE",
"936 12 OFFCURVE",
"656 12 QCURVE SMOOTH",
"396 12 OFFCURVE",
"152 162 OFFCURVE",
"152 298 QCURVE SMOOTH",
"152 444 OFFCURVE",
"406 596 OFFCURVE",
"698 596 QCURVE SMOOTH",
"936 596 OFFCURVE",
"1290 596 QCURVE",
"1290 618 LINE",
"946 618 OFFCURVE",
"698 618 QCURVE SMOOTH",
"382 618 OFFCURVE",
"128 448 OFFCURVE",
"128 298 QCURVE SMOOTH",
"128 150 OFFCURVE",
"386 -10 OFFCURVE",
"656 -10 QCURVE SMOOTH"
);
}
);
width = 2774;
},
{
anchors = (
{
name = bottom;
position = "{1216, 0}";
},
{
name = top;
position = "{1406, 1072}";
}
);
components = (
{
alignment = -1;
name = e;
transform = "{1, 0, 0, 1, 1091, 0}";
}
);
layerId = "5997A0D0-E78E-41EC-9011-DECBEAD8517D";
paths = (
{
closed = 1;
nodes = (
"1263 722 LINE SMOOTH",
"1290 884 OFFCURVE",
"1025 1082 OFFCURVE",
"763 1082 QCURVE SMOOTH",
"473 1082 OFFCURVE",
"121 894 OFFCURVE",
"95 752 QCURVE",
"121 752 LINE",
"145 882 OFFCURVE",
"481 1060 OFFCURVE",
"759 1060 QCURVE SMOOTH",
"1009 1060 OFFCURVE",
"1265 874 OFFCURVE",
"1239 710 QCURVE SMOOTH",
"1216 562 LINE",
"1214 544 LINE",
"1233 544 LINE"
);
},
{
closed = 1;
nodes = (
"773 -10 OFFCURVE",
"1173 212 OFFCURVE",
"1233 544 QCURVE",
"1214 544 LINE",
"1158 234 OFFCURVE",
"769 12 OFFCURVE",
"489 12 QCURVE SMOOTH",
"229 12 OFFCURVE",
"11 162 OFFCURVE",
"35 298 QCURVE SMOOTH",
"61 444 OFFCURVE",
"341 596 OFFCURVE",
"633 596 QCURVE SMOOTH",
"871 596 OFFCURVE",
"1225 596 QCURVE",
"1229 618 LINE",
"885 618 OFFCURVE",
"637 618 QCURVE SMOOTH",
"321 618 OFFCURVE",
"37 448 OFFCURVE",
"11 298 QCURVE SMOOTH",
"-15 150 OFFCURVE",
"215 -10 OFFCURVE",
"485 -10 QCURVE SMOOTH"
);
}
);
width = 2701;
},
{
anchors = (
{
name = bottom;
position = "{465, 0}";
},
{
name = top;
position = "{655, 1072}";
}
);
components = (
{
alignment = -1;
name = e;
transform = "{1, 0, 0, 1, 384, 0}";
}
);
layerId = "55C4185A-9C39-4468-B19C-DE0A3E571700";
paths = (
{
closed = 1;
nodes = (
"758 648 LINE SMOOTH",
"784 792 OFFCURVE",
"834 1084 OFFCURVE",
"472 1084 QCURVE SMOOTH",
"108 1084 OFFCURVE",
"56 792 OFFCURVE",
"38 680 QCURVE",
"388 680 LINE",
"408 792 OFFCURVE",
"418 858 OFFCURVE",
"432 858 QCURVE SMOOTH",
"446 858 OFFCURVE",
"436 794 OFFCURVE",
"412 662 QCURVE SMOOTH",
"328 182 LINE",
"394 182 LINE",
"670 148 LINE"
);
},
{
closed = 1;
nodes = (
"388 -10 OFFCURVE",
"530 148 OFFCURVE",
"556 314 QCURVE",
"374 450 LINE",
"344 278 OFFCURVE",
"334 214 OFFCURVE",
"320 214 QCURVE SMOOTH",
"306 214 OFFCURVE",
"316 278 OFFCURVE",
"324 324 QCURVE SMOOTH",
"336 390 OFFCURVE",
"354 426 OFFCURVE",
"366 434 QCURVE SMOOTH",
"378 442 OFFCURVE",
"382 442 QCURVE",
"416 642 LINE",
"228 642 OFFCURVE",
"146 604 QCURVE SMOOTH",
"68 568 OFFCURVE",
"-20 426 OFFCURVE",
"-40 308 QCURVE SMOOTH",
"-72 120 OFFCURVE",
"38 -10 OFFCURVE",
"154 -10 QCURVE SMOOTH"
);
}
);
width = 1132;
},
{
anchors = (
{
name = bottom;
position = "{57, 0}";
},
{
name = top;
position = "{247, 1072}";
}
);
components = (
{
alignment = -1;
name = e;
transform = "{1, 0, 0, 1, 99, 0}";
}
);
layerId = "4F53612F-C4F8-4368-83AD-8913BEEF8F1D";
paths = (
{
closed = 1;
nodes = (
"178 678 LINE SMOOTH",
"211 864 OFFCURVE",
"250 1082 OFFCURVE",
"190 1082 QCURVE SMOOTH",
"130 1082 OFFCURVE",
"92 864 OFFCURVE",
"58 672 QCURVE",
"80 672 LINE",
"112 858 OFFCURVE",
"148 1060 OFFCURVE",
"186 1060 QCURVE SMOOTH",
"224 1060 OFFCURVE",
"189 858 OFFCURVE",
"156 672 QCURVE SMOOTH",
"62 140 LINE",
"58 104 LINE",
"76 96 LINE"
);
},
{
closed = 1;
nodes = (
"22 -6 OFFCURVE",
"70 76 OFFCURVE",
"90 192 QCURVE",
"70 192 LINE",
"50 78 OFFCURVE",
"14 16 OFFCURVE",
"-8 16 QCURVE SMOOTH",
"-34 16 OFFCURVE",
"-12 152 OFFCURVE",
"10 276 QCURVE SMOOTH",
"32 402 OFFCURVE",
"60 558 OFFCURVE",
"96 574 QCURVE SMOOTH",
"120 585 OFFCURVE",
"152 584 QCURVE",
"156 606 LINE",
"116 606 OFFCURVE",
"94 596 QCURVE SMOOTH",
"40 572 OFFCURVE",
"12 414 OFFCURVE",
"-12 276 QCURVE SMOOTH",
"-34 152 OFFCURVE",
"-62 -6 OFFCURVE",
"-12 -6 QCURVE SMOOTH"
);
}
);
width = 301;
},
{
anchors = (
{
name = bottom;
position = "{1597, 0}";
},
{
name = top;
position = "{1787, 1072}";
}
);
components = (
{
alignment = -1;
name = e;
transform = "{1, 0, 0, 1, 1323, 0}";
}
);
layerId = "E5A4176B-9C10-4B01-BBC9-D7999ECBFAF8";
paths = (
{
closed = 1;
nodes = (
"1965 594 LINE SMOOTH",
"2022 910 OFFCURVE",
"1477 1104 OFFCURVE",
"1143 1104 QCURVE SMOOTH",
"851 1104 OFFCURVE",
"229 978 OFFCURVE",
"185 912 QCURVE",
"709 682 LINE",
"747 698 OFFCURVE",
"933 750 OFFCURVE",
"1075 750 QCURVE SMOOTH",
"1237 750 OFFCURVE",
"1423 690 OFFCURVE",
"1419 668 QCURVE SMOOTH",
"1361 336 LINE",
"1431 286 LINE",
"1909 286 LINE"
);
},
{
closed = 1;
nodes = (
"1051 -20 OFFCURVE",
"1549 162 OFFCURVE",
"1615 340 QCURVE",
"1393 504 LINE",
"1367 418 OFFCURVE",
"1181 332 OFFCURVE",
"943 318 QCURVE SMOOTH",
"773 308 OFFCURVE",
"611 332 OFFCURVE",
"615 352 QCURVE SMOOTH",
"619 374 OFFCURVE",
"767 392 OFFCURVE",
"969 402 QCURVE SMOOTH",
"1145 411 OFFCURVE",
"1409 418 QCURVE",
"1453 666 LINE",
"1073 666 OFFCURVE",
"839 652 QCURVE SMOOTH",
"527 633 OFFCURVE",
"53 490 OFFCURVE",
"25 322 QCURVE SMOOTH",
"-4 148 OFFCURVE",
"385 -20 OFFCURVE",
"705 -20 QCURVE SMOOTH"
);
}
);
width = 3469;
}
);
leftKerningGroup = a;
leftMetricsKey = a;
rightKerningGroup = e;
rightMetricsKey = e;
unicode = 00E6;
},
{
glyphname = b;
layers = (
{
anchors = (
{
name = bottom;
position = "{103, 0}";
},
{
name = top;
position = "{103, 1480}";
}
);
components = (
{
name = bcurve;
transform = "{1, 0, 0, 1, 10, 0}";
}
);
layerId = "A1A0948C-E637-4A65-8CCC-05505AD98C44";
paths = (
{
closed = 1;
nodes = (
"54 0 LINE",
"56 52 LINE",
"56 1480 LINE",
"34 1480 LINE",
"34 0 LINE"
);
}
);
width = 206;
},
{
anchors = (
{
name = bottom;
position = "{369, 0}";
},
{
name = top;
position = "{369, 1480}";
}
);
components = (
{
name = bcurve;
}
);
layerId = "BA0CA162-2A9B-49EE-921D-3B4346C7D39F";
paths = (
{
closed = 1;
nodes = (
"296 0 LINE",
"356 168 LINE",
"356 1480 LINE",
"12 1480 LINE",
"12 0 LINE"
);
}
);
width = 738;
},
{
anchors = (
{
name = bottom;
position = "{1075, 0}";
},
{
name = top;
position = "{1075, 1480}";
}
);
components = (
{
name = bcurve;
}
);
layerId = "C75D3228-2D13-4E9D-9829-45195F4951D0";
paths = (
{
closed = 1;
nodes = (
"666 0 LINE",
"686 156 LINE",
"686 1480 LINE",
"126 1480 LINE",
"126 0 LINE"
);
}
);
width = 2150;
},
{
anchors = (
{
name = bottom;
position = "{794, 0}";
},
{
name = top;
position = "{794, 1480}";
}
);
components = (
{
name = bcurve;
transform = "{1, 0, 0, 1, 10, 0}";
}
);
layerId = "71977205-6510-4B11-BB00-17BACA883C8F";
paths = (
{
closed = 1;
nodes = (
"162 0 LINE",
"162 328 LINE",
"162 1480 LINE",
"140 1480 LINE",
"140 0 LINE"
);
}
);
width = 1588;
},
{
anchors = (
{
name = bottom;
position = "{699.489, 0}";
},
{
name = top;
position = "{960.453, 1480}";
}
);
components = (
{
name = bcurve;
transform = "{1, 0, 0, 1, 10, 0}";
}
);
layerId = "5997A0D0-E78E-41EC-9011-DECBEAD8517D";
paths = (
{
closed = 1;
nodes = (
"60 0 LINE",
"118 328 LINE",
"320 1480 LINE",
"298 1480 LINE",
"38 0 LINE"
);
}
);
width = 1588;
},
{
anchors = (
{
name = bottom;
position = "{272.489, 0}";
},
{
name = top;
position = "{533.453, 1480}";
}
);
components = (
{
name = bcurve;
}
);
layerId = "55C4185A-9C39-4468-B19C-DE0A3E571700";
paths = (
{
closed = 1;
nodes = (
"194 0 LINE",
"284 168 LINE",
"514 1480 LINE",
"170 1480 LINE",
"-90 0 LINE"
);
}
);
width = 734;
},
{
anchors = (
{
name = bottom;
position = "{9.489, 0}";
},
{
name = top;
position = "{270.453, 1480}";
}
);
components = (
{
name = bcurve;
transform = "{1, 0, 0, 1, 10, 0}";
}
);
layerId = "4F53612F-C4F8-4368-83AD-8913BEEF8F1D";
paths = (
{
closed = 1;
nodes = (
"-40 0 LINE",
"-26 72 LINE",
"224 1480 LINE",
"202 1480 LINE",
"-60 0 LINE"
);
}
);
width = 208;
},
{
anchors = (
{
name = bottom;
position = "{980.489, 0}";
},
{
name = top;
position = "{1241.453, 1480}";
}
);
components = (
{
name = bcurve;
}
);
layerId = "E5A4176B-9C10-4B01-BBC9-D7999ECBFAF8";
paths = (
{
closed = 1;
nodes = (
"542 0 LINE",
"590 156 LINE",
"822 1480 LINE",
"262 1480 LINE",
"2 0 LINE"
);
}
);
width = 2150;
}
);
leftKerningGroup = h;
note = b;
rightKerningGroup = o;
unicode = 0062;
},
{
glyphname = c;
layers = (
{
anchors = (
{
name = bottom;
position = "{99, 0}";
},
{
name = top;
position = "{99, 1072}";
}
);
layerId = "A1A0948C-E637-4A65-8CCC-05505AD98C44";
paths = (
{
closed = 1;
nodes = (
"154 -6 OFFCURVE",
"154 208 OFFCURVE",
"154 400 QCURVE",
"132 400 LINE",
"132 214 OFFCURVE",
"132 16 OFFCURVE",
"94 16 QCURVE SMOOTH",
"56 16 OFFCURVE",
"56 214 OFFCURVE",
"56 536 QCURVE SMOOTH",
"56 858 OFFCURVE",
"56 1060 OFFCURVE",
"94 1060 QCURVE SMOOTH",
"132 1060 OFFCURVE",
"132 858 OFFCURVE",
"132 672 QCURVE",
"154 672 LINE",
"154 864 OFFCURVE",
"154 1082 OFFCURVE",
"94 1082 QCURVE SMOOTH",
"34 1082 OFFCURVE",
"34 864 OFFCURVE",
"34 536 QCURVE SMOOTH",
"34 208 OFFCURVE",
"34 -6 OFFCURVE",
"94 -6 QCURVE SMOOTH"
);
}
);
width = 198;
},
{
anchors = (
{
name = bottom;
position = "{375, 0}";
},
{
name = top;
position = "{375, 1072}";
}
);
layerId = "BA0CA162-2A9B-49EE-921D-3B4346C7D39F";
paths = (
{
closed = 1;
nodes = (
"736 -10 OFFCURVE",
"736 350 OFFCURVE",
"736 470 QCURVE",
"386 470 LINE",
"386 278 OFFCURVE",
"386 214 OFFCURVE",
"372 214 QCURVE SMOOTH",
"358 214 OFFCURVE",
"358 278 OFFCURVE",
"358 536 QCURVE SMOOTH",
"358 794 OFFCURVE",
"358 858 OFFCURVE",
"372 858 QCURVE SMOOTH",
"386 858 OFFCURVE",
"386 794 OFFCURVE",
"386 602 QCURVE",
"736 602 LINE",
"736 722 OFFCURVE",
"736 1084 OFFCURVE",
"372 1084 QCURVE SMOOTH",
"12 1084 OFFCURVE",
"12 736 OFFCURVE",
"12 536 QCURVE SMOOTH",
"12 336 OFFCURVE",
"12 -10 OFFCURVE",
"372 -10 QCURVE SMOOTH"
);
}
);
width = 750;
},
{
anchors = (
{
name = bottom;
position = "{989, 0}";
},
{
name = top;
position = "{989, 1072}";
}
);
layerId = "C75D3228-2D13-4E9D-9829-45195F4951D0";
paths = (
{
closed = 1;
nodes = (
"1328 -16 OFFCURVE",
"1798 110 OFFCURVE",
"1838 170 QCURVE",
"1428 462 LINE SMOOTH",
"1406 432 OFFCURVE",
"1170 344 OFFCURVE",
"1016 344 QCURVE SMOOTH",
"856 344 OFFCURVE",
"622 434 OFFCURVE",
"622 542 QCURVE SMOOTH",
"622 650 OFFCURVE",
"856 740 OFFCURVE",
"1016 740 QCURVE SMOOTH",
"1170 740 OFFCURVE",
"1406 644 OFFCURVE",
"1428 618 QCURVE",
"1838 902 LINE",
"1798 950 OFFCURVE",
"1338 1102 OFFCURVE",
"1016 1102 QCURVE SMOOTH",
"622 1102 OFFCURVE",
"62 842 OFFCURVE",
"62 542 QCURVE SMOOTH",
"62 242 OFFCURVE",
"612 -16 OFFCURVE",
"1006 -16 QCURVE SMOOTH"
);
}
);
width = 1978;
},
{
anchors = (
{
name = bottom;
position = "{788, 0}";
},
{
name = top;
position = "{788, 1072}";
}
);
layerId = "71977205-6510-4B11-BB00-17BACA883C8F";
paths = (
{
closed = 1;
nodes = (
"1074 -10 OFFCURVE",
"1340 216 OFFCURVE",
"1340 370 QCURVE",
"1316 370 LINE",
"1316 228 OFFCURVE",
"1064 12 OFFCURVE",
"760 12 QCURVE SMOOTH",
"454 12 OFFCURVE",
"160 254 OFFCURVE",
"160 536 QCURVE SMOOTH",
"160 810 OFFCURVE",
"450 1060 OFFCURVE",
"760 1060 QCURVE SMOOTH",
"1066 1060 OFFCURVE",
"1316 842 OFFCURVE",
"1316 702 QCURVE",
"1340 702 LINE",
"1340 856 OFFCURVE",
"1076 1082 OFFCURVE",
"760 1082 QCURVE SMOOTH",
"444 1082 OFFCURVE",
"136 824 OFFCURVE",
"136 536 QCURVE SMOOTH",
"136 240 OFFCURVE",
"444 -10 OFFCURVE",
"760 -10 QCURVE SMOOTH"
);
}
);
width = 1576;
},
{
anchors = (
{
name = bottom;
position = "{693.489, 0}";
},
{
name = top;
position = "{882.511, 1072}";
}
);
layerId = "5997A0D0-E78E-41EC-9011-DECBEAD8517D";
paths = (
{
closed = 1;
nodes = (
"940 -10 OFFCURVE",
"1246 216 OFFCURVE",
"1272 370 QCURVE",
"1248 370 LINE",
"1224 228 OFFCURVE",
"930 12 OFFCURVE",
"626 12 QCURVE SMOOTH",
"320 12 OFFCURVE",
"82 252 OFFCURVE",
"122 536 QCURVE SMOOTH",
"160 810 OFFCURVE",
"508 1060 OFFCURVE",
"818 1060 QCURVE SMOOTH",
"1124 1060 OFFCURVE",
"1332 842 OFFCURVE",
"1306 702 QCURVE",
"1330 702 LINE",
"1358 856 OFFCURVE",
"1134 1082 OFFCURVE",
"818 1082 QCURVE SMOOTH",
"502 1082 OFFCURVE",
"138 824 OFFCURVE",
"98 536 QCURVE SMOOTH",
"56 238 OFFCURVE",
"310 -10 OFFCURVE",
"626 -10 QCURVE SMOOTH"
);
}
);
width = 1576;
},
{
anchors = (
{
name = bottom;
position = "{280.489, 0}";
},
{
name = top;
position = "{469.511, 1072}";
}
);
layerId = "55C4185A-9C39-4468-B19C-DE0A3E571700";
paths = (
{
closed = 1;
nodes = (
"640 -10 OFFCURVE",
"692 290 OFFCURVE",
"724 470 QCURVE",
"374 470 LINE",
"340 278 OFFCURVE",
"328 214 OFFCURVE",
"314 214 QCURVE SMOOTH",
"300 214 OFFCURVE",
"312 278 OFFCURVE",
"358 536 QCURVE SMOOTH",
"404 794 OFFCURVE",
"414 858 OFFCURVE",
"428 858 QCURVE SMOOTH",
"442 858 OFFCURVE",
"430 794 OFFCURVE",
"398 602 QCURVE",
"748 602 LINE",
"778 782 OFFCURVE",
"832 1084 OFFCURVE",
"468 1084 QCURVE SMOOTH",
"108 1084 OFFCURVE",
"54 776 OFFCURVE",
"12 536 QCURVE SMOOTH",
"-30 296 OFFCURVE",
"-84 -10 OFFCURVE",
"276 -10 QCURVE SMOOTH"
);
}
);
width = 750;
},
{
anchors = (
{
name = bottom;
position = "{4.489, 0}";
},
{
name = top;
position = "{193.511, 1072}";
}
);
layerId = "4F53612F-C4F8-4368-83AD-8913BEEF8F1D";
paths = (
{
closed = 1;
nodes = (
"58 -6 OFFCURVE",
"96 208 OFFCURVE",
"130 400 QCURVE",
"108 400 LINE",
"74 214 OFFCURVE",
"40 16 OFFCURVE",
"2 16 QCURVE SMOOTH",
"-36 16 OFFCURVE",
"-2 214 OFFCURVE",
"56 536 QCURVE SMOOTH",
"114 858 OFFCURVE",
"148 1060 OFFCURVE",
"186 1060 QCURVE SMOOTH",
"224 1060 OFFCURVE",
"188 858 OFFCURVE",
"156 672 QCURVE",
"178 672 LINE",
"212 864 OFFCURVE",
"250 1082 OFFCURVE",
"190 1082 QCURVE SMOOTH",
"130 1082 OFFCURVE",
"92 864 OFFCURVE",
"34 536 QCURVE SMOOTH",
"-24 208 OFFCURVE",
"-62 -6 OFFCURVE",
"-2 -6 QCURVE SMOOTH"
);
}
);
width = 198;
},
{
anchors = (
{
name = bottom;
position = "{894.489, 0}";
},
{
name = top;
position = "{1083.511, 1072}";
}
);
layerId = "E5A4176B-9C10-4B01-BBC9-D7999ECBFAF8";
paths = (
{
closed = 1;
nodes = (
"1188 -16 OFFCURVE",
"1734 90 OFFCURVE",
"1784 130 QCURVE",
"1394 426 LINE",
"1340 390 OFFCURVE",
"1104 344 OFFCURVE",
"990 344 QCURVE SMOOTH",
"810 344 OFFCURVE",
"586 454 OFFCURVE",
"600 542 QCURVE SMOOTH",
"614 630 OFFCURVE",
"880 740 OFFCURVE",
"1060 740 QCURVE SMOOTH",
"1174 740 OFFCURVE",
"1392 686 OFFCURVE",
"1434 654 QCURVE",
"1928 942 LINE",
"1900 984 OFFCURVE",
"1396 1102 OFFCURVE",
"1094 1102 QCURVE SMOOTH",
"720 1102 OFFCURVE",
"70 822 OFFCURVE",
"40 542 QCURVE SMOOTH",
"10 260 OFFCURVE",
"512 -16 OFFCURVE",
"886 -16 QCURVE SMOOTH"
);
}
);
width = 1978;
}
);
leftKerningGroup = o;
note = c;
rightKerningGroup = c;
unicode = 0063;
},
{
glyphname = d;
layers = (
{
anchors = (
{
name = bottom;
position = "{103, 0}";
},
{
name = center;
position = "{103, 536}";
},
{
name = top;
position = "{103, 1480}";
},
{
name = topright;
position = "{186, 1072}";
}
);
components = (
{
name = dcurve;
transform = "{1, 0, 0, 1, 10, 0}";
}
);
layerId = "A1A0948C-E637-4A65-8CCC-05505AD98C44";
paths = (
{
closed = 1;
nodes = (
"162 0 LINE",
"162 1480 LINE",
"140 1480 LINE",
"140 72 LINE",
"142 0 LINE"
);
}
);
width = 206;
},
{
anchors = (
{
name = bottom;
position = "{369, 0}";
},
{
name = center;
position = "{369, 536}";
},
{
name = top;
position = "{369, 1480}";
},
{
name = topright;
position = "{718, 1072}";
}
);
components = (
{
name = dcurve;
}
);
layerId = "BA0CA162-2A9B-49EE-921D-3B4346C7D39F";
paths = (
{
closed = 1;
nodes = (
"726 0 LINE",
"726 1480 LINE",
"382 1480 LINE",
"382 168 LINE",
"442 0 LINE"
);
}
);
width = 738;
},
{
anchors = (
{
name = bottom;
position = "{1072, 0}";
},
{
name = center;
position = "{1072, 536}";
},
{
name = top;
position = "{1072, 1480}";
},
{
name = topright;
position = "{2123, 1072}";
}
);
components = (
{
name = dcurve;
}
);
layerId = "C75D3228-2D13-4E9D-9829-45195F4951D0";
paths = (
{
closed = 1;
nodes = (
"1966 0 LINE",
"1966 1480 LINE",
"1410 1480 LINE",
"1410 156 LINE",
"1410 0 LINE"
);
}
);
width = 2143;
},
{
anchors = (
{
name = bottom;
position = "{781, 0}";
},
{
name = center;
position = "{781, 536}";
},
{
name = top;
position = "{781, 1480}";
},
{
name = topright;
position = "{1542, 1072}";
}
);
components = (
{
name = dcurve;
transform = "{1, 0, 0, 1, 10, 0}";
}
);
layerId = "71977205-6510-4B11-BB00-17BACA883C8F";
paths = (
{
closed = 1;
nodes = (
"1306 0 LINE",
"1306 1480 LINE",
"1284 1480 LINE",
"1284 328 LINE",
"1284 0 LINE"
);
}
);
width = 1562;
},
{
anchors = (
{
name = bottom;
position = "{686.489, 0}";
},
{
name = center;
position = "{781, 536}";
},
{
name = top;
position = "{947.453, 1480}";
},
{
name = topright;
position = "{1636.511, 1072}";
}
);
components = (
{
name = dcurve;
transform = "{1, 0, 0, 1, 10, 0}";
}
);
layerId = "5997A0D0-E78E-41EC-9011-DECBEAD8517D";
paths = (
{
closed = 1;
nodes = (
"1210 0 LINE",
"1470 1480 LINE",
"1448 1480 LINE",
"1246 328 LINE",
"1188 0 LINE"
);
}
);
width = 1562;
},
{
anchors = (
{
name = bottom;
position = "{273.489, 0}";
},
{
name = center;
position = "{368, 536}";
},
{
name = top;
position = "{534.453, 1480}";
},
{
name = topright;
position = "{810.511, 1072}";
}
);
components = (
{
name = dcurve;
}
);
layerId = "55C4185A-9C39-4468-B19C-DE0A3E571700";
paths = (
{
closed = 1;
nodes = (
"626 0 LINE",
"886 1480 LINE",
"542 1480 LINE",
"312 168 LINE",
"342 0 LINE"
);
}
);
width = 736;
},
{
anchors = (
{
name = bottom;
position = "{9.489, 0}";
},
{
name = center;
position = "{104, 536}";
},
{
name = top;
position = "{270.453, 1480}";
},
{
name = topright;
position = "{282.511, 1072}";
}
);
components = (
{
name = dcurve;
transform = "{1, 0, 0, 1, 10, 0}";
}
);
layerId = "4F53612F-C4F8-4368-83AD-8913BEEF8F1D";
paths = (
{
closed = 1;
nodes = (
"70 0 LINE",
"330 1480 LINE",
"308 1480 LINE",
"60 72 LINE",
"50 0 LINE"
);
}
);
width = 208;
},
{
anchors = (
{
name = bottom;
position = "{977.489, 0}";
},
{
name = center;
position = "{1072, 536}";
},
{
name = top;
position = "{1238.453, 1480}";
},
{
name = topright;
position = "{2217.511, 1072}";
}
);
components = (
{
name = dcurve;
}
);
layerId = "E5A4176B-9C10-4B01-BBC9-D7999ECBFAF8";
paths = (
{
closed = 1;
nodes = (
"1842 0 LINE",
"2102 1480 LINE",
"1546 1480 LINE",
"1314 156 LINE",
"1286 0 LINE"
);
}
);
width = 2143;
}
);
leftKerningGroup = o;
note = d;
rightKerningGroup = l;
unicode = 0064;
},
{
glyphname = eth;
layers = (
{
layerId = "A1A0948C-E637-4A65-8CCC-05505AD98C44";
paths = (
{
closed = 1;
nodes = (
"142 -6 OFFCURVE",
"142 188 OFFCURVE",
"142 536 QCURVE SMOOTH",
"142 884 OFFCURVE",
"142 1082 OFFCURVE",
"88 1082 QCURVE SMOOTH",
"34 1082 OFFCURVE",
"34 884 OFFCURVE",
"34 536 QCURVE SMOOTH",
"34 188 OFFCURVE",
"34 -6 OFFCURVE",
"88 -6 QCURVE SMOOTH"
);
},
{
closed = 1;
nodes = (
"56 16 OFFCURVE",
"56 194 OFFCURVE",
"56 536 QCURVE SMOOTH",
"56 878 OFFCURVE",
"56 1060 OFFCURVE",
"88 1060 QCURVE SMOOTH",
"120 1060 OFFCURVE",
"120 878 OFFCURVE",
"120 536 QCURVE SMOOTH",
"120 194 OFFCURVE",
"120 16 OFFCURVE",
"88 16 QCURVE SMOOTH"
);
},
{
closed = 1;
nodes = (
"142 938 OFFCURVE",
"142 992 OFFCURVE",
"142 1056 CURVE SMOOTH",
"142 1422 OFFCURVE",
"114 1448 OFFCURVE",
"58 1482 CURVE",
"48 1462 LINE",
"104 1424 OFFCURVE",
"124 1414 OFFCURVE",
"124 868 CURVE",
"142 868 LINE"
);
},
{
closed = 1;
nodes = (
"152 1466 LINE",
"136 1476 LINE",
"48 1334 LINE",
"64 1320 LINE"
);
}
);
width = 192;
},
{
layerId = "BA0CA162-2A9B-49EE-921D-3B4346C7D39F";
paths = (
{
closed = 1;
nodes = (
"728 -10 OFFCURVE",
"728 310 OFFCURVE",
"728 536 QCURVE SMOOTH",
"728 762 OFFCURVE",
"728 1082 OFFCURVE",
"370 1082 QCURVE SMOOTH",
"12 1082 OFFCURVE",
"12 762 OFFCURVE",
"12 536 QCURVE SMOOTH",
"12 310 OFFCURVE",
"12 -10 OFFCURVE",
"370 -10 QCURVE SMOOTH"
);
},
{
closed = 1;
nodes = (
"356 214 OFFCURVE",
"356 274 OFFCURVE",
"356 536 QCURVE SMOOTH",
"356 798 OFFCURVE",
"356 858 OFFCURVE",
"370 858 QCURVE SMOOTH",
"384 858 OFFCURVE",
"384 798 OFFCURVE",
"384 536 QCURVE SMOOTH",
"384 274 OFFCURVE",
"384 214 OFFCURVE",
"370 214 QCURVE SMOOTH"
);
},
{
closed = 1;
nodes = (
"728 774 OFFCURVE",
"728 920 OFFCURVE",
"728 988 CURVE SMOOTH",
"728 1330 OFFCURVE",
"442 1460 OFFCURVE",
"190 1476 CURVE",
"128 1252 LINE",
"374 1252 OFFCURVE",
"420 1164 OFFCURVE",
"420 856 CURVE",
"728 686 LINE"
);
},
{
closed = 1;
nodes = (
"508 1466 LINE",
"364 1510 LINE",
"190 1180 LINE",
"328 1132 LINE"
);
}
);
width = 738;
},
{
layerId = "C75D3228-2D13-4E9D-9829-45195F4951D0";
paths = (
{
closed = 1;
nodes = (
"1494 -10 OFFCURVE",
"2054 270 OFFCURVE",
"2054 596 QCURVE SMOOTH",
"2054 820 OFFCURVE",
"1342 1082 OFFCURVE",
"1028 1082 QCURVE SMOOTH",
"602 1082 OFFCURVE",
"80 852 OFFCURVE",
"80 546 QCURVE SMOOTH",
"80 240 OFFCURVE",
"642 -10 OFFCURVE",
"1068 -10 QCURVE SMOOTH"
);
},
{
closed = 1;
nodes = (
"888 352 OFFCURVE",
"638 452 OFFCURVE",
"638 546 QCURVE SMOOTH",
"638 640 OFFCURVE",
"888 740 OFFCURVE",
"1068 740 QCURVE SMOOTH",
"1248 740 OFFCURVE",
"1496 640 OFFCURVE",
"1496 546 QCURVE SMOOTH",
"1496 452 OFFCURVE",
"1248 352 OFFCURVE",
"1068 352 QCURVE SMOOTH"
);
},
{
closed = 1;
nodes = (
"2054 896 OFFCURVE",
"1954 1152 OFFCURVE",
"1696 1288 CURVE SMOOTH",
"1396 1446 OFFCURVE",
"1116 1476 OFFCURVE",
"554 1476 CURVE",
"436 1182 LINE",
"1126 1182 OFFCURVE",
"1586 1120 OFFCURVE",
"1586 742 CURVE",
"2054 596 LINE"
);
},
{
closed = 1;
nodes = (
"1280 1522 LINE",
"956 1566 LINE",
"712 1120 LINE",
"1050 1092 LINE"
);
}
);
width = 2164;
},
{
layerId = "71977205-6510-4B11-BB00-17BACA883C8F";
paths = (
{
closed = 1;
nodes = (
"1072 -10 OFFCURVE",
"1380 248 OFFCURVE",
"1380 536 QCURVE SMOOTH",
"1380 824 OFFCURVE",
"1072 1082 OFFCURVE",
"760 1082 QCURVE SMOOTH",
"448 1082 OFFCURVE",
"140 824 OFFCURVE",
"140 536 QCURVE SMOOTH",
"140 248 OFFCURVE",
"448 -10 OFFCURVE",
"760 -10 QCURVE SMOOTH"
);
},
{
closed = 1;
nodes = (
"458 12 OFFCURVE",
"164 262 OFFCURVE",
"164 536 QCURVE SMOOTH",
"164 810 OFFCURVE",
"458 1060 OFFCURVE",
"760 1060 QCURVE SMOOTH",
"1062 1060 OFFCURVE",
"1356 810 OFFCURVE",
"1356 536 QCURVE SMOOTH",
"1356 262 OFFCURVE",
"1062 12 OFFCURVE",
"760 12 QCURVE SMOOTH"
);
},
{
closed = 1;
nodes = (
"1380 740 OFFCURVE",
"1356 926 OFFCURVE",
"1268 1070 CURVE SMOOTH",
"1148 1266 OFFCURVE",
"936 1408 OFFCURVE",
"492 1422 CURVE",
"488 1402 LINE",
"966 1384 OFFCURVE",
"1356 1226 OFFCURVE",
"1356 578 CURVE",
"1380 536 LINE"
);
},
{
closed = 1;
nodes = (
"784 1464 LINE",
"764 1472 LINE",
"686 1292 LINE",
"706 1282 LINE"
);
}
);
width = 1620;
},
{
layerId = "5997A0D0-E78E-41EC-9011-DECBEAD8517D";
paths = (
{
closed = 1;
nodes = (
"960 -10 OFFCURVE",
"1312 248 OFFCURVE",
"1364 536 QCURVE SMOOTH",
"1416 824 OFFCURVE",
"1152 1082 OFFCURVE",
"840 1082 QCURVE SMOOTH",
"528 1082 OFFCURVE",
"174 824 OFFCURVE",
"124 536 QCURVE SMOOTH",
"74 248 OFFCURVE",
"336 -10 OFFCURVE",
"648 -10 QCURVE SMOOTH"
);
},
{
closed = 1;
nodes = (
"350 12 OFFCURVE",
"100 262 OFFCURVE",
"148 536 QCURVE SMOOTH",
"196 810 OFFCURVE",
"534 1060 OFFCURVE",
"836 1060 QCURVE SMOOTH",
"1138 1060 OFFCURVE",
"1388 810 OFFCURVE",
"1340 536 QCURVE SMOOTH",
"1292 262 OFFCURVE",
"954 12 OFFCURVE",
"652 12 QCURVE SMOOTH"
);
},
{
closed = 1;
nodes = (
"1400 740 OFFCURVE",
"1408 926 OFFCURVE",
"1346 1070 CURVE SMOOTH",
"1262 1266 OFFCURVE",
"1074 1408 OFFCURVE",
"632 1422 CURVE",
"624 1402 LINE",
"1100 1384 OFFCURVE",
"1462 1226 OFFCURVE",
"1348 578 CURVE",
"1364 536 LINE"
);
},
{
closed = 1;
nodes = (
"932 1464 LINE",
"912 1472 LINE",
"802 1292 LINE",
"822 1282 LINE"
);
}
);
width = 1620;
},
{
layerId = "55C4185A-9C39-4468-B19C-DE0A3E571700";
paths = (
{
closed = 1;
nodes = (
"628 -10 OFFCURVE",
"684 310 OFFCURVE",
"724 536 QCURVE SMOOTH",
"764 762 OFFCURVE",
"820 1082 OFFCURVE",
"462 1082 QCURVE SMOOTH",
"104 1082 OFFCURVE",
"48 762 OFFCURVE",
"8 536 QCURVE SMOOTH",
"-32 310 OFFCURVE",
"-88 -10 OFFCURVE",
"270 -10 QCURVE SMOOTH"
);
},
{
closed = 1;
nodes = (
"296 214 OFFCURVE",
"306 274 OFFCURVE",
"352 536 QCURVE SMOOTH",
"398 798 OFFCURVE",
"410 858 OFFCURVE",
"424 858 QCURVE SMOOTH",
"438 858 OFFCURVE",
"426 798 OFFCURVE",
"380 536 QCURVE SMOOTH",
"334 274 OFFCURVE",
"324 214 OFFCURVE",
"310 214 QCURVE SMOOTH"
);
},
{
closed = 1;
nodes = (
"766 774 OFFCURVE",
"792 920 OFFCURVE",
"804 988 CURVE SMOOTH",
"864 1330 OFFCURVE",
"602 1460 OFFCURVE",
"352 1476 CURVE",
"250 1252 LINE",
"496 1252 OFFCURVE",
"526 1164 OFFCURVE",
"472 856 CURVE",
"750 686 LINE"
);
},
{
closed = 1;
nodes = (
"668 1466 LINE",
"532 1510 LINE",
"300 1180 LINE",
"430 1132 LINE"
);
}
);
width = 738;
},
{
layerId = "4F53612F-C4F8-4368-83AD-8913BEEF8F1D";
paths = (
{
closed = 1;
nodes = (
"46 -6 OFFCURVE",
"82 188 OFFCURVE",
"142 536 QCURVE SMOOTH",
"202 884 OFFCURVE",
"238 1082 OFFCURVE",
"184 1082 QCURVE SMOOTH",
"130 1082 OFFCURVE",
"96 884 OFFCURVE",
"34 536 QCURVE SMOOTH",
"-28 188 OFFCURVE",
"-62 -6 OFFCURVE",
"-8 -6 QCURVE SMOOTH"
);
},
{
closed = 1;
nodes = (
"-36 16 OFFCURVE",
"-4 194 OFFCURVE",
"56 536 QCURVE SMOOTH",
"116 878 OFFCURVE",
"148 1060 OFFCURVE",
"180 1060 QCURVE SMOOTH",
"212 1060 OFFCURVE",
"180 878 OFFCURVE",
"120 536 QCURVE SMOOTH",
"60 194 OFFCURVE",
"28 16 OFFCURVE",
"-4 16 QCURVE SMOOTH"
);
},
{
closed = 1;
nodes = (
"213 938 OFFCURVE",
"222 992 OFFCURVE",
"234 1056 CURVE SMOOTH",
"302 1422 OFFCURVE",
"276 1448 OFFCURVE",
"226 1482 CURVE",
"212 1462 LINE",
"260 1424 OFFCURVE",
"280 1414 OFFCURVE",
"182 868 CURVE",
"199 868 LINE"
);
},
{
closed = 1;
nodes = (
"318 1464 LINE",
"302 1476 LINE",
"190 1334 LINE",
"204 1320 LINE"
);
}
);
width = 192;
},
{
layerId = "E5A4176B-9C10-4B01-BBC9-D7999ECBFAF8";
paths = (
{
closed = 1;
nodes = (
"1396 -10 OFFCURVE",
"2004 270 OFFCURVE",
"2062 596 QCURVE SMOOTH",
"2102 820 OFFCURVE",
"1436 1082 OFFCURVE",
"1122 1082 QCURVE SMOOTH",
"696 1082 OFFCURVE",
"114 852 OFFCURVE",
"80 546 QCURVE SMOOTH",
"46 238 OFFCURVE",
"544 -10 OFFCURVE",
"970 -10 QCURVE SMOOTH"
);
},
{
closed = 1;
nodes = (
"852 352 OFFCURVE",
"620 452 OFFCURVE",
"638 546 QCURVE SMOOTH",
"656 640 OFFCURVE",
"922 740 OFFCURVE",
"1102 740 QCURVE SMOOTH",
"1282 740 OFFCURVE",
"1512 640 OFFCURVE",
"1496 546 QCURVE SMOOTH",
"1480 452 OFFCURVE",
"1212 352 OFFCURVE",
"1032 352 QCURVE SMOOTH"
);
},
{
closed = 1;
nodes = (
"2114 896 OFFCURVE",
"2060 1152 OFFCURVE",
"1826 1288 CURVE SMOOTH",
"1554 1446 OFFCURVE",
"1280 1476 OFFCURVE",
"718 1476 CURVE",
"548 1182 LINE",
"1238 1182 OFFCURVE",
"1686 1120 OFFCURVE",
"1620 742 CURVE",
"2062 596 LINE"
);
},
{
closed = 1;
nodes = (
"1452 1522 LINE",
"1134 1566 LINE",
"812 1120 LINE",
"1146 1092 LINE"
);
}
);
width = 2164;
}
);
leftKerningGroup = o;
rightKerningGroup = o;
unicode = 00F0;
},
{
glyphname = dcaron;
layers = (
{
components = (
{
name = d;
}
);
layerId = "A1A0948C-E637-4A65-8CCC-05505AD98C44";
paths = (
{
closed = 1;
nodes = (
"216 1208 LINE",
"230 1348 LINE",
"208 1348 LINE",
"198 1208 LINE"
);
}
);
width = 260;
},
{
components = (
{
name = d;
}
);
layerId = "BA0CA162-2A9B-49EE-921D-3B4346C7D39F";
paths = (
{
closed = 1;
nodes = (
"986 1008 LINE",
"1038 1348 LINE",
"816 1348 LINE",
"766 1008 LINE"
);
}
);
width = 1050;
},
{
components = (
{
name = d;
}
);
layerId = "C75D3228-2D13-4E9D-9829-45195F4951D0";
paths = (
{
closed = 1;
nodes = (
"2352 878 LINE",
"2536 1348 LINE",
"2182 1348 LINE",
"2036 878 LINE"
);
}
);
width = 2536;
},
{
components = (
{
name = d;
transform = "{1, 0, 0, 1, 2, 0}";
}
);
layerId = "71977205-6510-4B11-BB00-17BACA883C8F";
paths = (
{
closed = 1;
nodes = (
"1428 1136 LINE",
"1516 1348 LINE",
"1482 1348 LINE",
"1400 1136 LINE"
);
}
);
width = 1516;
},
{
components = (
{
name = d;
transform = "{1, 0, 0, 1, 2, 0}";
}
);
layerId = "5997A0D0-E78E-41EC-9011-DECBEAD8517D";
paths = (
{
closed = 1;
nodes = (
"1509 1136 LINE",
"1635 1348 LINE",
"1601 1348 LINE",
"1481 1136 LINE"
);
}
);
width = 1492;
},
{
components = (
{
name = d;
}
);
layerId = "55C4185A-9C39-4468-B19C-DE0A3E571700";
paths = (
{
closed = 1;
nodes = (
"1074 1008 LINE",
"1200 1348 LINE",
"972 1348 LINE",
"850 1008 LINE"
);
}
);
width = 1072;
},
{
components = (
{
name = d;
}
);
layerId = "4F53612F-C4F8-4368-83AD-8913BEEF8F1D";
paths = (
{
closed = 1;
nodes = (
"334 1208 LINE",
"372 1348 LINE",
"350 1348 LINE",
"316 1208 LINE"
);
}
);
width = 264;
},
{
components = (
{
name = d;
}
);
layerId = "E5A4176B-9C10-4B01-BBC9-D7999ECBFAF8";
paths = (
{
closed = 1;
nodes = (
"2392 878 LINE",
"2648 1348 LINE",
"2288 1348 LINE",
"2068 878 LINE"
);
}
);
width = 2505;
}
);
leftKerningGroup = o;
rightKerningGroup = l;
unicode = 010F;
},
